<svg xmlns="http://www.w3.org/2000/svg" viewBox="0 0 155.55 171.57"><defs><style>.cls-1{fill:#fff;}</style></defs><g id="Capa_2" data-name="Capa 2"><g id="Capa_1-2" data-name="Capa 1"><path class="cls-1" d="M34.23,44.07C33.77,19.72,54.48-.77,78.79,0,104,.84,123.68,22.34,121,47.07c-2.57,24.1-15.92,41.45-36.13,53.92-4.24,2.61-8.89,2.55-13.38.46C52,92.37,34.64,65.59,34.23,44.07ZM68.66,11.31c-2.17.57-3.3.82-4.41,1.16C52.74,16,42.75,30.67,44,42.7c.18,1.64,2.14,4.08,3.63,4.38,3,.6,4.07-1.8,4.43-4.65,1.38-10.88,5.21-19.91,17.22-23,1.22-.32,2.64-3.07,2.49-4.53S69.57,12.28,68.66,11.31Z"/><path class="cls-1" d="M29,40.29c-.19,22.14,9.89,39.78,25.27,55.2-4.91,7.14-10.5,13.26-18.17,16.89-2.43,1.15-6.16,1.5-8.54.47-13.91-6-31.22-28.31-26.9-48.17C3.6,51.22,15.18,40.88,29,40.29ZM7,71.09l2.87,2.54c1-1.26,2.66-2.4,2.92-3.8C14,63,16.21,57.07,23.46,54.26c1.49-.57,2.36-2.75,3.52-4.19-1.89-.42-4-1.57-5.64-1.13C13.58,51,6.8,61.11,7,71.09Z"/><path class="cls-1" d="M126.6,40.09c20.22,2,32.87,20,27.85,39.61-3.5,13.62-11.7,24.09-23.44,31.8-4.52,3-9.26,3.25-13.46-.11-5.77-4.63-11.14-9.75-17.09-15C116.61,80.16,126.82,62.4,126.6,40.09Zm23,29.53c-2.12-4.92-3.18-10-6.11-13.46S136,50.77,131.88,48.5c-.6-.33-2.25,1.23-3.42,1.92.69,1.15,1.16,3.07,2.1,3.34,8.39,2.38,11.05,8.74,12.31,16.43.21,1.28,2.11,2.29,3.23,3.43C147.16,72.41,148.23,71.21,149.64,69.62Z"/><path class="cls-1" d="M85.65,115.47c-3.25.48-6.17,1-9.12,1.31s-5.43-.26-6-3.73c-.49-3.12,2.72-8.15,5.33-8.55C81.91,103.56,85.66,107.52,85.65,115.47Z"/><path class="cls-1" d="M78.87,171.57c-5.2-4.78-6.51-10.62-3-15.3,3.2-4.22,2.76-7.84.09-11.8s-3.06-7.75.43-11.34c3.75-3.85,4.29-8,1.8-12.73a6.72,6.72,0,0,1-.23-2.07c4.66,4.13,5.45,9.65,1.39,14.19-3.79,4.24-4,7.86-.84,12.39,2.18,3.13,3.16,6.93.42,10.21-3.66,4.39-3.47,8.67-.8,13.31A12.48,12.48,0,0,1,78.87,171.57Z"/><path class="cls-1" d="M117.69,121.28c1.79-2.18,3.32-4.72,5.53-6.32.78-.56,3.93.74,4.74,2,.94,1.46.5,3.82.66,5.78l-9.78.61C118.45,122.66,118.07,122,117.69,121.28Z"/><path class="cls-1" d="M36.85,123.35c-3.36-.27-6.74-.47-10-1-.19,0-.45-3.67.41-4.75,1.12-1.4,4.1-3.12,5-2.59,2.32,1.46,3.94,4,5.84,6.15Z"/><path class="cls-1" d="M123.91,162.41c2.6-4.68,1.26-8.67-1.08-12.91-.77-1.4.19-4.28,1.19-6,1.76-3,1.82-5.34-.58-8-2.88-3.23-2.7-6.75.24-10.16-1.48,4.29-.62,7.79,2.2,11.38,1.08,1.38.52,4.81-.4,6.79-1.46,3.13-2.09,5.62.19,8.69C128.37,155.79,126.67,159.21,123.91,162.41Z"/><path class="cls-1" d="M32.72,125.87c2.15,2.84,2.27,6.33-.54,9.55-2.34,2.68-2.57,5.06-.59,8s1.52,5.87-.05,9.28c-1.25,2.7-.51,6.31-.64,9.32-2.38-2.95-3.54-6.53-.76-10.25,2-2.74,1.81-5.18.09-7.74-2.28-3.37-1.62-6.14.56-9.52C32.33,132.11,32.17,128.63,32.72,125.87Z"/></g></g></svg>