<svg version="1.1" xmlns="http://www.w3.org/2000/svg" xmlns:xlink="http://www.w3.org/1999/xlink" width="448.77px" height="62.69px" viewBox="0,0,256,35.75"><g fill="#e6c27a" fill-rule="nonzero" stroke="none" stroke-width="1" stroke-linecap="butt" stroke-linejoin="miter" stroke-miterlimit="10" stroke-dasharray="" stroke-dashoffset="0" font-family="none" font-weight="none" font-size="none" text-anchor="none" style="mix-blend-mode: normal"><g transform="translate(0,-0.01476) scale(0.57045,0.57045)"><g id="Capa_2"><g id="Object"><path d="M448.77,4.85c0,0 -2.07,-11 -16.23,0.07c0,0 13.34,11.13 16.23,-0.07zM445.52,4.91c-0.00545,0.29432 -0.24563,0.53005 -0.54,0.53c-0.14057,0.00268 -0.27645,-0.05061 -0.37772,-0.14813c-0.10128,-0.09752 -0.15965,-0.23129 -0.16228,-0.37187c-0.00275,-0.14139 0.05221,-0.2778 0.15221,-0.37779c0.1,-0.1 0.2364,-0.15495 0.37779,-0.15221c0.29446,-0.00565 0.53915,0.22568 0.55,0.52zM436.05,4.91c0,0 0.91,-3.3 7.41,0c0,0 -6.06,3.38 -7.41,0.03z"></path><path d="M431.5,6.42c-0.80433,0.01688 -1.47281,-0.61595 -1.5,-1.42v0c0.00263,-0.38897 0.16036,-0.76081 0.43821,-1.03303c0.27785,-0.27222 0.65284,-0.42231 1.04179,-0.41697v0c0.39577,-0.01629 0.78118,0.12894 1.06779,0.40235c0.28661,0.27341 0.44983,0.65155 0.45221,1.04765v0c-0.00264,0.38987 -0.16006,0.76272 -0.43761,1.03653c-0.27756,0.27381 -0.65251,0.42613 -1.04239,0.42347z"></path><path d="M420,6.46c-0.80407,-0.00545 -1.45455,-0.65593 -1.46,-1.46v0c0.01624,-0.79625 0.66361,-1.43475 1.46,-1.44v0c0.3933,-0.01346 0.77559,0.13134 1.06127,0.40199c0.28569,0.27065 0.45093,0.64455 0.45873,1.03801v0c0.00034,0.39784 -0.16169,0.77859 -0.44861,1.05418c-0.28692,0.2756 -0.67388,0.42217 -1.07139,0.40582z"></path><path d="M425.76,8.84c0,0 5.1,-3.84 5.06,-3.84c-0.04,0 -5.09,-3.83 -5.09,-3.83c-0.6,1.23 -5.09,3.83 -5.08,3.83c0.01,0 4.51,2.58 5.11,3.84z"></path><path d="M292.7,5c-9.22,-7.18 -10.57,0 -10.57,0c1.87,7.2 10.57,0 10.57,0zM284.6,4.66c0.10061,-0.02199 0.20572,0.00425 0.28419,0.07095c0.07847,0.0667 0.1213,0.16621 0.11581,0.26905c0.00004,0.09193 -0.03715,0.17996 -0.10309,0.24402c-0.06594,0.06406 -0.15501,0.09868 -0.24691,0.09598c-0.18778,0 -0.34,-0.15222 -0.34,-0.34c0,-0.18778 0.15222,-0.34 0.34,-0.34zM285.6,4.99c4.23,-2.13 4.82,0 4.82,0c-0.89,2.16 -4.83,-0.05 -4.83,-0.05z"></path><path d="M293.38,5.93c0.52968,0.00095 0.96822,-0.41128 1,-0.94v0c0,-0.55228 -0.44772,-1 -1,-1v0c-0.52968,-0.00095 -0.96822,0.41128 -1,0.94v0c0.02667,0.53267 0.46667,0.95067 1,0.95z"></path><rect x="294.36" y="4.5" width="125.68" height="1.03"></rect><path d="M224.71,54.46l-0.3,-0.17c-0.12336,-0.06977 -0.24046,-0.15007 -0.35,-0.24c-0.16233,-0.10752 -0.31313,-0.23151 -0.45,-0.37c-0.37826,-0.38334 -0.68628,-0.83012 -0.91,-1.32c-0.29166,-0.66356 -0.47726,-1.36883 -0.55,-2.09c-0.14753,-1.98866 0.08321,-3.98727 0.68,-5.89c0.34496,-1.19848 0.78986,-2.3659 1.33,-3.49c0.29451,-0.60468 0.62856,-1.18928 1,-1.75l1.21,-1.83c1.75412,-2.72989 3.68491,-5.34213 5.78,-7.82c1.18715,-1.34818 2.47412,-2.60506 3.85,-3.76c0.71,-0.58 1.46,-1.13 2.24,-1.65c0.79867,-0.51144 1.63051,-0.96912 2.49,-1.37c0.87455,-0.41493 1.78495,-0.74963 2.72,-1c0.47,-0.14 1,-0.23 1.44,-0.33c0.44,-0.1 1,-0.14 1.49,-0.18c2.05153,-0.22335 4.12392,-0.16616 6.16,0.17c1.01277,0.16886 2.00265,0.45408 2.95,0.85c0.92825,0.37834 1.77905,0.92408 2.51,1.61c0.70406,0.62644 1.22578,1.43147 1.51,2.33c0.24656,0.87025 0.17203,1.80014 -0.21,2.62c-0.0558,0.14666 -0.12615,0.28736 -0.21,0.42c-0.09,0.13 -0.16,0.27 -0.26,0.4c-0.19867,0.25563 -0.41953,0.49322 -0.66,0.71c-0.49755,0.45819 -1.05619,0.8452 -1.66,1.15c-1.28458,0.59628 -2.66056,0.97155 -4.07,1.11c-1.43038,0.13002 -2.86962,0.13002 -4.3,0c-1.38868,-0.15077 -2.75677,-0.45256 -4.08,-0.9c-2.5958,-0.90474 -5.10849,-2.03228 -7.51,-3.37c-2.37,-1.28 -4.6,-2.63 -6.72,-4c-4.23,-2.66 -8,-5.23 -11.42,-7.46c-3.42,-2.23 -6.34,-4.15 -8.78,-5.65c-2.44,-1.5 -5.27,-3.6 -8.82,-5.64c-1.8914,-1.10411 -3.84089,-2.10556 -5.84,-3c-2.25389,-1.02091 -4.62514,-1.75983 -7.06,-2.2c-1.31976,-0.23307 -2.66309,-0.3036 -4,-0.21c-1.44175,0.10392 -2.85363,0.46281 -4.17,1.06c-0.34,0.15 -0.66,0.34 -1,0.52c-0.34,0.18 -0.63,0.4 -0.94,0.61c-0.31,0.21 -0.58,0.45 -0.87,0.71c-0.30642,0.27179 -0.58147,0.57703 -0.82,0.91c-0.51061,0.69223 -0.81875,1.51278 -0.89,2.37c-0.06335,0.83828 0.06666,1.67991 0.38,2.46c0.62151,1.47536 1.57245,2.7889 2.78,3.84c1.17881,1.08912 2.5306,1.97454 4,2.62c0.7312,0.34214 1.4826,0.63936 2.25,0.89c0.38,0.13 0.78,0.22 1.17,0.33l0.58,0.16l0.6,0.13l1.19,0.23l1.21,0.16l0.6,0.08l0.61,0.05l1.22,0.09c4.61041,0.12712 9.22094,-0.24843 13.75,-1.12c1.09,-0.19 2.16,-0.39 3.22,-0.6l0.8,-0.16l0.84,-0.2c0.54,-0.15 1.07,-0.31 1.58,-0.49c2.05,-0.71 3.94,-1.55 5.79,-2.38c3.67,-1.67 7.09,-3.35 10.32,-4.85c3.23,-1.5 6.26,-2.86 9.07,-4c2.52353,-1.022 5.11265,-1.87391 7.75,-2.55c1.98225,-0.52896 4.02874,-0.77804 6.08,-0.74c1.29944,0.02575 2.57691,0.33999 3.74,0.92c0.17229,0.09031 0.33924,0.19047 0.5,0.3c0.12154,0.07266 0.23843,0.15281 0.35,0.24l0.27,0.22l-0.26,-0.23c-0.10263,-0.09865 -0.21298,-0.18894 -0.33,-0.27c-0.15443,-0.12268 -0.31826,-0.23302 -0.49,-0.33c-1.1665,-0.63503 -2.46303,-0.99422 -3.79,-1.05c-2.10976,-0.15897 -4.23141,-0.01416 -6.3,0.43c-2.71608,0.55737 -5.3894,1.3059 -8,2.24c-2.89,1 -6,2.25 -9.29,3.65c-3.29,1.4 -6.75,2.99 -10.41,4.61c-1.84,0.77 -3.73,1.56 -5.68,2.19c-0.48,0.16 -1,0.3 -1.46,0.43c-0.24,0.06 -0.49,0.12 -0.73,0.16l-0.78,0.14c-1.05,0.2 -2.12,0.38 -3.19,0.55c-4.39126,0.78397 -8.8509,1.11903 -13.31,1l-1.14,-0.09h-0.57l-0.56,-0.07l-1.13,-0.15l-1.1,-0.21c-0.18,0 -0.36,-0.06 -0.54,-0.11l-0.54,-0.14c-0.35,-0.1 -0.71,-0.18 -1.06,-0.29c-0.68287,-0.2203 -1.35091,-0.48418 -2,-0.79c-1.28358,-0.55167 -2.46902,-1.30819 -3.51,-2.24c-0.99515,-0.84147 -1.79098,-1.89347 -2.33,-3.08c-0.22213,-0.52416 -0.32461,-1.09125 -0.3,-1.66c0.02982,-0.53728 0.21383,-1.05458 0.53,-1.49c0.15804,-0.23383 0.3426,-0.44859 0.55,-0.64c0.22,-0.21 0.48,-0.41 0.72,-0.61c0.24,-0.2 0.51,-0.37 0.77,-0.54c0.26,-0.17 0.54,-0.32 0.82,-0.45c2.26116,-1.01979 4.77651,-1.33682 7.22,-0.91c2.3323,0.35381 4.61474,0.98148 6.8,1.87c2.1,0.84 4,1.76 5.84,2.68c3.59,1.86 6.59,3.69 9,5.18c2.41,1.49 5.2,3.68 8.47,6c3.27,2.32 7,5.09 11.17,7.9c2.09,1.41 4.31,2.83 6.69,4.2c2.47091,1.45169 5.06818,2.67669 7.76,3.66c1.45464,0.52388 2.96447,0.87953 4.5,1.06c1.57309,0.15021 3.15691,0.15021 4.73,0c1.65835,-0.15478 3.27821,-0.59102 4.79,-1.29c0.78013,-0.39411 1.50336,-0.89196 2.15,-1.48c0.33192,-0.30615 0.63642,-0.64076 0.91,-1c0.14,-0.19 0.25,-0.39 0.38,-0.58c0.12301,-0.19272 0.22684,-0.39703 0.31,-0.61c0.58587,-1.25176 0.6926,-2.67485 0.3,-4c-0.38137,-1.25639 -1.10506,-2.38175 -2.09,-3.25c-0.91858,-0.83161 -1.97864,-1.49203 -3.13,-1.95c-1.09537,-0.44744 -2.24008,-0.76299 -3.41,-0.94c-2.22477,-0.34411 -4.48681,-0.3744 -6.72,-0.09c-0.53,0 -1.08,0.14 -1.63,0.23c-0.55,0.09 -1.07,0.23 -1.59,0.39c-1.03173,0.29898 -2.03551,0.68711 -3,1.16c-0.92558,0.45655 -1.8178,0.97785 -2.67,1.56c-0.81299,0.5666 -1.59417,1.17752 -2.34,1.83c-1.41058,1.24983 -2.71505,2.6145 -3.9,4.08c-2.04958,2.58448 -3.90784,5.31506 -5.56,8.17c-0.39,0.64 -0.77,1.26 -1.13,1.87c-0.37302,0.61509 -0.70701,1.25301 -1,1.91c-0.50038,1.18381 -0.8985,2.40828 -1.19,3.66c-0.51605,1.99049 -0.63834,4.06262 -0.36,6.1c0.11737,0.743 0.35374,1.46222 0.7,2.13c0.25056,0.48823 0.58964,0.92565 1,1.29c0.15324,0.12875 0.31349,0.24894 0.48,0.36c0.11821,0.07867 0.24185,0.14884 0.37,0.21z"></path><path d="M224.75,54.46l0.31,-0.15c0.12815,-0.06116 0.25179,-0.13133 0.37,-0.21c0.16651,-0.11106 0.32676,-0.23125 0.48,-0.36c0.40757,-0.36695 0.74623,-0.80383 1,-1.29c0.34626,-0.66778 0.58263,-1.387 0.7,-2.13c0.27834,-2.03738 0.15605,-4.10951 -0.36,-6.1c-0.29512,-1.25193 -0.69658,-2.47637 -1.2,-3.66c-0.28863,-0.65909 -0.62277,-1.2973 -1,-1.91l-1.05,-1.87c-1.65919,-2.85051 -3.51712,-5.5806 -5.56,-8.17c-1.17668,-1.45391 -2.47105,-2.80849 -3.87,-4.05c-0.74583,-0.65248 -1.52701,-1.2634 -2.34,-1.83c-0.8522,-0.58215 -1.74442,-1.10345 -2.67,-1.56c-0.96449,-0.47289 -1.96827,-0.86102 -3,-1.16c-0.52,-0.16 -1.06,-0.27 -1.59,-0.39c-0.53,-0.12 -1.1,-0.19 -1.64,-0.23c-2.22984,-0.28439 -4.48859,-0.25409 -6.71,0.09c-1.16992,0.17701 -2.31463,0.49256 -3.41,0.94c-1.15326,0.46016 -2.21624,1.12028 -3.14,1.95c-0.9752,0.87282 -1.69136,1.99722 -2.07,3.25c-0.39016,1.32454 -0.28713,2.74559 0.29,4c0.09064,0.21135 0.19763,0.4153 0.32,0.61c0.12,0.19 0.24,0.39 0.37,0.58c0.27643,0.35686 0.58071,0.69124 0.91,1c0.6383,0.57174 1.34744,1.05907 2.11,1.45c1.51139,0.70009 3.13144,1.13639 4.79,1.29c1.57309,0.15021 3.15691,0.15021 4.73,0c1.53534,-0.18159 3.04504,-0.53721 4.5,-1.06c2.69182,-0.98331 5.28909,-2.20831 7.76,-3.66c2.38,-1.37 4.6,-2.79 6.69,-4.2c4.18,-2.81 7.88,-5.53 11.17,-7.9c3.29,-2.37 6.12,-4.42 8.47,-6c2.35,-1.58 5.44,-3.32 9,-5.18c1.79,-0.92 3.74,-1.84 5.84,-2.68c2.18526,-0.88852 4.4677,-1.51619 6.8,-1.87c2.44349,-0.42682 4.95884,-0.10979 7.22,0.91c0.28,0.13 0.54,0.3 0.81,0.45c0.27,0.15 0.52,0.36 0.78,0.54c0.26,0.18 0.5,0.4 0.72,0.61c0.20465,0.19404 0.38894,0.40849 0.55,0.64c0.31177,0.43773 0.4953,0.95372 0.53,1.49c0.02461,0.56875 -0.07787,1.13584 -0.3,1.66c-0.53902,1.18653 -1.33485,2.23853 -2.33,3.08c-1.04257,0.92971 -2.22765,1.686 -3.51,2.24c-0.64981,0.30415 -1.31774,0.56799 -2,0.79c-0.35,0.11 -0.71,0.19 -1.07,0.29l-0.53,0.14c-0.18,0.05 -0.36,0.07 -0.55,0.11l-1.1,0.21l-1.12,0.15l-0.56,0.07h-0.57l-1.15,0.09c-4.45579,0.11904 -8.91211,-0.21602 -13.3,-1c-1.07,-0.17 -2.14,-0.35 -3.19,-0.55l-0.78,-0.14c-0.25,0 -0.49,-0.1 -0.73,-0.16c-0.49,-0.13 -1,-0.27 -1.47,-0.43c-1.94,-0.63 -3.84,-1.42 -5.67,-2.19c-3.63,-1.62 -7.11,-3.2 -10.43,-4.61c-3.32,-1.41 -6.4,-2.65 -9.29,-3.65c-2.6106,-0.9341 -5.28392,-1.68263 -8,-2.24c-2.03938,-0.43534 -4.13008,-0.5801 -6.21,-0.43c-1.32292,0.09866 -2.60569,0.49888 -3.75,1.17c-0.17174,0.09698 -0.33557,0.20732 -0.49,0.33c-0.11702,0.08106 -0.22737,0.17135 -0.33,0.27l-0.26,0.23l0.27,-0.22c0.11157,-0.08719 0.22846,-0.16734 0.35,-0.24c0.16076,-0.10953 0.32771,-0.20969 0.5,-0.3c1.16263,-0.58127 2.44039,-0.89559 3.74,-0.92c2.05126,-0.03804 4.09775,0.21104 6.08,0.74c2.63404,0.67623 5.21983,1.52814 7.74,2.55c2.82,1.12 5.85,2.47 9.07,4c3.22,1.53 6.66,3.18 10.33,4.85c1.85,0.83 3.74,1.67 5.79,2.38c0.51,0.18 1,0.34 1.58,0.49l0.83,0.2l0.81,0.16c1.06,0.21 2.13,0.41 3.22,0.6c4.52906,0.87157 9.13959,1.24712 13.75,1.12l1.22,-0.09l0.61,-0.05l0.6,-0.08l1.21,-0.16l1.19,-0.23l0.6,-0.13l0.58,-0.16c0.39,-0.11 0.78,-0.2 1.17,-0.33c0.7674,-0.25064 1.5188,-0.54786 2.25,-0.89c1.46808,-0.64789 2.81949,-1.53306 4,-2.62c1.20755,-1.0511 2.15849,-2.36464 2.78,-3.84c0.31334,-0.78009 0.44335,-1.62172 0.38,-2.46c-0.07125,-0.85722 -0.37939,-1.67777 -0.89,-2.37c-0.24157,-0.33051 -0.51634,-0.63544 -0.82,-0.91c-0.29,-0.26 -0.58,-0.47 -0.87,-0.71c-0.29,-0.24 -0.62,-0.42 -0.94,-0.61c-0.32,-0.19 -0.64,-0.37 -1,-0.52c-1.31508,-0.60408 -2.72701,-0.96976 -4.17,-1.08c-1.35682,-0.09742 -2.72047,-0.02689 -4.06,0.21c-2.43414,0.44311 -4.80503,1.18192 -7.06,2.2c-1.99489,0.89647 -3.94094,1.89787 -5.83,3c-3.55,2 -6.47,4 -8.82,5.64c-2.35,1.64 -5.4,3.41 -8.78,5.65c-3.38,2.24 -7.19,4.8 -11.43,7.46c-2.12,1.33 -4.35,2.68 -6.71,4c-2.40404,1.3396 -4.92022,2.4672 -7.52,3.37c-1.31955,0.44836 -2.68443,0.75017 -4.07,0.9c-1.43373,0.12997 -2.87627,0.12997 -4.31,0c-1.40457,-0.17591 -2.76997,-0.58485 -4.04,-1.21c-0.60089,-0.30968 -1.15891,-0.69627 -1.66,-1.15c-0.2373,-0.21692 -0.45482,-0.45452 -0.65,-0.71c-0.1,-0.13 -0.17,-0.27 -0.26,-0.4c-0.08385,-0.13264 -0.1542,-0.27334 -0.21,-0.42c-0.38203,-0.81986 -0.45656,-1.74975 -0.21,-2.62c0.28053,-0.90026 0.80285,-1.70622 1.51,-2.33c0.72458,-0.6745 1.56464,-1.21308 2.48,-1.59c0.96358,-0.39894 1.97037,-0.6842 3,-0.85c2.03608,-0.33616 4.10847,-0.39335 6.16,-0.17c0.52,0 1,0.11 1.49,0.18c0.49,0.07 1,0.19 1.43,0.33c0.93877,0.24883 1.85262,0.58358 2.73,1c0.8584,0.40304 1.6901,0.86064 2.49,1.37c0.78,0.52 1.53,1.07 2.24,1.65c1.36553,1.15609 2.64244,2.41295 3.82,3.76c2.09202,2.47788 4.01948,5.09014 5.77,7.82c0.42,0.62 0.82,1.23 1.21,1.83c0.37495,0.55855 0.70915,1.1434 1,1.75c0.53585,1.12594 0.98061,2.29301 1.33,3.49c0.59679,1.90273 0.82753,3.90134 0.68,5.89c-0.07274,0.72117 -0.25834,1.42644 -0.55,2.09c-0.22372,0.48988 -0.53174,0.93666 -0.91,1.32c-0.14108,0.1338 -0.29146,0.25744 -0.45,0.37c-0.10954,0.08993 -0.22664,0.17023 -0.35,0.24z"></path><path d="M225,54c-6.44,7.49 -0.23,8.74 -0.23,8.74c6.41,-1.47 0.23,-8.74 0.23,-8.74zM224.55,60.69c0.00253,-0.07876 0.03699,-0.15309 0.09547,-0.20591c0.05848,-0.05282 0.13593,-0.07956 0.21453,-0.07409c0.07868,-0.00005 0.154,0.03188 0.20868,0.08844c0.05468,0.05657 0.08403,0.13293 0.08132,0.21156c-0.01071,0.16176 -0.14799,0.28576 -0.31,0.28c-0.08432,-0.00744 -0.16194,-0.04904 -0.21482,-0.11514c-0.05288,-0.0661 -0.07643,-0.15095 -0.06518,-0.23486zM224.86,59.88c-1.78,-3.54 0.11,-4 0.11,-4c1.9,0.73 -0.1,3.95 -0.1,3.95z"></path><path d="M225.88,53.4c0.00267,-0.21483 -0.08012,-0.42192 -0.23015,-0.5757c-0.15003,-0.15378 -0.35502,-0.24166 -0.56985,-0.2443v0c-0.21726,-0.01366 -0.43071,0.0618 -0.59111,0.20899c-0.16039,0.14719 -0.25388,0.35338 -0.25889,0.57101v0c-0.00267,0.21483 0.08012,0.42192 0.23015,0.5757c0.15003,0.15378 0.35502,0.24166 0.56985,0.2443v0c0.44925,0.01697 0.82839,-0.33095 0.85,-0.78z"></path><path d="M16.23,4.92c-14.16,-11.03 -16.23,-0.07 -16.23,-0.07c2.88,11.2 16.23,0.07 16.23,0.07zM3.8,4.39c0.29271,0 0.53,0.23729 0.53,0.53c-0.00263,0.14057 -0.061,0.27434 -0.16228,0.37187c-0.10128,0.09752 -0.23715,0.15081 -0.37772,0.14813c-0.20486,0.02834 -0.4075,-0.06507 -0.519,-0.23925c-0.1115,-0.17418 -0.1115,-0.39731 0,-0.57149c0.1115,-0.17418 0.31414,-0.26759 0.519,-0.23925zM5.31,4.91c6.49,-3.27 7.41,0 7.41,0c-1.35,3.38 -7.41,0 -7.41,0z"></path><path d="M17.27,6.42c0.80433,0.01688 1.47281,-0.61595 1.5,-1.42v0c-0.00263,-0.38897 -0.16036,-0.76081 -0.43821,-1.03303c-0.27785,-0.27222 -0.65284,-0.42231 -1.04179,-0.41697v0c-0.39237,-0.01076 -0.77255,0.13692 -1.05476,0.40973c-0.28222,0.27281 -0.4427,0.64776 -0.44524,1.04027v0c0.00264,0.38987 0.16006,0.76272 0.43761,1.03653c0.27756,0.27381 0.65251,0.42613 1.04239,0.42347z"></path><path d="M28.73,6.46c0.39331,0.00804 0.77343,-0.14191 1.05534,-0.4163c0.2819,-0.27439 0.44207,-0.65032 0.44466,-1.0437v0c-0.00263,-0.39162 -0.16142,-0.76601 -0.44114,-1.0401c-0.27973,-0.27409 -0.65726,-0.42524 -1.04886,-0.4199v0c-0.81522,-0.00564 -1.48361,0.64493 -1.5,1.46v0c0.00527,0.38988 0.16522,0.76169 0.44466,1.03363c0.27944,0.27194 0.65547,0.42171 1.04534,0.41637z"></path><path d="M23,8.84c0,0 -5.09,-3.84 -5,-3.84c0.09,0 5,-3.86 5,-3.86c0.63,1.26 5.13,3.86 5.12,3.86c-0.01,0 -4.51,2.58 -5.12,3.84z"></path><path d="M166.64,4.91c0,0 -1.35,-7.14 -10.57,0c0,0.09 8.69,7.29 10.57,0zM164.52,4.91c0.00819,0.14715 -0.07414,0.28443 -0.20781,0.34651c-0.13367,0.06208 -0.29167,0.03641 -0.39882,-0.06478c-0.10715,-0.10119 -0.14179,-0.25747 -0.08745,-0.39447c0.05434,-0.13699 0.1867,-0.22703 0.33408,-0.22726c0.11023,-0.00612 0.21689,0.04013 0.28776,0.12478c0.07087,0.08465 0.09765,0.19778 0.07224,0.30522zM158.35,4.91c0,0 0.6,-2.15 4.83,0c0,0.03 -3.95,2.24 -4.83,0.09z"></path><path d="M155.39,5.93c-0.52968,0.00095 -0.96822,-0.41128 -1,-0.94v0c0,-0.55228 0.44772,-1 1,-1v0c0.52968,-0.00095 0.96822,0.41128 1,0.94v0c-0.02667,0.53267 -0.46667,0.95067 -1,0.95z"></path><rect x="28.74" y="4.5" width="125.68" height="1.03"></rect></g></g></g></g></svg>