<svg xmlns="http://www.w3.org/2000/svg" viewBox="0 0 448.77 62.69"><defs><style>.cls-1{fill:#1a2b3c;}</style></defs><g id="Capa_2" data-name="Capa 2"><g id="Object"><path class="cls-1" d="M448.77,4.85s-2.07-11-16.23.07C432.54,4.92,445.88,16.05,448.77,4.85Zm-3.25.06a.54.54,0,0,1-.54.53.53.53,0,0,1-.54-.52.52.52,0,0,1,.53-.53A.54.54,0,0,1,445.52,4.91Zm-9.47,0s.91-3.3,7.41,0C443.46,4.91,437.4,8.29,436.05,4.94Z"/><path class="cls-1" d="M431.5,6.42A1.47,1.47,0,0,1,430,5h0a1.46,1.46,0,0,1,1.48-1.45h0A1.46,1.46,0,0,1,433,5h0a1.47,1.47,0,0,1-1.48,1.46Z"/><path class="cls-1" d="M420,6.46A1.47,1.47,0,0,1,418.54,5h0A1.47,1.47,0,0,1,420,3.56h0A1.47,1.47,0,0,1,421.52,5h0A1.46,1.46,0,0,1,420,6.46Z"/><path class="cls-1" d="M425.76,8.84S430.86,5,430.82,5s-5.09-3.83-5.09-3.83C425.13,2.4,420.64,5,420.65,5S425.16,7.58,425.76,8.84Z"/><path class="cls-1" d="M292.7,5c-9.22-7.18-10.57,0-10.57,0C284,12.2,292.7,5,292.7,5Zm-8.1-.34A.33.33,0,0,1,285,5a.34.34,0,0,1-.35.34.34.34,0,1,1,0-.68Zm1,.33c4.23-2.13,4.82,0,4.82,0C289.53,7.15,285.59,4.94,285.59,4.94Z"/><path class="cls-1" d="M293.38,5.93a1,1,0,0,0,1-.94h0a1,1,0,0,0-1-1h0a1,1,0,0,0-1,.94h0a1,1,0,0,0,1,.95Z"/><rect class="cls-1" x="294.36" y="4.5" width="125.68" height="1.03"/><path class="cls-1" d="M224.71,54.46l-.3-.17a2.46,2.46,0,0,1-.35-.24,2.83,2.83,0,0,1-.45-.37,4.6,4.6,0,0,1-.91-1.32,6.92,6.92,0,0,1-.55-2.09,15.78,15.78,0,0,1,.68-5.89,22.3,22.3,0,0,1,1.33-3.49,15.3,15.3,0,0,1,1-1.75l1.21-1.83a74.42,74.42,0,0,1,5.78-7.82A35.79,35.79,0,0,1,236,25.73c.71-.58,1.46-1.13,2.24-1.65a21.36,21.36,0,0,1,2.49-1.37,16,16,0,0,1,2.72-1c.47-.14,1-.23,1.44-.33s1-.14,1.49-.18a22.72,22.72,0,0,1,6.16.17,13.34,13.34,0,0,1,2.95.85A8.18,8.18,0,0,1,258,23.83a5.23,5.23,0,0,1,1.51,2.33,3.77,3.77,0,0,1-.21,2.62,2.35,2.35,0,0,1-.21.42c-.09.13-.16.27-.26.4a5.5,5.5,0,0,1-.66.71,7.32,7.32,0,0,1-1.66,1.15,12.59,12.59,0,0,1-4.07,1.11,23.75,23.75,0,0,1-4.3,0,19.21,19.21,0,0,1-4.08-.9,47.68,47.68,0,0,1-7.51-3.37c-2.37-1.28-4.6-2.63-6.72-4-4.23-2.66-8-5.23-11.42-7.46s-6.34-4.15-8.78-5.65-5.27-3.6-8.82-5.64a61,61,0,0,0-5.84-3,30.08,30.08,0,0,0-7.06-2.2,16.41,16.41,0,0,0-4-.21,12.22,12.22,0,0,0-4.17,1.06c-.34.15-.66.34-1,.52s-.63.4-.94.61-.58.45-.87.71a5.49,5.49,0,0,0-.82.91,4.64,4.64,0,0,0-.89,2.37,5.49,5.49,0,0,0,.38,2.46,10.49,10.49,0,0,0,2.78,3.84,14.47,14.47,0,0,0,4,2.62,19.85,19.85,0,0,0,2.25.89c.38.13.78.22,1.17.33l.58.16.6.13,1.19.23,1.21.16.6.08.61.05,1.22.09a63.5,63.5,0,0,0,13.75-1.12c1.09-.19,2.16-.39,3.22-.6l.8-.16.84-.2c.54-.15,1.07-.31,1.58-.49,2.05-.71,3.94-1.55,5.79-2.38,3.67-1.67,7.09-3.35,10.32-4.85s6.26-2.86,9.07-4a61,61,0,0,1,7.75-2.55,22,22,0,0,1,6.08-.74,8.77,8.77,0,0,1,3.74.92,5.06,5.06,0,0,1,.5.3,3.41,3.41,0,0,1,.35.24l.27.22-.26-.23a2.67,2.67,0,0,0-.33-.27,3.76,3.76,0,0,0-.49-.33A8.69,8.69,0,0,0,251,.07,22.1,22.1,0,0,0,244.7.5a58.88,58.88,0,0,0-8,2.24c-2.89,1-6,2.25-9.29,3.65S220.66,9.38,217,11c-1.84.77-3.73,1.56-5.68,2.19-.48.16-1,.3-1.46.43-.24.06-.49.12-.73.16l-.78.14c-1.05.2-2.12.38-3.19.55a65.75,65.75,0,0,1-13.31,1l-1.14-.09-.57,0-.56-.07-1.13-.15-1.1-.21c-.18,0-.36-.06-.54-.11l-.54-.14c-.35-.1-.71-.18-1.06-.29a16.78,16.78,0,0,1-2-.79,12.9,12.9,0,0,1-3.51-2.24,8.8,8.8,0,0,1-2.33-3.08,3.83,3.83,0,0,1-.3-1.66,2.8,2.8,0,0,1,.53-1.49,3.66,3.66,0,0,1,.55-.64c.22-.21.48-.41.72-.61s.51-.37.77-.54.54-.32.82-.45a12.38,12.38,0,0,1,7.22-.91,30,30,0,0,1,6.8,1.87c2.1.84,4,1.76,5.84,2.68,3.59,1.86,6.59,3.69,9,5.18s5.2,3.68,8.47,6,7,5.09,11.17,7.9c2.09,1.41,4.31,2.83,6.69,4.2a47.48,47.48,0,0,0,7.76,3.66,20.26,20.26,0,0,0,4.5,1.06,24.88,24.88,0,0,0,4.73,0,14.66,14.66,0,0,0,4.79-1.29,9.69,9.69,0,0,0,2.15-1.48,7.74,7.74,0,0,0,.91-1c.14-.19.25-.39.38-.58a3.5,3.5,0,0,0,.31-.61,5.65,5.65,0,0,0,.3-4,7.07,7.07,0,0,0-2.09-3.25,10.38,10.38,0,0,0-3.13-1.95,14.92,14.92,0,0,0-3.41-.94,24.07,24.07,0,0,0-6.72-.09c-.53,0-1.08.14-1.63.23s-1.07.23-1.59.39a18.53,18.53,0,0,0-3,1.16,21.94,21.94,0,0,0-2.67,1.56,27,27,0,0,0-2.34,1.83A34.08,34.08,0,0,0,231,28.61a67.81,67.81,0,0,0-5.56,8.17c-.39.64-.77,1.26-1.13,1.87a17.17,17.17,0,0,0-1,1.91,22.52,22.52,0,0,0-1.19,3.66,15.79,15.79,0,0,0-.36,6.1,7,7,0,0,0,.7,2.13,4.43,4.43,0,0,0,1,1.29,5.43,5.43,0,0,0,.48.36,3,3,0,0,0,.37.21Z"/><path class="cls-1" d="M224.75,54.46l.31-.15a3,3,0,0,0,.37-.21,5.43,5.43,0,0,0,.48-.36,4.6,4.6,0,0,0,1-1.29,7,7,0,0,0,.7-2.13,15.79,15.79,0,0,0-.36-6.1,22.6,22.6,0,0,0-1.2-3.66,15.51,15.51,0,0,0-1-1.91L224,36.78a70.23,70.23,0,0,0-5.56-8.17,34.08,34.08,0,0,0-3.87-4.05,27,27,0,0,0-2.34-1.83,21.94,21.94,0,0,0-2.67-1.56,18.53,18.53,0,0,0-3-1.16c-.52-.16-1.06-.27-1.59-.39s-1.1-.19-1.64-.23a24,24,0,0,0-6.71.09,14.92,14.92,0,0,0-3.41.94,10.55,10.55,0,0,0-3.14,1.95A7.13,7.13,0,0,0,188,25.62a5.71,5.71,0,0,0,.29,4,4.42,4.42,0,0,0,.32.61c.12.19.24.39.37.58a8.54,8.54,0,0,0,.91,1A10,10,0,0,0,192,33.26a14.6,14.6,0,0,0,4.79,1.29,24.88,24.88,0,0,0,4.73,0,20.39,20.39,0,0,0,4.5-1.06,47.48,47.48,0,0,0,7.76-3.66c2.38-1.37,4.6-2.79,6.69-4.2,4.18-2.81,7.88-5.53,11.17-7.9s6.12-4.42,8.47-6,5.44-3.32,9-5.18c1.79-.92,3.74-1.84,5.84-2.68a30,30,0,0,1,6.8-1.87,12.38,12.38,0,0,1,7.22.91c.28.13.54.3.81.45s.52.36.78.54.5.4.72.61a4.14,4.14,0,0,1,.55.64,2.89,2.89,0,0,1,.53,1.49,3.83,3.83,0,0,1-.3,1.66,8.8,8.8,0,0,1-2.33,3.08,13.05,13.05,0,0,1-3.51,2.24,17.47,17.47,0,0,1-2,.79c-.35.11-.71.19-1.07.29l-.53.14c-.18.05-.36.07-.55.11l-1.1.21-1.12.15-.56.07-.57,0-1.15.09a65.65,65.65,0,0,1-13.3-1c-1.07-.17-2.14-.35-3.19-.55l-.78-.14c-.25,0-.49-.1-.73-.16-.49-.13-1-.27-1.47-.43-1.94-.63-3.84-1.42-5.67-2.19C228.8,9.38,225.32,7.8,222,6.39s-6.4-2.65-9.29-3.65a58.88,58.88,0,0,0-8-2.24A22.12,22.12,0,0,0,198.5.07a8.69,8.69,0,0,0-3.75,1.17,3.76,3.76,0,0,0-.49.33,2.67,2.67,0,0,0-.33.27l-.26.23.27-.22a3.41,3.41,0,0,1,.35-.24,5.06,5.06,0,0,1,.5-.3,8.73,8.73,0,0,1,3.74-.92,22,22,0,0,1,6.08.74,60.9,60.9,0,0,1,7.74,2.55c2.82,1.12,5.85,2.47,9.07,4s6.66,3.18,10.33,4.85c1.85.83,3.74,1.67,5.79,2.38.51.18,1,.34,1.58.49l.83.2.81.16c1.06.21,2.13.41,3.22.6a63.5,63.5,0,0,0,13.75,1.12l1.22-.09.61-.05.6-.08,1.21-.16,1.19-.23.6-.13.58-.16c.39-.11.78-.2,1.17-.33a19.85,19.85,0,0,0,2.25-.89,14.62,14.62,0,0,0,4-2.62,10.49,10.49,0,0,0,2.78-3.84,5.49,5.49,0,0,0,.38-2.46,4.64,4.64,0,0,0-.89-2.37,6,6,0,0,0-.82-.91c-.29-.26-.58-.47-.87-.71s-.62-.42-.94-.61-.64-.37-1-.52A12.22,12.22,0,0,0,265.63.24a16.52,16.52,0,0,0-4.06.21,30.38,30.38,0,0,0-7.06,2.2,62,62,0,0,0-5.83,3c-3.55,2-6.47,4-8.82,5.64s-5.4,3.41-8.78,5.65-7.19,4.8-11.43,7.46c-2.12,1.33-4.35,2.68-6.71,4a47.38,47.38,0,0,1-7.52,3.37,19,19,0,0,1-4.07.9,23.87,23.87,0,0,1-4.31,0A12.73,12.73,0,0,1,193,31.46a7.79,7.79,0,0,1-1.66-1.15,5.42,5.42,0,0,1-.65-.71c-.1-.13-.17-.27-.26-.4a2.35,2.35,0,0,1-.21-.42,3.77,3.77,0,0,1-.21-2.62,5.15,5.15,0,0,1,1.51-2.33A8.25,8.25,0,0,1,194,22.24a13.42,13.42,0,0,1,3-.85,22.72,22.72,0,0,1,6.16-.17c.52,0,1,.11,1.49.18s1,.19,1.43.33a15.82,15.82,0,0,1,2.73,1,22.21,22.21,0,0,1,2.49,1.37c.78.52,1.53,1.07,2.24,1.65a35.79,35.79,0,0,1,3.82,3.76,74.26,74.26,0,0,1,5.77,7.82c.42.62.82,1.23,1.21,1.83a14,14,0,0,1,1,1.75,23.34,23.34,0,0,1,1.33,3.49,15.78,15.78,0,0,1,.68,5.89,6.92,6.92,0,0,1-.55,2.09,4.6,4.6,0,0,1-.91,1.32,4.12,4.12,0,0,1-.45.37,2.46,2.46,0,0,1-.35.24Z"/><path class="cls-1" d="M225,54c-6.44,7.49-.23,8.74-.23,8.74C231.18,61.27,225,54,225,54Zm-.45,6.69a.29.29,0,0,1,.31-.28.29.29,0,0,1,.29.3.3.3,0,0,1-.31.28A.31.31,0,0,1,224.56,60.64Zm.31-.81c-1.78-3.54.11-4,.11-4C226.87,56.61,224.87,59.83,224.87,59.83Z"/><path class="cls-1" d="M225.88,53.4a.81.81,0,0,0-.8-.82h0a.8.8,0,0,0-.85.78h0a.81.81,0,0,0,.8.82h0a.82.82,0,0,0,.85-.78Z"/><path class="cls-1" d="M16.23,4.92C2.07-6.11,0,4.85,0,4.85,2.88,16.05,16.23,4.92,16.23,4.92ZM3.8,4.39a.53.53,0,0,1,.53.53.53.53,0,0,1-.54.52.53.53,0,1,1,0-1.05Zm1.51.52c6.49-3.27,7.41,0,7.41,0C11.37,8.29,5.31,4.91,5.31,4.91Z"/><path class="cls-1" d="M17.27,6.42A1.47,1.47,0,0,0,18.77,5h0a1.46,1.46,0,0,0-1.48-1.45h0A1.46,1.46,0,0,0,15.79,5h0a1.47,1.47,0,0,0,1.48,1.46Z"/><path class="cls-1" d="M28.73,6.46A1.47,1.47,0,0,0,30.23,5h0a1.47,1.47,0,0,0-1.49-1.46h0A1.49,1.49,0,0,0,27.24,5h0a1.47,1.47,0,0,0,1.49,1.45Z"/><path class="cls-1" d="M23,8.84S17.91,5,18,5,23,1.14,23,1.14C23.63,2.4,28.13,5,28.12,5S23.61,7.58,23,8.84Z"/><path class="cls-1" d="M166.64,4.91s-1.35-7.14-10.57,0C156.07,5,164.76,12.2,166.64,4.91Zm-2.12,0a.36.36,0,1,1-.36-.34A.35.35,0,0,1,164.52,5Zm-6.17,0s.6-2.15,4.83,0C163.18,4.94,159.23,7.15,158.35,5Z"/><path class="cls-1" d="M155.39,5.93a1,1,0,0,1-1-.94h0a1,1,0,0,1,1-1h0a1,1,0,0,1,1,.94h0a1,1,0,0,1-1,.95Z"/><rect class="cls-1" x="28.74" y="4.5" width="125.68" height="1.03"/></g></g></svg>