<svg xmlns="http://www.w3.org/2000/svg" viewBox="0 0 410.55 469.22"><defs><style>.cls-1{fill:#fff;}</style></defs><g id="Capa_2" data-name="Capa 2"><g id="Capa_2-2" data-name="Capa 2"><path class="cls-1" d="M205.28,41.22c3.31,0,9.62-3.74,9.62-14.81S205.28,0,205.28,0s-9.63,15.35-9.63,26.41S202,41.22,205.28,41.22Z"/><path class="cls-1" d="M250.3,73.39c3.31,0,9.63-3.74,9.63-14.8s-9.63-26.42-9.63-26.42-9.63,15.35-9.63,26.42S247,73.39,250.3,73.39Z"/><path class="cls-1" d="M160.26,73.39c3.3,0,9.62-3.74,9.62-14.8s-9.62-26.42-9.62-26.42-9.63,15.35-9.63,26.42S157,73.39,160.26,73.39Z"/><path class="cls-1" d="M9.19,362a48.62,48.62,0,0,0,23.31,9.27c17.19,1.73,35.64-7.12,54.8-26.28a11,11,0,0,1,7.77-3.22h.14a11,11,0,0,1,7.83,3.41c.26.27,28.38,29.14,57,26.62,13.57-1.2,25.7-9.65,36.06-25.13a11.17,11.17,0,0,1,1.42-1.73,11,11,0,0,1,2.68-1.94l.26-.12c.23-.11.47-.23.7-.32l.53-.19c.16-.05.31-.11.47-.15s.42-.11.63-.16.26-.07.4-.09l.62-.1.44-.05c.18,0,.37,0,.55,0l.53,0,.45,0,.62,0,.36.05.7.11.31.08.72.18.36.13c.21.08.42.14.62.23s.43.19.64.3l.32.15a10.89,10.89,0,0,1,2.64,2,7.16,7.16,0,0,1,.69.77l0,0c.25.31.47.62.68.94.56.82,15.27,22.17,38.6,24.51,17.2,1.73,35.64-7.12,54.8-26.28a11,11,0,0,1,15.74.19c.27.27,28.38,29.14,57,26.62a39.88,39.88,0,0,0,20.7-8.3v-1.71a35.5,35.5,0,0,0,9.19-23.88V316.41a35.61,35.61,0,0,0-35.61-35.61H35.62A35.61,35.61,0,0,0,0,316.41v21.45a35.5,35.5,0,0,0,9.19,23.88Z"/><path class="cls-1" d="M382.48,393.67c-1.8.16-3.58.23-5.35.23-26.28,0-49.6-16.26-61.37-26.17-21.64,19.08-43.51,27.6-65.12,25.35-20.58-2.15-35.87-13.73-45-22.86-12.55,14.15-27.23,22-43.8,23.45-1.79.16-3.58.23-5.35.23-26.27,0-49.59-16.26-61.36-26.17C73.52,386.81,51.64,395.34,30,393.08a66.62,66.62,0,0,1-20.85-5.77v81.91H401.36V388.9A59.75,59.75,0,0,1,382.48,393.67Z"/><path class="cls-1" d="M81.59,173.37c12.31,1.45,25.51-6,39.23-22a7.33,7.33,0,0,1,5.57-2.7h.09a7.39,7.39,0,0,1,5.6,2.85c.2.24,20.33,24.42,40.83,22.31,9.71-1,18.39-8.09,25.81-21.06a9.84,9.84,0,0,1,1-1.44,7.75,7.75,0,0,1,1.92-1.63l.18-.1.51-.27.38-.16.33-.13.45-.13.28-.08.45-.08.31,0,.4,0h.38l.32,0a3.4,3.4,0,0,1,.45,0l.25,0,.5.09.23.07.51.15.26.11.45.19.45.25.23.13a7.93,7.93,0,0,1,1.89,1.65,7.84,7.84,0,0,1,.5.64v0c.18.26.34.52.49.79.4.68,10.93,18.57,27.64,20.53,12.31,1.45,25.51-6,39.23-22a7.25,7.25,0,0,1,5.66-2.7,7.39,7.39,0,0,1,5.6,2.85c.2.24,20.32,24.42,40.83,22.31,9.59-1,18.18-7.93,25.54-20.59a35.31,35.31,0,0,0,.18-3.58V141a35.61,35.61,0,0,0-35.61-35.62H259.32V78h-18v27.4h-27V45.82h-18v59.57h-27V78H151.23v27.4H89.62A35.62,35.62,0,0,0,54,141v8.64c0,1.21.07,2.4.18,3.57C55.85,155.94,66.05,171.55,81.59,173.37Z"/><path class="cls-1" d="M332.13,192.19a37.92,37.92,0,0,1-3.83.19c-18.81,0-35.5-13.63-43.93-21.93-15.49,16-31.15,23.13-46.62,21.24-14.73-1.8-25.68-11.5-32.19-19.16-9,11.86-19.49,18.46-31.35,19.66a37.92,37.92,0,0,1-3.83.19c-18.81,0-35.5-13.63-43.93-21.93-15.49,16-31.16,23.13-46.62,21.24a44,44,0,0,1-19.06-7.31v83.4h289v-82A38.79,38.79,0,0,1,332.13,192.19Z"/></g></g></svg>