<svg xmlns="http://www.w3.org/2000/svg" viewBox="0 0 436.86 479.31"><defs><style>.cls-1{fill:none;stroke:#fff;stroke-linecap:round;stroke-linejoin:round;stroke-width:15px;}.cls-2{fill:#fff;}</style></defs><g id="Capa_2" data-name="Capa 2"><g id="Capa_3" data-name="Capa 3"><path class="cls-1" d="M203.44,92.47l54.43,160.07c7.22,21.23,34.09,31.3,60,22.49s41.09-33.18,33.87-54.41L297.32,60.55Z"/><line class="cls-1" x1="234.34" y1="110.89" x2="248.15" y2="151.5"/><path class="cls-1" d="M240,200.1s48.09-12.58,52.36,0S341,189,341,189"/><circle class="cls-2" cx="296.59" cy="221.09" r="6.16"/><circle class="cls-2" cx="283.74" cy="233.27" r="6.16"/><circle class="cls-2" cx="300" cy="240.85" r="4.57"/><circle class="cls-2" cx="297.04" cy="258.21" r="4.57"/><line class="cls-1" x1="364.73" y1="412.81" x2="317.88" y2="275.03"/><ellipse class="cls-1" cx="368.1" cy="422.72" rx="64.6" ry="10.47" transform="translate(-116.49 141.01) rotate(-18.78)"/><path class="cls-1" d="M110.73,86.35l-41,164c-5.43,21.76,11.7,44.78,38.26,51.41s52.51-5.62,57.94-27.38l41-164Z"/><line class="cls-1" x1="126.73" y1="118.57" x2="116.33" y2="160.18"/><path class="cls-1" d="M83.19,196.64s47.23,15.48,44,28.36,46.87,17,46.87,17"/><circle class="cls-2" cx="119.35" cy="244.92" r="6.16"/><circle class="cls-2" cx="101.95" cy="248.2" r="6.16"/><circle class="cls-2" cx="111.51" cy="263.38" r="4.57"/><circle class="cls-2" cx="99.62" cy="276.37" r="4.57"/><line class="cls-1" x1="72.76" y1="442.99" x2="108.02" y2="301.79"/><ellipse class="cls-1" cx="70.22" cy="453.14" rx="10.47" ry="64.6" transform="translate(-386.43 411.47) rotate(-75.98)"/><line class="cls-1" x1="194.02" y1="7.5" x2="194.02" y2="66.59"/><line class="cls-1" x1="215.62" y1="51.79" x2="245.11" y2="22.3"/><line class="cls-1" x1="172.43" y1="51.79" x2="142.94" y2="22.3"/></g></g></svg>