<svg xmlns="http://www.w3.org/2000/svg" viewBox="0 0 271.56 255.93"><defs><style>.cls-1{fill:#fff;}</style></defs><g id="Capa_2" data-name="Capa 2"><g id="Capa_1-2" data-name="Capa 1"><path class="cls-1" d="M191.6,221.5H157c0-10.19.07-20.3,0-30.41a33.2,33.2,0,0,0-.94-8.87c-2.92-10.12-12.57-16.18-23.09-14.85a20.78,20.78,0,0,0-18.22,20c-.27,9.49-.07,19-.08,28.48v5.64H79.9c-.08-1.72-.22-3.33-.22-4.94,0-33.31-.05-66.62.08-99.93a9.56,9.56,0,0,1,2.13-6.16c17.42-17.68,35-35.18,52.57-52.71a21.23,21.23,0,0,1,2.09-1.41c2.09,2.36,4.16,4.95,6.48,7.28,15.28,15.35,30.66,30.59,45.84,46a10.21,10.21,0,0,1,2.91,6.33c.18,33.81.13,67.62.12,101.43C191.9,218.69,191.72,220,191.6,221.5Zm-25.82-95.77c0-7.25.27-14.21-.09-21.14-.24-4.46-4.61-7.86-8.94-7.85-4.14,0-8.55,3.18-8.82,7.38-.44,7.09-.12,14.22-.12,21.61Zm-42-.21c0-7.21.15-13.83-.06-20.43-.13-4.41-4-8.11-8.32-8.47-4-.32-9,2.68-9.33,6.67-.54,7.33-.15,14.73-.15,22.23Z"/><path class="cls-1" d="M136.46,48.66,63.24,122.05l-6.45-7.41c12-12,24.15-24,36.27-36.12,11.68-11.64,23.41-23.24,34.9-35.06a11.87,11.87,0,0,0,2.93-6.83c.42-5.42.13-10.89.13-16.86H116.9V10.51h13.91V0h9.45c.17,3.39.33,6.63.51,10.32h13.88v9.26h-14c0,7.11-.16,13.69.14,20.24.06,1.33,1.76,2.69,2.91,3.84q33.69,33.77,67.46,67.47c1.18,1.17,2.53,2.17,4,3.41l-6.91,6.07Z"/><path class="cls-1" d="M74.47,150.25v71.1H33.94c0-15.86,0-31.63.07-47.39a3.7,3.7,0,0,1,1.62-2.69C48.28,164.33,61,157.51,74.47,150.25Z"/><path class="cls-1" d="M197,221.49V150.35c4.72,2.49,9.07,4.76,13.41,7.08,8.06,4.31,16.15,8.59,24.14,13,1.26.7,2.93,2.23,2.95,3.39.19,15.79.13,31.57.13,47.62Z"/><path class="cls-1" d="M271.56,249.37v6.56H0v-6.56Z"/><path class="cls-1" d="M13.26,244.31v-6.53H258.18v6.53Z"/><path class="cls-1" d="M245.07,226.43v6.7H26.59v-6.7Z"/><path class="cls-1" d="M74.08,133.85c1.4,9.93,1.41,10-6.22,14.15-13.51,7.45-27,14.86-41.13,22.59-1.42-2.48-2.86-5-4.67-8.13Z"/><path class="cls-1" d="M196.9,133.52l52.53,28.9-4.5,8.21c-15.67-8.6-31.08-17-46.38-25.59-.94-.52-1.44-2.36-1.58-3.65C196.72,139.11,196.9,136.78,196.9,133.52Z"/></g></g></svg>