<svg xmlns="http://www.w3.org/2000/svg" viewBox="0 0 298.14 427.92"><defs><style>.cls-1{fill:#fff;}</style></defs><g id="Capa_2" data-name="Capa 2"><g id="Capa_1-2" data-name="Capa 1"><path class="cls-1" d="M216.81,229.57c2.5,9.73,4.65,19.1,7.32,28.32,13.13,45.19,34,86.7,60.19,125.64,4,5.94,7.88,12,11.54,18.13a15.25,15.25,0,0,1-25.68,16.44c-26.49-39.7-51.33-80.3-67-125.76-4.11-11.95-7.86-24-11.95-36.57-2.71.73-5.69,1.16-8.28,2.41-1.12.53-2.06,2.78-2,4.2.42,9.3,1.14,18.58,1.77,27.86l-1.31,1.19c-1.59-2-3-4.17-4.81-6-8-8.3-16.05-16.46-24-24.8-1.28-1.34-2.67-3.25-2.77-5-1.37-26-3.12-51.91-3.54-77.88-.24-15.1,1.58-30.26,2.81-45.36.26-3.18-.33-5.13-2.74-7.26C118.06,99.93,95.83,70,78.17,36.52c-1.67-3.15-2.16-5.78-.49-9.25C81.42,19.5,78,13.1,72.39,7.06A14.18,14.18,0,0,1,85.21,0c6.42.05,10.94,3.3,13.87,9,4.94,9.62,9.6,19.42,15.1,28.72a278.65,278.65,0,0,0,53.54,65.56c8.87,8,18.6,13.88,30.23,16.65a152.15,152.15,0,0,1,17.81,4.9c3.57,1.33,7.45,3.43,9.74,6.32,13.42,17,26.47,34.3,39.53,51.57,7.58,10,4.61,21.06-7.06,25.37q-31.4,11.6-63,22.6c-9.87,3.46-17.08.34-20.09-8s.76-16,10.22-19.67c14.42-5.57,28.89-11,44-16.76l-14.31-18.8-1.37.15c0,4.37-.34,8.78.1,13.11.42,4.17-1.38,5.8-5,7.08-9,3.12-17.8,6.58-26.62,10.08C170.56,202.34,165.4,213,169,224.08s13.33,16.26,25.51,12.94C202,235,209.24,232.13,216.81,229.57Z"/><path class="cls-1" d="M14.42,343.94a315.55,315.55,0,0,0,21.83-73.69c1.18-7.22,2-14.5,2.79-21.78.3-2.86,1.33-4.33,4.24-5.16,21.43-6.17,42.79-12.58,64.23-18.71a6.07,6.07,0,0,1,5,1.32q37.55,39.44,74.83,79.12a11,11,0,0,1,.88,1.18c-6.75,12.32-18.75,31.26-57.36,47.51,6.85,13,13.57,25.88,20.51,38.67,2.05,3.79,4.71,7.25,7.11,10.85,5,7.54,3.61,16.78-3.34,21.74s-16.19,3.54-21.58-3.93c-12.63-17.51-22.48-36.56-30.45-56.58-1.29-3.22-2.69-4.44-6.16-3.72s-7.23.88-11.6,1.37c.59,6.35,1.06,12.57,1.77,18.77,1.08,9.43,2.34,18.83,3.51,28.25s-4,17.11-12.59,18.53c-8.74,1.44-16.37-4.33-17.68-14.14-2.09-15.67-4-31.38-5.36-47.13-.42-4.91-2.1-6.68-6.74-7.64A91,91,0,0,1,14.42,343.94Z"/><path class="cls-1" d="M96.34,195.75l-2.29-11.92c-.91,8.59-8,8.82-13.74,10.59-13.21,4-26.45,8-39.69,11.94a9.46,9.46,0,0,1-1.48.09A72.07,72.07,0,0,1,40.41,179a92.32,92.32,0,0,1,4.31-13.8c1.31-3.21.69-4.87-2-7C23.33,143,9.81,123.6,1.55,100.4-1.08,93-.48,86.92,4.27,80.35,19.79,58.89,34.74,37,50,15.38c6-8.53,16.43-8.59,21.22.14a12.64,12.64,0,0,1,.58,9.77c-2.3,5.27-5.87,10-9.19,14.78q-17.38,25-35,49.9a7,7,0,0,0-.85,7.73c5.71,13.35,13.48,25.31,24.2,35.1a20.19,20.19,0,0,0,9.64,4.51c14.25,2.56,28.6,4.5,42.87,6.94a11.44,11.44,0,0,1,9.73,9.57c3.26,16.16,6.5,32.32,9.46,48.54,1.23,6.72-2.32,12-9.19,14q-40.44,12-81,23.84C24.79,242.45,18.19,239,16.24,232c-1.83-6.52,2.05-13,9.44-15.24,20.09-6,40.23-11.89,60.34-17.83C89.33,197.94,92.63,196.89,96.34,195.75Z"/><path class="cls-1" d="M188.85,45.58c17.12,0,30.55,13.47,30.7,30.87.15,17.22-13.45,31.29-30.29,31.36-17.38.06-30.83-13.54-30.85-31.19C158.39,59.2,171.72,45.61,188.85,45.58Z"/><path class="cls-1" d="M71.88,76c20.55-2.19,33.58,6.4,34.86,23,1.17,15.13-10,28.33-24.6,29-17.22.81-27.06-10.82-27.38-32.35-10.21-3.6-14.58-9-14-17.24a15.56,15.56,0,0,1,12.2-14.05C60.8,62.57,66.81,66.27,71.88,76Z"/><path class="cls-1" d="M184.87,324.54c4.67,27.39,9.57,56.23,14.5,85.08a15.43,15.43,0,0,1-12,18,15.06,15.06,0,0,1-17.92-12c-3.14-15.15-5.81-30.39-8.51-45.62-1.16-6.55-2-13.16-2.75-19.77a6.11,6.11,0,0,1,1.48-4.62C168.28,338.17,177.1,331,184.87,324.54Z"/></g></g></svg>