<svg xmlns="http://www.w3.org/2000/svg" viewBox="0 0 556.5 576.72"><defs><style>.cls-1,.cls-2,.cls-3{fill:none;stroke:#85b185;stroke-width:17px;}.cls-1{stroke-miterlimit:10;}.cls-2,.cls-3{stroke-linejoin:round;}.cls-3{stroke-linecap:round;}</style></defs><g id="Capa_2" data-name="Capa 2"><g id="Capa_2-2" data-name="Capa 2"><path class="cls-1" d="M90.25,364.93V85.85c0-9.73,7.46-17.63,16.67-17.63H449.58c9.21,0,16.67,7.9,16.67,17.63V364.93"/><path class="cls-2" d="M466.25,180.45,548,255.22V551.76a16.46,16.46,0,0,1-16.46,16.46H25A16.46,16.46,0,0,1,8.5,551.76V255.22l81.75-74.77"/><polyline class="cls-2" points="213.98 68.22 279.27 8.5 344.57 68.22"/><polyline class="cls-3" points="58.8 331.73 120.08 387.65 439.48 387.65 497.7 331.73"/><line class="cls-3" x1="507.44" y1="491.05" x2="449.38" y2="379.38"/><line class="cls-3" x1="49.06" y1="491.05" x2="107.12" y2="379.38"/><rect class="cls-3" x="180.97" y="183.9" width="194.55" height="35.49" rx="8.43"/><path class="cls-3" d="M354.68,221.61v87.83A16.52,16.52,0,0,1,338.16,326H218.34a16.52,16.52,0,0,1-16.52-16.51V221.61"/><line class="cls-3" x1="278.25" y1="325.95" x2="278.25" y2="183.9"/><path class="cls-3" d="M262.57,183.9s-33.23-17.43-18.9-33.7c9.45-10.72,33.22,16.85,33.22,16.85"/><path class="cls-3" d="M276.89,183.9s3-55.66,45.42-49.78c0,0,10,28.34-26.55,49.78"/></g></g></svg>