<svg xmlns="http://www.w3.org/2000/svg" viewBox="0 0 31.73 31.73"><defs><style>.cls-1{fill:#f7fafb;}</style></defs><g id="Capa_2" data-name="Capa 2"><g id="OBJECTS"><path class="cls-1" d="M26.24,7.4a1.91,1.91,0,1,1-1.91-1.91A1.9,1.9,0,0,1,26.24,7.4Zm5.49,8.47c0,4.3,0,4.84-.1,6.54a11.59,11.59,0,0,1-.73,3.85,8.11,8.11,0,0,1-4.64,4.64,11.59,11.59,0,0,1-3.85.73c-1.7.08-2.24.1-6.54.1s-4.85,0-6.55-.1a11.59,11.59,0,0,1-3.85-.73A8.11,8.11,0,0,1,.83,26.26,11.59,11.59,0,0,1,.1,22.41C0,20.71,0,20.17,0,15.87S0,11,.1,9.32A11.59,11.59,0,0,1,.83,5.47,8.11,8.11,0,0,1,5.47.83,11.59,11.59,0,0,1,9.32.1C11,0,11.56,0,15.87,0s4.84,0,6.54.1a11.59,11.59,0,0,1,3.85.73A8.11,8.11,0,0,1,30.9,5.47a11.59,11.59,0,0,1,.73,3.85C31.71,11,31.73,11.56,31.73,15.87Zm-2.86,0c0-4.24,0-4.74-.09-6.42a8.67,8.67,0,0,0-.55-2.94,5.16,5.16,0,0,0-3-3A8.67,8.67,0,0,0,22.28,3c-1.68-.08-2.18-.09-6.41-.09s-4.74,0-6.42.09a8.67,8.67,0,0,0-2.94.55,5.16,5.16,0,0,0-3,3A8.67,8.67,0,0,0,3,9.45c-.08,1.68-.09,2.18-.09,6.42s0,4.73.09,6.41a8.67,8.67,0,0,0,.55,2.94,5.16,5.16,0,0,0,3,3,8.67,8.67,0,0,0,2.94.55c1.68.08,2.18.09,6.42.09s4.73,0,6.41-.09a8.67,8.67,0,0,0,2.94-.55,5.16,5.16,0,0,0,3-3,8.67,8.67,0,0,0,.55-2.94C28.86,20.6,28.87,20.1,28.87,15.87Zm-4.86,0a8.15,8.15,0,1,1-8.14-8.15A8.15,8.15,0,0,1,24,15.87Zm-2.86,0a5.29,5.29,0,1,0-5.28,5.28A5.28,5.28,0,0,0,21.15,15.87Z"/></g></g></svg>