<svg xmlns="http://www.w3.org/2000/svg" viewBox="0 0 456.47 30.46"><defs><style>.cls-1{fill:#1a2b3c;}</style></defs><g id="Capa_2" data-name="Capa 2"><g id="Object"><rect class="cls-1" x="61.99" y="12.78" width="166.2" height="2.36"/><rect class="cls-1" x="228.32" y="12.78" width="166.2" height="2.36"/><path class="cls-1" d="M448.86,7.25a.65.65,0,0,1,.47-.35,1.46,1.46,0,0,1,.91.15,2.36,2.36,0,0,1,1,1,2.77,2.77,0,0,1,.31,1.64,3.23,3.23,0,0,1-.29,1,4.16,4.16,0,0,1-.77,1.12,4.88,4.88,0,0,1-1.16.9,5.84,5.84,0,0,1-1.34.53,6.68,6.68,0,0,1-1.27.16h-.56c-.17,0-.33,0-.48-.06l-.39-.08-.28-.1c-.16-.06-.25-.11-.25-.15s.09-.09.25-.14l.62-.22.4-.15.43-.19a5.58,5.58,0,0,0,.88-.51,4.35,4.35,0,0,0,.74-.67,4,4,0,0,0,.48-.71,2.44,2.44,0,0,0,.2-.62.32.32,0,0,0,0-.13.36.36,0,0,0,0-.1s0-.07,0-.1a.22.22,0,0,1,0-.08c0-.19,0-.35.05-.5a2.89,2.89,0,0,0,0-.51C448.83,8,448.69,7.58,448.86,7.25Z"/><path class="cls-1" d="M451.84,13.16a23.14,23.14,0,0,1-6.31,1.14s0,0,0,0l-1.22,1a.32.32,0,0,0,0,.5l1.14,1a0,0,0,0,0,0,0,22.7,22.7,0,0,1,6.22,1.57s3.94-2,4.76-2.4a.11.11,0,0,0,0-.19C455.63,15.38,451.86,13.15,451.84,13.16Z"/><path class="cls-1" d="M448.25,24.3a.64.64,0,0,0,.44.37,1.4,1.4,0,0,0,.92-.09,2.28,2.28,0,0,0,1.05-.91,2.84,2.84,0,0,0,.43-1.61,3.4,3.4,0,0,0-.22-1.06,4.18,4.18,0,0,0-.69-1.17,4.83,4.83,0,0,0-1.09-1,5.33,5.33,0,0,0-1.3-.62,5.61,5.61,0,0,0-1.26-.25L446,18c-.18,0-.34,0-.48,0l-.4.06-.29.07c-.16.05-.25.1-.25.14s.08.09.23.16l.6.25.39.18.42.22a5.18,5.18,0,0,1,.84.57,4.25,4.25,0,0,1,.69.72,3,3,0,0,1,.42.74,2.39,2.39,0,0,1,.17.63c0,.05,0,.09,0,.13s0,.07,0,.11v.17c0,.2,0,.35,0,.51a2.31,2.31,0,0,1,0,.51A2.34,2.34,0,0,0,448.25,24.3Z"/><path class="cls-1" d="M444.48,24.15c.11.09.14.27.09.51a3,3,0,0,1-.38.94,5.33,5.33,0,0,1-.38.6,7.26,7.26,0,0,1-.52.68,10.4,10.4,0,0,1-1.53,1.49,10,10,0,0,1-2.35,1.4,8.84,8.84,0,0,1-3.29.69,9.51,9.51,0,0,1-3.66-.69,13.33,13.33,0,0,1-3.23-1.84,23.6,23.6,0,0,1-3.31-3.08c-1.18-1.3-2.39-2.83-3.62-4.46s-2.49-3.37-3.85-5c-.34-.41-.69-.8-1-1.18l-.54-.56a3.25,3.25,0,0,0-.27-.26l-.26-.24a10.4,10.4,0,0,0-2.47-1.58,12.41,12.41,0,0,0-2.8-.92,13.83,13.83,0,0,0-2.83-.3,12.76,12.76,0,0,0-4.84.93,9.94,9.94,0,0,0-1.73.9,13.72,13.72,0,0,0-1.21.89c-.31.28-.55.5-.71.66s-.27.22-.3.2,0-.13.13-.33a6.1,6.1,0,0,1,.54-.83,9.06,9.06,0,0,1,1.08-1.17,9.25,9.25,0,0,1,1.7-1.25,13.27,13.27,0,0,1,5.23-1.72,14.74,14.74,0,0,1,3.26,0,14.53,14.53,0,0,1,3.42.73A13.43,13.43,0,0,1,418.1,11l.38.28.36.29.68.58c.44.39.86.79,1.26,1.19,1.63,1.62,3.06,3.28,4.41,4.8s2.58,2.89,3.71,4a27.6,27.6,0,0,0,2.89,2.53,12.11,12.11,0,0,0,2.28,1.4,7.13,7.13,0,0,0,2.16.61,6.69,6.69,0,0,0,2-.13,10.14,10.14,0,0,0,1.88-.64c.59-.25,1.13-.53,1.61-.79l.68-.36.59-.3C443.77,24.11,444.26,24,444.48,24.15Z"/><path class="cls-1" d="M431.7,14.93c-.39.06-.75-1.09-1.6-2.53a5.63,5.63,0,0,0-.36-.54,6.48,6.48,0,0,0-.42-.53,5.74,5.74,0,0,0-1.06-.95,6.35,6.35,0,0,0-3.1-1.05,11.4,11.4,0,0,0-2.44.05,15.13,15.13,0,0,0-3.32.8,36.81,36.81,0,0,0-3.73,1.69,28,28,0,0,1-4.15,1.76,12,12,0,0,1-4.29.57,18.68,18.68,0,0,1-3.47-.61c-.48-.12-.92-.21-1.3-.29s-.72-.13-1-.18a2.64,2.64,0,0,1-.87-.14,2.64,2.64,0,0,1,.88-.15h1c.4,0,.86.05,1.35.1a21.92,21.92,0,0,0,3.35.18,10.85,10.85,0,0,0,3.75-.92,28.16,28.16,0,0,0,3.72-2,34.62,34.62,0,0,1,3.82-2.11,16.71,16.71,0,0,1,3.81-1.18,11.76,11.76,0,0,1,3.1-.15,8.87,8.87,0,0,1,2.39.57,7.17,7.17,0,0,1,2,1.21,6.86,6.86,0,0,1,1.33,1.58,7.09,7.09,0,0,1,.42.82,6.55,6.55,0,0,1,.28.77,6.4,6.4,0,0,1,.26,2.36C432,14.61,431.88,14.91,431.7,14.93Z"/><path class="cls-1" d="M408.88,5.86c0,.12-.1.25-.3.36a2.28,2.28,0,0,1-.35.17l-.47.18c-.69.24-1.61.5-2.6.84a16.49,16.49,0,0,0-2.17.9,14.07,14.07,0,0,0-2.64,1.78l-.6.53-.26.26-.24.27c-.3.36-.57.73-.82,1a5.8,5.8,0,0,1-.63.69c-.18.15-.28.21-.3.2s0-.13.14-.32a8.39,8.39,0,0,0,.4-.8c.16-.34.35-.75.59-1.21l.2-.34.24-.35c.17-.22.33-.44.52-.66A12.9,12.9,0,0,1,402.17,7a10.81,10.81,0,0,1,2.4-1.24,7.93,7.93,0,0,1,3-.42c.2,0,.37.05.53.08a1.73,1.73,0,0,1,.4.12C408.76,5.64,408.88,5.75,408.88,5.86Z"/><path class="cls-1" d="M445.1,6.9c-.23.18-.72,0-1.42-.42l-.57-.34-.65-.41c-.46-.29-1-.6-1.54-.89a10,10,0,0,0-1.84-.76,6.26,6.26,0,0,0-2-.27,6.77,6.77,0,0,0-2.2.46,12.52,12.52,0,0,0-2.37,1.23,27.66,27.66,0,0,0-3.07,2.34c-1.2,1-2.53,2.32-4,3.74s-3,3-4.73,4.49c-.44.38-.88.75-1.35,1.11-.24.18-.47.36-.72.53a3.62,3.62,0,0,1-.38.26c-.13.09-.26.18-.4.26a13.3,13.3,0,0,1-3.4,1.45,15.14,15.14,0,0,1-3.47.5,15,15,0,0,1-3.26-.25,13.24,13.24,0,0,1-5.1-2.07A9.53,9.53,0,0,1,401,16.48a8.33,8.33,0,0,1-1-1.24,5.48,5.48,0,0,1-.48-.88c-.09-.21-.12-.32-.09-.34s.11.07.27.23.37.41.66.71a12.81,12.81,0,0,0,1.14,1,9.87,9.87,0,0,0,1.66,1A12.93,12.93,0,0,0,408,18.22a13.61,13.61,0,0,0,2.84-.11,12.6,12.6,0,0,0,2.87-.73A10.73,10.73,0,0,0,416.25,16a3.11,3.11,0,0,0,.28-.23l.29-.24c.19-.16.38-.34.57-.52.39-.35.76-.73,1.13-1.11,1.47-1.53,2.85-3.18,4.19-4.72s2.66-3,3.92-4.21a24.06,24.06,0,0,1,3.52-2.85A13.73,13.73,0,0,1,433.51.47a9.75,9.75,0,0,1,3.7-.44,8.89,8.89,0,0,1,3.24.92,9.91,9.91,0,0,1,2.24,1.56,10.35,10.35,0,0,1,1.42,1.58c.18.25.34.49.47.71a6.53,6.53,0,0,1,.33.63,3.22,3.22,0,0,1,.32,1C445.26,6.64,445.22,6.81,445.1,6.9Z"/><path class="cls-1" d="M431.69,15.22c.18,0,.3.35.33.91a6.22,6.22,0,0,1-.43,2.34,5.37,5.37,0,0,1-.33.75,6.46,6.46,0,0,1-.47.78,6.81,6.81,0,0,1-1.45,1.5,7.18,7.18,0,0,1-2.08,1.07,8.59,8.59,0,0,1-2.43.4,11.92,11.92,0,0,1-3.07-.36A16.64,16.64,0,0,1,418,21.18a34.08,34.08,0,0,1-3.66-2.36,30.3,30.3,0,0,0-3.57-2.26,11,11,0,0,0-3.67-1.16,20,20,0,0,0-3.35-.05c-.5,0-1,0-1.36,0s-.76,0-1-.08a2.76,2.76,0,0,1-.87-.21,2.85,2.85,0,0,1,.88-.07l1-.1c.39-.06.83-.12,1.32-.21a19.57,19.57,0,0,1,3.5-.37,11.93,11.93,0,0,1,4.24.86,27.89,27.89,0,0,1,4,2,34.05,34.05,0,0,0,3.61,1.93,15.27,15.27,0,0,0,3.25,1,12.39,12.39,0,0,0,2.43.21,6.44,6.44,0,0,0,3.17-.84,5.84,5.84,0,0,0,1.13-.87c.16-.17.32-.33.46-.51a6.26,6.26,0,0,0,.39-.51C430.87,16.26,431.3,15.14,431.69,15.22Z"/><path class="cls-1" d="M438.4,12.68A2.63,2.63,0,1,0,441,15.4,2.68,2.68,0,0,0,438.4,12.68Z"/><path class="cls-1" d="M394.48,11.32A2.41,2.41,0,0,0,392,13.6a2.43,2.43,0,1,0,2.51-2.28Z"/><path class="cls-1" d="M408.28,22.54c0,.12-.14.22-.36.29a2.74,2.74,0,0,1-.41.1,4.11,4.11,0,0,1-.53,0,7.75,7.75,0,0,1-3-.62,10.93,10.93,0,0,1-2.31-1.4,12.93,12.93,0,0,1-2.41-2.54c-.17-.23-.32-.47-.47-.7s-.15-.24-.22-.36-.12-.24-.17-.36c-.22-.47-.37-.89-.5-1.24s-.25-.63-.34-.83-.14-.31-.12-.33.12.06.28.22a5.43,5.43,0,0,1,.58.73c.22.32.47.7.75,1.09l.22.29.24.27.55.57a14.11,14.11,0,0,0,2.52,1.95,17.49,17.49,0,0,0,2.1,1.05c1,.4,1.87.72,2.54,1l.45.21a2.58,2.58,0,0,1,.34.19C408.2,22.29,408.3,22.42,408.28,22.54Z"/><path class="cls-1" d="M7.61,7.25a.65.65,0,0,0-.47-.35,1.42,1.42,0,0,0-.9.15,2.38,2.38,0,0,0-1,1,2.85,2.85,0,0,0-.31,1.64,3.23,3.23,0,0,0,.29,1A4.4,4.4,0,0,0,6,11.83a4.88,4.88,0,0,0,1.16.9,6,6,0,0,0,1.34.53,6.68,6.68,0,0,0,1.28.16h.55c.18,0,.34,0,.48-.06l.39-.08.29-.1c.15-.06.24-.11.24-.15s-.09-.09-.24-.14l-.62-.22-.41-.15L10,12.32a5.58,5.58,0,0,1-.88-.51,3.93,3.93,0,0,1-.73-.67,3.17,3.17,0,0,1-.48-.71,2.16,2.16,0,0,1-.21-.62.69.69,0,0,1,0-.13.36.36,0,0,1,0-.1.31.31,0,0,0,0-.1V9.4c0-.19,0-.35,0-.5a2.15,2.15,0,0,1,0-.51A2.2,2.2,0,0,0,7.61,7.25Z"/><path class="cls-1" d="M4.64,13.16a23.09,23.09,0,0,0,6.3,1.14.06.06,0,0,1,.06,0l1.21,1a.33.33,0,0,1,0,.5l-1.14,1a0,0,0,0,1-.05,0,22.67,22.67,0,0,0-6.21,1.57s-3.95-2-4.77-2.4a.11.11,0,0,1,0-.19C.84,15.38,4.61,13.15,4.64,13.16Z"/><path class="cls-1" d="M8.22,24.3a.64.64,0,0,1-.44.37,1.4,1.4,0,0,1-.92-.09,2.28,2.28,0,0,1-1.05-.91,2.84,2.84,0,0,1-.43-1.61A3.71,3.71,0,0,1,5.6,21a4.18,4.18,0,0,1,.69-1.17,4.83,4.83,0,0,1,1.09-1,5.51,5.51,0,0,1,1.3-.62A5.61,5.61,0,0,1,9.94,18l.56,0c.17,0,.33,0,.48,0l.39.06.29.07c.17.05.25.1.26.14s-.09.09-.24.16l-.6.25-.39.18-.42.22a5.65,5.65,0,0,0-.84.57,3.83,3.83,0,0,0-.68.72,3,3,0,0,0-.43.74,2.32,2.32,0,0,0-.16.63c0,.05,0,.09,0,.13V22a.28.28,0,0,1,0,.09v.08c0,.2,0,.35,0,.51a3.15,3.15,0,0,0,0,.51A2.23,2.23,0,0,1,8.22,24.3Z"/><path class="cls-1" d="M12,24.15c-.11.09-.14.27-.09.51a3.28,3.28,0,0,0,.38.94,5.33,5.33,0,0,0,.38.6,7.26,7.26,0,0,0,.52.68,10.93,10.93,0,0,0,1.53,1.49,10,10,0,0,0,2.35,1.4,8.84,8.84,0,0,0,3.29.69A9.6,9.6,0,0,0,24,29.77a13.72,13.72,0,0,0,3.23-1.84,24.15,24.15,0,0,0,3.3-3.08c1.18-1.3,2.39-2.83,3.62-4.46s2.5-3.37,3.85-5c.34-.41.69-.8,1-1.18l.54-.56.27-.26.26-.24a10.4,10.4,0,0,1,2.47-1.58,12.41,12.41,0,0,1,2.8-.92,13.9,13.9,0,0,1,2.83-.3,12.76,12.76,0,0,1,4.84.93,9.59,9.59,0,0,1,1.73.9,13.72,13.72,0,0,1,1.21.89c.31.28.56.5.72.66s.27.22.29.2,0-.13-.12-.33a6.38,6.38,0,0,0-.55-.83,9.06,9.06,0,0,0-1.08-1.17,9.25,9.25,0,0,0-1.7-1.25,13.27,13.27,0,0,0-5.23-1.72,15.42,15.42,0,0,0-6.68.7A13.19,13.19,0,0,0,38.38,11l-.38.28-.37.29-.67.58c-.44.39-.86.79-1.27,1.19-1.63,1.62-3.06,3.28-4.41,4.8s-2.58,2.89-3.71,4a27.6,27.6,0,0,1-2.89,2.53,12.11,12.11,0,0,1-2.28,1.4,7.05,7.05,0,0,1-2.16.61,6.63,6.63,0,0,1-2-.13,10.24,10.24,0,0,1-1.89-.64c-.59-.25-1.13-.53-1.61-.79L14,24.77l-.59-.3C12.71,24.11,12.21,24,12,24.15Z"/><path class="cls-1" d="M24.77,14.93c.39.06.75-1.09,1.61-2.53a5.49,5.49,0,0,1,.35-.54c.12-.18.28-.35.42-.53a6.15,6.15,0,0,1,1.07-.95,6.31,6.31,0,0,1,3.1-1.05,11.41,11.41,0,0,1,2.44.05,15.19,15.19,0,0,1,3.31.8,36.92,36.92,0,0,1,3.74,1.69A28.29,28.29,0,0,0,45,13.63a12.07,12.07,0,0,0,4.3.57,19,19,0,0,0,3.47-.61c.48-.12.91-.21,1.29-.29l1-.18a2.72,2.72,0,0,0,.87-.14,2.76,2.76,0,0,0-.89-.15H54c-.41,0-.86.05-1.36.1a21.85,21.85,0,0,1-3.35.18,10.9,10.9,0,0,1-3.75-.92,28.16,28.16,0,0,1-3.72-2A33.73,33.73,0,0,0,38,8.07a16.71,16.71,0,0,0-3.81-1.18,11.69,11.69,0,0,0-3.09-.15,8.7,8.7,0,0,0-2.39.57,6.89,6.89,0,0,0-2,1.21,6.67,6.67,0,0,0-1.34,1.58,5.7,5.7,0,0,0-.41.82,5.22,5.22,0,0,0-.29.77,6.35,6.35,0,0,0-.25,2.36C24.45,14.61,24.59,14.91,24.77,14.93Z"/><path class="cls-1" d="M47.59,5.86c0,.12.1.25.3.36a2,2,0,0,0,.36.17l.46.18c.69.24,1.61.5,2.6.84a16,16,0,0,1,2.17.9,14.47,14.47,0,0,1,2.65,1.78l.59.53.26.26.24.27c.3.36.57.73.82,1a5.8,5.8,0,0,0,.63.69c.18.15.28.21.3.2s0-.13-.14-.32-.24-.46-.4-.8-.34-.75-.59-1.21c-.06-.11-.12-.22-.2-.34s-.15-.24-.24-.35-.33-.44-.52-.66A12.63,12.63,0,0,0,54.3,7a10.81,10.81,0,0,0-2.4-1.24,7.91,7.91,0,0,0-3-.42l-.53.08a1.9,1.9,0,0,0-.4.12C47.72,5.64,47.6,5.75,47.59,5.86Z"/><path class="cls-1" d="M11.37,6.9c.23.18.72,0,1.42-.42l.57-.34L14,5.73c.46-.29,1-.6,1.54-.89a10,10,0,0,1,1.84-.76,6.3,6.3,0,0,1,2-.27,6.77,6.77,0,0,1,2.2.46A12,12,0,0,1,24,5.5a27.66,27.66,0,0,1,3.07,2.34c1.2,1,2.54,2.32,4,3.74s3,3,4.73,4.49q.66.57,1.35,1.11c.24.18.47.36.72.53l.38.26.4.26A13.36,13.36,0,0,0,42,19.68a15.42,15.42,0,0,0,6.72.25,13.24,13.24,0,0,0,5.1-2.07,9.53,9.53,0,0,0,1.61-1.38,9.2,9.2,0,0,0,1-1.24,5.27,5.27,0,0,0,.47-.88c.09-.21.13-.32.1-.34s-.12.07-.28.23-.37.41-.66.71a11.51,11.51,0,0,1-1.14,1,9.48,9.48,0,0,1-1.66,1,12.88,12.88,0,0,1-4.77,1.26,13.71,13.71,0,0,1-2.85-.11,12.6,12.6,0,0,1-2.87-.73A10.92,10.92,0,0,1,40.22,16l-.28-.23a3,3,0,0,1-.28-.24c-.2-.16-.39-.34-.58-.52-.38-.35-.76-.73-1.12-1.11-1.47-1.53-2.85-3.18-4.2-4.72s-2.66-3-3.92-4.21a23.54,23.54,0,0,0-3.52-2.85A13.84,13.84,0,0,0,23,.47,9.8,9.8,0,0,0,19.26,0,8.78,8.78,0,0,0,16,1a9.77,9.77,0,0,0-2.25,1.56,10.23,10.23,0,0,0-1.41,1.58,7.21,7.21,0,0,0-.47.71,6.81,6.81,0,0,0-.34.63,3.15,3.15,0,0,0-.31,1A.55.55,0,0,0,11.37,6.9Z"/><path class="cls-1" d="M24.78,15.22c-.18,0-.3.35-.33.91a6.22,6.22,0,0,0,.43,2.34,5.37,5.37,0,0,0,.33.75,8.07,8.07,0,0,0,.47.78,7,7,0,0,0,1.45,1.5,7.18,7.18,0,0,0,2.08,1.07,8.64,8.64,0,0,0,2.43.4,11.82,11.82,0,0,0,3.07-.36,16.28,16.28,0,0,0,3.72-1.43,35.24,35.24,0,0,0,3.67-2.36,29.4,29.4,0,0,1,3.56-2.26,11.17,11.17,0,0,1,3.67-1.16,20.12,20.12,0,0,1,3.36-.05c.49,0,1,0,1.36,0s.75,0,1-.08a2.65,2.65,0,0,0,.87-.21,2.74,2.74,0,0,0-.88-.07l-1-.1c-.39-.06-.83-.12-1.32-.21a19.57,19.57,0,0,0-3.5-.37,11.93,11.93,0,0,0-4.24.86,28.42,28.42,0,0,0-4,2,34.05,34.05,0,0,1-3.61,1.93,15.27,15.27,0,0,1-3.25,1,12.39,12.39,0,0,1-2.43.21,6.47,6.47,0,0,1-3.17-.84,6.16,6.16,0,0,1-1.13-.87c-.15-.17-.32-.33-.45-.51a6.4,6.4,0,0,1-.4-.51C25.61,16.26,25.17,15.14,24.78,15.22Z"/><path class="cls-1" d="M18.08,12.68a2.63,2.63,0,1,1-2.61,2.72A2.67,2.67,0,0,1,18.08,12.68Z"/><path class="cls-1" d="M62,11.32A2.41,2.41,0,0,1,64.5,13.6,2.43,2.43,0,1,1,62,11.32Z"/><path class="cls-1" d="M48.19,22.54c0,.12.14.22.36.29a3.08,3.08,0,0,0,.41.1,4.33,4.33,0,0,0,.53,0,7.8,7.8,0,0,0,3-.62,10.91,10.91,0,0,0,2.3-1.4,12.64,12.64,0,0,0,2.41-2.54c.17-.23.32-.47.48-.7l.21-.36c.07-.12.12-.24.18-.36.21-.47.36-.89.49-1.24l.34-.83c.1-.19.14-.31.12-.33s-.12.06-.28.22a5.43,5.43,0,0,0-.58.73c-.22.32-.46.7-.74,1.09a3.15,3.15,0,0,0-.22.29l-.24.27c-.19.18-.37.38-.56.57a14.11,14.11,0,0,1-2.52,1.95,16.78,16.78,0,0,1-2.1,1.05c-1,.4-1.87.72-2.53,1L48.8,22a2.58,2.58,0,0,0-.34.19C48.27,22.29,48.17,22.42,48.19,22.54Z"/></g></g></svg>