<svg version="1.1" xmlns="http://www.w3.org/2000/svg" xmlns:xlink="http://www.w3.org/1999/xlink" width="202.72px" height="583.66px" viewBox="0,0,88.9125,256"><g fill="#ffd1dc" fill-rule="nonzero" stroke="none" stroke-width="1" stroke-linecap="butt" stroke-linejoin="miter" stroke-miterlimit="10" stroke-dasharray="" stroke-dashoffset="0" font-family="none" font-weight="none" font-size="none" text-anchor="none" style="mix-blend-mode: normal"><g transform="translate(0.00078,-0.27736) scale(0.43861,0.43861)"><g id="Capa_2"><g id="Capa_2-2"><circle cx="101.36" cy="58.98" r="58.98"></circle><path d="M123.33,127.47l-21.78,12.53l-0.19,0.13l-0.19,-0.13l-21.78,-12.53c-2.41111,-1.39444 -5.38327,-1.39547 -7.79534,-0.0027c-2.41207,1.39277 -3.897,3.9674 -3.89466,6.7527v25.15c0.00123,2.78351 1.48758,5.35486 3.89899,6.74519c2.41142,1.39033 5.38144,1.38835 7.79101,-0.00519l21.78,-12.57l0.19,-0.13l0.19,0.13l21.78,12.57c2.40832,1.38333 5.37098,1.37982 7.77602,-0.00921c2.40504,-1.38903 3.88864,-3.95346 3.89398,-6.73079v-25.15c-0.00177,-2.77912 -1.48397,-5.34681 -3.88966,-6.73828c-2.40569,-1.39146 -5.37047,-1.39593 -7.78034,-0.01172z"></path><path d="M151.45,133.55c2.46196,2.04189 3.41208,5.38917 2.39,8.42l-45.13,134.36c-1.057,3.16113 -4.01683,5.29236 -7.35,5.29236c-3.33317,0 -6.293,-2.13123 -7.35,-5.29236l-45.13,-134.33c-1.02208,-3.03083 -0.07196,-6.37811 2.39,-8.42c-30.03499,7.11928 -51.24995,33.9328 -51.27,64.8v119.67c0.01642,12.69111 9.19283,23.51598 21.71,25.61l13.62,209c0,17.12083 13.87917,31 31,31c17.12083,0 31,-13.87917 31,-31l-2.09,-154.87h0.05c0,-3.35237 2.71763,-6.07 6.07,-6.07c3.35237,0 6.07,2.71763 6.07,6.07v0l-2,154.89c-0.45663,11.36315 5.34527,22.06412 15.11698,27.88161c9.77171,5.8175 21.94433,5.8175 31.71604,0c9.77171,-5.8175 15.57361,-16.51847 15.11698,-27.88161l13.63,-209c12.5132,-2.09838 21.6844,-12.92209 21.7,-25.61v-119.69c-0.00506,-30.87546 -21.21808,-57.70418 -51.26,-64.83z"></path></g></g></g></g></svg>