<svg xmlns="http://www.w3.org/2000/svg" viewBox="0 0 499 499"><defs><style>.cls-1{fill:#fff;}</style></defs><g id="Capa_2" data-name="Capa 2"><g id="Capa_1-2" data-name="Capa 1"><path class="cls-1" d="M249.5,0C111.7,0,0,111.7,0,249.5S111.7,499,249.5,499,499,387.3,499,249.5,387.3,0,249.5,0Zm-31,365.34a21.59,21.59,0,0,1-21.59,21.58H178a21.59,21.59,0,0,1-21.59-21.58V133.66A21.59,21.59,0,0,1,178,112.08h18.9a21.59,21.59,0,0,1,21.59,21.58Zm124.16,0A21.59,21.59,0,0,1,321,386.92h-18.9a21.59,21.59,0,0,1-21.59-21.58V133.66a21.59,21.59,0,0,1,21.59-21.58H321a21.59,21.59,0,0,1,21.59,21.58Z"/></g></g></svg>