<svg xmlns="http://www.w3.org/2000/svg" viewBox="0 0 76.05 71.82"><defs><style>.cls-1{fill:#1a2b3c;}</style></defs><g id="Capa_2" data-name="Capa 2"><g id="Object"><path class="cls-1" d="M74.39,32.91A2.74,2.74,0,0,0,75.92,31a5.78,5.78,0,0,0-.51-3.78,9.69,9.69,0,0,0-4-4.23,12.17,12.17,0,0,0-7-1.55A14.47,14.47,0,0,0,60,22.52a17.45,17.45,0,0,0-4.89,3,20.55,20.55,0,0,0-4,4.7,22.66,22.66,0,0,0-2.44,5.47A25.25,25.25,0,0,0,47.76,41c0,.82,0,1.59,0,2.31s.1,1.39.18,2,.2,1.15.29,1.63.25.88.36,1.21c.24.66.45,1,.63,1s.38-.36.64-1,.61-1.56,1-2.54c.2-.52.46-1.07.7-1.65s.56-1.18.88-1.78a26.38,26.38,0,0,1,2.3-3.57,19.13,19.13,0,0,1,3-3,14,14,0,0,1,3.13-1.88A10.47,10.47,0,0,1,63.46,33c.19,0,.37,0,.53-.06a2.69,2.69,0,0,1,.47,0c.14,0,.27,0,.4,0h.34c.82-.06,1.49-.11,2.15-.14a13.77,13.77,0,0,1,2.19.06C71.13,32.93,72.93,33.54,74.39,32.91Z"/><path class="cls-1" d="M49.63,19.66c-4.43,10.06-5.62,24.17-5.76,26,0,.12-.08.2-.16.2l-4.32,4.9a1.44,1.44,0,0,1-2.16,0l-4.32-4.9c-.08,0-.15-.08-.16-.2-.14-1.86-1.14-14.89-5.76-26C27,19.58,35.9,3.59,37.91.25a.45.45,0,0,1,.8,0C40.73,3.59,49.67,19.58,49.63,19.66Z"/><path class="cls-1" d="M1.66,32.91A2.74,2.74,0,0,1,.13,31a5.78,5.78,0,0,1,.51-3.78,9.69,9.69,0,0,1,4-4.23,12.17,12.17,0,0,1,7-1.55,14.47,14.47,0,0,1,4.46,1.08,17.45,17.45,0,0,1,4.89,3,20.55,20.55,0,0,1,4,4.7A22.66,22.66,0,0,1,27.4,35.7,25.25,25.25,0,0,1,28.29,41c0,.82,0,1.59,0,2.31s-.1,1.39-.18,2-.2,1.15-.29,1.63-.25.88-.36,1.21c-.24.66-.45,1-.63,1s-.38-.36-.64-1-.61-1.56-1-2.54c-.2-.52-.46-1.07-.7-1.65s-.56-1.18-.88-1.78a26.38,26.38,0,0,0-2.3-3.57,19.13,19.13,0,0,0-2.95-3,14,14,0,0,0-3.12-1.88A10.42,10.42,0,0,0,12.59,33c-.19,0-.37,0-.53-.06a2.69,2.69,0,0,0-.47,0c-.14,0-.27,0-.4,0h-.34c-.82-.06-1.49-.11-2.15-.14a13.77,13.77,0,0,0-2.19.06C4.92,32.93,3.12,33.54,1.66,32.91Z"/><path class="cls-1" d="M38.22,54.68s-8.06,17.11,0,17.14C46.45,71.85,38.69,53.65,38.22,54.68Z"/><path class="cls-1" d="M42.6,54.72S48,67.83,52.08,63.39,42.27,53.94,42.6,54.72Z"/><path class="cls-1" d="M33.85,55.22s-14,2.31-10.58,7.29S34.68,55.07,33.85,55.22Z"/></g></g></svg>