<svg version="1.1" xmlns="http://www.w3.org/2000/svg" xmlns:xlink="http://www.w3.org/1999/xlink" width="76.05px" height="71.82px" viewBox="0,0,256,241.75"><g fill="#e6c27a" fill-rule="nonzero" stroke="none" stroke-width="1" stroke-linecap="butt" stroke-linejoin="miter" stroke-miterlimit="10" stroke-dasharray="" stroke-dashoffset="0" font-family="none" font-weight="none" font-size="none" text-anchor="none" style="mix-blend-mode: normal"><g transform="translate(0,-0.0159) scale(3.36621,3.36621)"><g id="Capa_2"><g id="Object"><path d="M74.39,32.91c0.78178,-0.36089 1.34845,-1.06829 1.53,-1.91c0.26261,-1.28141 0.08282,-2.61401 -0.51,-3.78c-0.86824,-1.78667 -2.26461,-3.26333 -4,-4.23c-2.12476,-1.20784 -4.56396,-1.74795 -7,-1.55c-1.51767,0.1257 -3.00599,0.49018 -4.41,1.08c-1.78434,0.72338 -3.43667,1.73707 -4.89,3c-1.56233,1.35637 -2.91087,2.94091 -4,4.7c-1.05179,1.70734 -1.87228,3.54673 -2.44,5.47c-0.49183,1.73248 -0.7969,3.51261 -0.91,5.31c0,0.82 0,1.59 0,2.31c0,0.72 0.1,1.39 0.18,2c0.08,0.61 0.2,1.15 0.29,1.63c0.09,0.48 0.25,0.88 0.36,1.21c0.24,0.66 0.45,1 0.63,1c0.18,0 0.38,-0.36 0.64,-1c0.26,-0.64 0.61,-1.56 1,-2.54c0.2,-0.52 0.46,-1.07 0.7,-1.65c0.24,-0.58 0.56,-1.18 0.88,-1.78c0.66948,-1.24988 1.43864,-2.44374 2.3,-3.57c0.88567,-1.10814 1.89186,-2.11433 3,-3c0.95679,-0.76061 2.00907,-1.39265 3.13,-1.88c0.82834,-0.35373 1.69886,-0.59908 2.59,-0.73c0.19,0 0.37,0 0.53,-0.06c0.15637,-0.01371 0.31363,-0.01371 0.47,0c0.14,0 0.27,0 0.4,0h0.34c0.82,-0.06 1.49,-0.11 2.15,-0.14c0.73043,-0.0382 1.46275,-0.01813 2.19,0.06c1.59,0.07 3.39,0.68 4.85,0.05z"></path><path d="M49.63,19.66c-4.43,10.06 -5.62,24.17 -5.76,26c0,0.12 -0.08,0.2 -0.16,0.2l-4.32,4.9c-0.27336,0.30996 -0.66672,0.48753 -1.08,0.48753c-0.41328,0 -0.80664,-0.17757 -1.08,-0.48753l-4.32,-4.9c-0.08,0 -0.15,-0.08 -0.16,-0.2c-0.14,-1.86 -1.14,-14.89 -5.76,-26c0.01,-0.08 8.91,-16.07 10.92,-19.41c0.07718,-0.14975 0.23153,-0.24384 0.4,-0.24384c0.16847,0 0.32282,0.0941 0.4,0.24384c2.02,3.34 10.96,19.33 10.92,19.41z"></path><path d="M1.66,32.91c-0.78178,-0.36089 -1.34845,-1.06829 -1.53,-1.91c-0.26261,-1.28141 -0.08282,-2.61401 0.51,-3.78c0.86824,-1.78667 2.26461,-3.26333 4,-4.23c2.12476,-1.20784 4.56396,-1.74795 7,-1.55c1.53465,0.12047 3.04024,0.48506 4.46,1.08c1.78434,0.72338 3.43667,1.73707 4.89,3c1.56233,1.35637 2.91087,2.94091 4,4.7c1.04215,1.71205 1.85256,3.55479 2.41,5.48c0.48437,1.72998 0.78272,3.5067 0.89,5.3c0,0.82 0,1.59 0,2.31c0,0.72 -0.1,1.39 -0.18,2c-0.08,0.61 -0.2,1.15 -0.29,1.63c-0.09,0.48 -0.25,0.88 -0.36,1.21c-0.24,0.66 -0.45,1 -0.63,1c-0.18,0 -0.38,-0.36 -0.64,-1c-0.26,-0.64 -0.61,-1.56 -1,-2.54c-0.2,-0.52 -0.46,-1.07 -0.7,-1.65c-0.24,-0.58 -0.56,-1.18 -0.88,-1.78c-0.66948,-1.24988 -1.43864,-2.44374 -2.3,-3.57c-0.87004,-1.10542 -1.85935,-2.11151 -2.95,-3c-0.95369,-0.75987 -2.00256,-1.39188 -3.12,-1.88c-0.84722,-0.35928 -1.73831,-0.60475 -2.65,-0.73c-0.19,0 -0.37,0 -0.53,-0.06c-0.15637,-0.01371 -0.31363,-0.01371 -0.47,0c-0.14,0 -0.27,0 -0.4,0h-0.34c-0.82,-0.06 -1.49,-0.11 -2.15,-0.14c-0.73043,-0.0382 -1.46275,-0.01813 -2.19,0.06c-1.59,0.07 -3.39,0.68 -4.85,0.05z"></path><path d="M38.22,54.68c0,0 -8.06,17.11 0,17.14c8.23,0.03 0.47,-18.17 0,-17.14z"></path><path d="M42.6,54.72c0,0 5.4,13.11 9.48,8.67c4.08,-4.44 -9.81,-9.45 -9.48,-8.67z"></path><path d="M33.85,55.22c0,0 -14,2.31 -10.58,7.29c3.42,4.98 11.41,-7.44 10.58,-7.29z"></path></g></g></g></g></svg>