<svg xmlns="http://www.w3.org/2000/svg" viewBox="0 0 582 152.56"><defs><style>.cls-1{fill:#1a2b3c;}</style></defs><g id="Capa_2" data-name="Capa 2"><g id="Object"><path class="cls-1" d="M291.94,116.75c-24.87,31.33,0,35.81,0,35.81C317.3,146.09,291.94,116.75,291.94,116.75Zm-1.08,27.44a1.19,1.19,0,1,1,1.19,1.19A1.19,1.19,0,0,1,290.86,144.19Zm1.16-3.35c-7.47-14.3,0-16.35,0-16.35C299.64,127.44,292,140.84,292,140.84Z"/><path class="cls-1" d="M295.34,114.42a3.29,3.29,0,0,0-3.29-3.29h0a3.29,3.29,0,0,0-3.29,3.29h0a3.29,3.29,0,0,0,3.29,3.3h0a3.29,3.29,0,0,0,3.29-3.3Z"/><path class="cls-1" d="M300.77,101.75s-8.67,11.29-8.72,11.19c0,.1-8.72-11.19-8.72-11.19,2.85-1.33,8.71-11.26,8.72-11.24C292.14,90.34,297.93,100.42,300.77,101.75Z"/><path class="cls-1" d="M182.2,62.29l2.83.05c1.82,0,4.45,0,7.71-.07,6.5-.13,15.45-.78,25.25-.92,2.45-.07,4.84,0,7.15,0a65.54,65.54,0,0,1,6.59.4,107.58,107.58,0,0,1,11.13,1.77c1.57.34,3,.7,4.23,1s2.3.64,3.17.91l2.67.9L250.42,65c-.82-.39-1.85-.82-3-1.35s-2.59-1-4.15-1.52a77.19,77.19,0,0,0-11.18-2.78,53.56,53.56,0,0,0-6.81-.74c-2.35-.09-4.8-.21-7.29-.13a208.11,208.11,0,0,0-25.33,2.34Z"/><path class="cls-1" d="M103.8,12.2a21.89,21.89,0,0,1,3.62-4.94,23.45,23.45,0,0,1,4.19-3.38A25.27,25.27,0,0,1,116,1.65l1.14-.42a5.1,5.1,0,0,1,.59-.2l.59-.17c.4-.13.8-.21,1.21-.31l.6-.13.6-.1A25.09,25.09,0,0,1,125.53,0a32.13,32.13,0,0,1,4.64.5,35.34,35.34,0,0,1,8.51,2.76,34.58,34.58,0,0,1,3.8,2.06c.62.37,1.2.78,1.78,1.18.29.2.57.42.85.63s.57.42.83.65l.81.67.77.7.39.35.37.37.72.73.69.76.34.38.32.4.64.8.59.82c.2.27.38.55.56.84s.36.56.52.85c.32.58.66,1.15.93,1.76a21.7,21.7,0,0,1,1.35,3.65c.08.31.15.62.22.93l.1.47.07.47.14.94c0,.31.05.63.07.94l0,.47c0,.15,0,.31,0,.46,0,.31,0,.62,0,.93s-.06.61-.09.92l0,.45c0,.15-.05.3-.08.45s-.1.59-.16.88-.15.58-.22.87l-.12.42-.14.42-.3.82c-.12.27-.23.53-.35.79s-.11.26-.18.39l-.2.37-.41.74-.45.69-.23.34-.25.33-.49.63-.54.6-.26.29-.28.27-.57.53c-.19.17-.39.33-.59.49a14.16,14.16,0,0,1-1.2.88,14.61,14.61,0,0,1-5.08,2.13,13.59,13.59,0,0,1-4.76.19,13,13,0,0,1-3.81-1.12l-.4-.18-.37-.21-.7-.4c-.43-.29-.83-.56-1.19-.84l-.94-.8-.29-.3a5.46,5.46,0,1,1,2.74.49l.37.19.67.27.35.15.37.12a12,12,0,0,0,3.39.64,12.14,12.14,0,0,0,4-.46,12.91,12.91,0,0,0,4.12-2.05,10,10,0,0,0,1-.79l.46-.43.44-.46L149,35l.21-.25.41-.51.38-.54.19-.27.18-.29.34-.59.3-.61.15-.31a3.05,3.05,0,0,0,.13-.32c.09-.21.17-.43.26-.65l.21-.67.1-.34.08-.35.15-.7c0-.24.07-.48.1-.72s0-.24.05-.36l0-.37c0-.24,0-.49,0-.74s0-.49,0-.74,0-.25,0-.38l0-.38c0-.25,0-.5-.08-.76s-.09-.5-.14-.76l-.07-.38-.1-.38-.2-.77a22.66,22.66,0,0,0-8.06-11c-.24-.2-.5-.38-.75-.56L142,9.7c-.53-.34-1-.7-1.6-1A32.71,32.71,0,0,0,137,6.89a32.19,32.19,0,0,0-7.57-2.35,25.57,25.57,0,0,0-4-.39,20,20,0,0,0-4,.28l-.49.08-.49.11c-.32.07-.65.14-1,.24L119,5a3,3,0,0,0-.48.16l-1,.36a22.13,22.13,0,0,0-3.7,1.87,20,20,0,0,0-3.44,2.77,18.24,18.24,0,0,0-3,4,20,20,0,0,0-2,5.22c-.12.48-.18,1-.27,1.47s-.12,1-.19,1.51a25.51,25.51,0,0,0,0,3.16,26.84,26.84,0,0,0,.37,3.27,27.16,27.16,0,0,0,.83,3.31,28.13,28.13,0,0,0,1.26,3.29c.27.53.51,1.08.82,1.61.14.26.28.54.44.8l.48.78c.15.26.33.52.5.77s.34.51.53.77l1.17,1.55c.2.26.39.53.59.78l.63.76.63.76c.21.26.42.52.64.76.45.48.9,1,1.35,1.47s.94.94,1.42,1.41,1,.92,1.49,1.37l.76.67c.26.23.54.43.8.64l.81.63c.27.21.54.43.83.62l1.7,1.17,1.79,1.1c.29.19.61.35.92.52l.93.5a66.11,66.11,0,0,0,7.93,3.51c.68.27,1.39.5,2.09.75l1.05.37,1.06.34,2.14.68,2.17.65,2.19.62,2.2.61,2.19.55,1.1.27c.37.09.74.16,1.11.23l2.23.46c.75.14,1.5.25,2.25.38,1.5.27,3,.44,4.53.64.76.11,1.52.16,2.28.24s1.52.17,2.29.21c1.53.11,3.06.24,4.59.29,3.06.16,6.13.19,9.19.21s6.1,0,9.13-.12l9-.26c3-.09,5.94-.16,8.83-.23,5.79-.15,11.45-.37,16.88-.3,2.72,0,5.38.14,8,.33s5.1.52,7.52.91a52.07,52.07,0,0,1,13.11,4,29.66,29.66,0,0,1,5.21,3.07,14.63,14.63,0,0,1,3.74,4,8.45,8.45,0,0,1,1,2.31,8,8,0,0,1,.23,2.31c0,.19,0,.37,0,.56s-.06.35-.09.53a7.85,7.85,0,0,1-.25,1,8.25,8.25,0,0,1-.84,1.74,6.81,6.81,0,0,1-2.3,2.25,3.94,3.94,0,0,1-2.29.56,3.39,3.39,0,0,1-1.38-.43c-.15-.08-.24-.16-.31-.2s-.1-.08-.09-.09a2.86,2.86,0,0,1,.44.2,3.58,3.58,0,0,0,1.36.31,3.72,3.72,0,0,0,2.1-.64,6.44,6.44,0,0,0,2.07-2.21,7.06,7.06,0,0,0,.73-1.65,5.93,5.93,0,0,0,.2-1,4,4,0,0,0,.06-.5q0-.24,0-.51a7.75,7.75,0,0,0-.28-2.11,8.28,8.28,0,0,0-1-2.1A13.65,13.65,0,0,0,256.38,74a29.4,29.4,0,0,0-5.12-2.84,51.26,51.26,0,0,0-12.88-3.58c-2.38-.34-4.85-.6-7.4-.73s-5.17-.18-7.86-.15c-5.38.05-11,.39-16.81.65l-8.81.4c-3,.15-6,.31-9,.44s-6.1.23-9.19.3-6.2.06-9.32,0c-1.56,0-3.12-.13-4.68-.21-.79,0-1.57-.12-2.35-.17s-1.56-.12-2.34-.21c-1.56-.18-3.12-.33-4.67-.58-.78-.12-1.56-.22-2.33-.36l-2.31-.43-1.16-.22L149,66l-2.29-.52-2.24-.59c-.75-.19-1.49-.39-2.23-.6L140,63.67,137.8,63l-1.1-.33-1.09-.36c-.72-.25-1.45-.48-2.17-.74A70.82,70.82,0,0,1,125,58l-1-.53c-.34-.18-.68-.34-1-.54l-1.94-1.16-1.87-1.25c-.31-.2-.61-.42-.9-.65l-.89-.67c-.29-.23-.6-.44-.88-.69l-.84-.71c-.56-.48-1.12-.95-1.63-1.46s-1.06-1-1.56-1.51l-1.47-1.57c-.24-.25-.47-.52-.7-.79l-.68-.81-.68-.8c-.22-.26-.42-.54-.64-.81l-1.25-1.63c-.21-.28-.41-.58-.61-.86s-.41-.58-.59-.88l-.55-.88c-.18-.3-.34-.6-.52-.9-.35-.6-.63-1.22-.94-1.83a31.31,31.31,0,0,1-1.49-3.74,30.66,30.66,0,0,1-1-3.79,29.09,29.09,0,0,1-.46-3.78A25.27,25.27,0,0,1,103.8,12.2Z"/><path class="cls-1" d="M217.24,44.16a1.26,1.26,0,0,0-1,.42,2.82,2.82,0,0,0-.71,1.37,6.05,6.05,0,0,0,.94,4.62,10.17,10.17,0,0,0,2.8,2.77,19.45,19.45,0,0,0,4.28,2.19,28.62,28.62,0,0,0,3.82,1.14c1,.23,1.7.31,1.77.17s-.39-.62-1.16-1.32L225.1,53A25.61,25.61,0,0,1,222.27,50a15.74,15.74,0,0,1-1.5-2.19c-.57-.91-1.14-1.65-1.67-2.36A2.86,2.86,0,0,0,217.24,44.16Z"/><path class="cls-1" d="M231.68,45.44c-.54-.18-1.23.16-1.76,1.07a5,5,0,0,0-.26,3.91,8.38,8.38,0,0,0,1.63,2.85,16.75,16.75,0,0,0,3,2.7c2.1,1.49,4,2.46,4.2,2.29s-1.1-2-2.4-4a23,23,0,0,1-1.63-3,15.93,15.93,0,0,1-.72-2.09c-.25-.85-.54-1.57-.81-2.26A2.42,2.42,0,0,0,231.68,45.44Z"/><path class="cls-1" d="M198.74,42.44a1.41,1.41,0,0,0-1.05.54,2.84,2.84,0,0,0-.41.67,2.31,2.31,0,0,0-.27.9,6.72,6.72,0,0,0,1.4,5,11.35,11.35,0,0,0,3.31,2.84,21.38,21.38,0,0,0,4.89,2.07,31.67,31.67,0,0,0,4.31,1c1.14.17,1.89.21,2,.05s-.48-.66-1.39-1.37l-3.39-2.59a28.26,28.26,0,0,1-3.36-3,19.84,19.84,0,0,1-1.83-2.29c-.7-1-1.38-1.74-2-2.47A3.15,3.15,0,0,0,198.74,42.44Z"/><path class="cls-1" d="M308.31,42.68a31.27,31.27,0,0,0-3.24-8.08,39.45,39.45,0,0,0-2.25-3.54c-.41-.55-.85-1.08-1.27-1.61a17.92,17.92,0,0,0-1.33-1.54,36.23,36.23,0,0,0-5.87-5.2l-1.57-1.08-1.62-.95-.8-.47-.84-.41L287.87,19l-1.69-.66-.83-.32-.86-.25-1.69-.5-1.7-.35-.84-.17-.85-.1-1.68-.19c-.56,0-1.11,0-1.65-.07h-1.62a34.85,34.85,0,0,0-6.15.72,27.3,27.3,0,0,0-5.53,1.78A16.59,16.59,0,0,0,258.26,22a11.17,11.17,0,0,0-2.77,4.23c-.12.39-.25.76-.37,1.13s-.17.75-.24,1.12a18.18,18.18,0,0,0-.22,2.16,11.93,11.93,0,0,0,1.78,7.15,6.28,6.28,0,0,0,2.24,2,6.12,6.12,0,0,0,2.39.61,8.86,8.86,0,0,0,1.9-.16,4.13,4.13,0,1,0-.31-.19,8.17,8.17,0,0,1-1.56,0,5.5,5.5,0,0,1-2.15-.73,5.6,5.6,0,0,1-1.86-1.94A11,11,0,0,1,256,30.69a10.7,10.7,0,0,1,3.61-7.3A14.65,14.65,0,0,1,263.68,21a24.4,24.4,0,0,1,5.1-1.27,33,33,0,0,1,5.68-.31l1.47.09c.49,0,1,.09,1.48.16l1.48.26.74.13.74.19,1.49.4,1.48.53.74.27.72.33,1.47.67,1.42.79.72.39.69.46,1.4.93,1.33,1a32.45,32.45,0,0,1,4.94,4.87,15,15,0,0,1,1.09,1.4c.35.49.71,1,1,1.46a32.4,32.4,0,0,1,1.79,3.15,26.87,26.87,0,0,1,2.41,6.93,23.3,23.3,0,0,1,.37,7.45,24.52,24.52,0,0,1-6.74,13.85,52.41,52.41,0,0,1-14,10.35,86.54,86.54,0,0,1-8.43,3.9c-.72.29-1.46.59-2.2.85l-2.23.77c-.75.25-1.48.53-2.24.76l-2.3.63A96.36,96.36,0,0,1,246,85.58c-13.39.88-27.46-.52-41.74-3-3.59-.62-7.12-1.29-10.67-2L183,78.49l-10.48-2-10.35-1.94c-13.7-2.49-27-4.52-39.86-5.76l-4.78-.48L112.8,68c-3.13-.19-6.22-.44-9.26-.54-6.09-.23-12-.29-17.74-.18a197.76,197.76,0,0,0-31.77,3,111.2,111.2,0,0,0-25.25,7.56,71.67,71.67,0,0,0-9.57,5.08c-1.43.84-2.7,1.82-4,2.67-.61.45-1.19.92-1.75,1.36s-1.13.86-1.63,1.33a54.82,54.82,0,0,0-5.18,5c-.68.79-1.34,1.5-1.88,2.19s-1,1.34-1.45,1.91-.78,1.09-1.07,1.54l-.74,1.14c-.4.61-.6.93-.6.93l.68-.87.83-1.07a17.24,17.24,0,0,1,1.18-1.45l1.58-1.77c.59-.64,1.29-1.29,2-2a58.28,58.28,0,0,1,5.44-4.56c.52-.42,1.1-.78,1.68-1.18s1.18-.8,1.8-1.2c1.28-.75,2.57-1.6,4-2.33a72.84,72.84,0,0,1,9.59-4.3,112.76,112.76,0,0,1,24.91-5.88c1.15-.15,2.32-.29,3.51-.41a77.25,77.25,0,0,1,17.4,2.41,126.33,126.33,0,0,1,16,5.17c5.63,2.2,11.53,4.87,17.72,7.82s12.67,6.2,19.6,9.36c1.75.78,3.56,1.5,5.36,2.26l2.73,1.13,1.37.57,1.41.49,5.69,2,1.44.49c.48.16,1,.28,1.46.43l2.95.82,3,.81,1.47.4c.49.12,1,.22,1.48.32l5.91,1.24,1.46.3,1.48.22,2.93.42,2.91.41,1.44.21,1.45.11,5.72.46,1.42.1,1.41,0,2.8,0,2.77,0c.92,0,1.83,0,2.74,0l5.37-.25c.88-.06,1.76-.06,2.63-.16l2.59-.27,5.06-.56c1.66-.23,3.28-.53,4.88-.79l2.38-.4c.78-.14,1.56-.26,2.32-.45l4.5-1c1.47-.35,2.92-.63,4.31-1.06l4.09-1.17,2-.58,1-.28.94-.32,7.13-2.48L247,99.68c2-.76,3.7-1.61,5.33-2.36l4.44-2.07C262,92.56,264.86,91,264.86,91l-8.58,3-4.63,1.46c-1.7.53-3.51,1.16-5.52,1.67L239.76,99l-7.2,1.68a170.13,170.13,0,0,1-35.8,4.05l-5.12,0c-.87,0-1.73,0-2.6-.1l-2.63-.16-2.65-.16-1.34-.08-1.33-.15-5.41-.61-1.36-.15L173,103l-2.74-.47-2.76-.45-1.39-.23-1.38-.31-5.57-1.24-1.4-.31-1.39-.39-2.8-.78-2.8-.77c-.46-.13-.93-.24-1.39-.39L148,97.2l-5.43-1.8L141.19,95l-1.31-.52-2.62-1c-1.74-.69-3.47-1.32-5.19-2-6.85-2.88-13.49-5.85-19.94-8.48s-12.72-5-18.72-6.77A121,121,0,0,0,80.18,72.9c1.85,0,3.72,0,5.61,0q8.42.21,17.38.89c3,.2,6,.56,9.06.85l4.62.46,4.67.61c12.52,1.6,25.61,3.92,39.16,6.61l20.69,4.23L192,88.77c3.57.73,7.22,1.43,10.88,2.07,14.68,2.53,29.44,3.9,43.76,2.72a101.17,101.17,0,0,0,20.84-3.84L270,89c.83-.27,1.63-.6,2.44-.89l2.42-.91c.8-.31,1.58-.64,2.35-1a90.08,90.08,0,0,0,9-4.5A57.68,57.68,0,0,0,301.55,69.4a34,34,0,0,0,5.27-8.25,27.75,27.75,0,0,0,2.35-9.33A28.81,28.81,0,0,0,308.31,42.68Z"/><path class="cls-1" d="M5.52,141.76c-1.65.06-3.25-1.9-4.31-5.23a32.51,32.51,0,0,1-.94-13.2,57.32,57.32,0,0,1,2.84-11.41,52.86,52.86,0,0,1,7.43-14,36.26,36.26,0,0,1,5.21-5.56A28.6,28.6,0,0,1,21,88.77c3.21-1.65,5.45-2,5.6-1.68S25,88.78,22.84,91.21a35.1,35.1,0,0,0-3.3,4.44,39.57,39.57,0,0,0-2.89,5.79,58.71,58.71,0,0,0-3.33,13.11c-.6,4.22-.84,7.94-1.11,10.22a57,57,0,0,1-2.5,11.83C8.6,139.7,7.18,141.71,5.52,141.76Z"/><path class="cls-1" d="M22.94,126.77a2.93,2.93,0,0,1-2.49-.92,7.15,7.15,0,0,1-1.16-1.45,11.52,11.52,0,0,1-1-2,23,23,0,0,1-.67-11.91,41.87,41.87,0,0,1,3.39-9.83,38.55,38.55,0,0,1,8.21-11.52,21.36,21.36,0,0,1,5.82-3.88,15.23,15.23,0,0,1,5.66-1.3,11.52,11.52,0,0,1,3.79.58c.84.33,1.27.6,1.24.79,0,.38-2,.54-4.39,1.65a14,14,0,0,0-3.58,2.55,18,18,0,0,0-3.09,4.14A39.57,39.57,0,0,0,31,104.22c-.77,3.49-1.15,6.58-1.5,8.46a49.28,49.28,0,0,1-2.65,9.57A15.87,15.87,0,0,1,26,124a8.91,8.91,0,0,1-.9,1.36A3.68,3.68,0,0,1,22.94,126.77Z"/><path class="cls-1" d="M42.06,110.53a4.86,4.86,0,0,1-3.85-3.14,11.41,11.41,0,0,1-.54-7.08,24.62,24.62,0,0,1,2.38-5.85,26.08,26.08,0,0,1,5.47-7A14.16,14.16,0,0,1,49.29,85a10.13,10.13,0,0,1,3.63-.85c2.13,0,3.24.68,3.24,1S55,86,53.88,87A10.28,10.28,0,0,0,51,91.61c-1.33,3.93-1.42,9.06-1.9,11.24a12.64,12.64,0,0,1-2.68,5.55A5.4,5.4,0,0,1,42.06,110.53Z"/><path class="cls-1" d="M399.8,62.29l-2.83.05c-1.82,0-4.45,0-7.71-.07-6.5-.13-15.45-.78-25.25-.92-2.45-.07-4.84,0-7.15,0a65.54,65.54,0,0,0-6.59.4,107.58,107.58,0,0,0-11.13,1.77c-1.57.34-3,.7-4.23,1s-2.3.64-3.17.91l-2.67.9L331.58,65c.82-.39,1.85-.82,3-1.35s2.59-1,4.15-1.52A77.19,77.19,0,0,1,350,59.38a53.56,53.56,0,0,1,6.81-.74c2.35-.09,4.8-.21,7.29-.13a208.11,208.11,0,0,1,25.33,2.34Z"/><path class="cls-1" d="M478.2,12.2a21.89,21.89,0,0,0-3.62-4.94,23.45,23.45,0,0,0-4.19-3.38A25.27,25.27,0,0,0,466,1.65l-1.14-.42a5.1,5.1,0,0,0-.59-.2l-.59-.17c-.4-.13-.8-.21-1.21-.31l-.6-.13-.6-.1A25.09,25.09,0,0,0,456.47,0a32.13,32.13,0,0,0-4.64.5,35.34,35.34,0,0,0-8.51,2.76,34.58,34.58,0,0,0-3.8,2.06c-.62.37-1.2.78-1.78,1.18-.29.2-.57.42-.85.63s-.57.42-.83.65l-.81.67-.77.7-.39.35-.37.37-.72.73-.69.76-.34.38-.32.4L431,13l-.59.82c-.2.27-.38.55-.56.84s-.36.56-.52.85c-.32.58-.66,1.15-.93,1.76a21.7,21.7,0,0,0-1.35,3.65c-.07.31-.15.62-.22.93l-.1.47-.07.47-.14.94c0,.31,0,.63-.07.94l0,.47c0,.15,0,.31,0,.46,0,.31,0,.62,0,.93s.06.61.09.92l0,.45c0,.15.05.3.08.45s.1.59.16.88.15.58.22.87l.12.42.14.42.3.82c.12.27.23.53.35.79s.11.26.18.39l.2.37.41.74.45.69.23.34.25.33.49.63.54.6.26.29.28.27.57.53c.19.17.39.33.59.49a14.16,14.16,0,0,0,1.2.88,14.61,14.61,0,0,0,5.08,2.13,13.59,13.59,0,0,0,4.76.19,13,13,0,0,0,3.81-1.12l.4-.18.37-.21.7-.4c.43-.29.83-.56,1.19-.84l.94-.8.29-.3a5.46,5.46,0,1,0-2.74.49l-.37.19-.67.27-.35.15-.37.12a12,12,0,0,1-3.39.64,12.14,12.14,0,0,1-4-.46,12.91,12.91,0,0,1-4.12-2.05,10,10,0,0,1-1-.79l-.46-.43-.44-.46L433,35l-.21-.25-.41-.51-.38-.54-.19-.27-.18-.29-.34-.59-.3-.61-.15-.31a3.05,3.05,0,0,1-.13-.32c-.09-.21-.17-.43-.26-.65l-.21-.67-.1-.34-.08-.35-.15-.7c0-.24-.07-.48-.1-.72s0-.24,0-.36l0-.37c0-.24,0-.49,0-.74s0-.49,0-.74,0-.25,0-.38l0-.38c0-.25.05-.5.08-.76s.09-.5.14-.76l.07-.38.1-.38c.07-.26.14-.52.2-.77a22.66,22.66,0,0,1,8.06-11c.24-.2.5-.38.75-.56L440,9.7c.53-.34,1.05-.7,1.6-1A32.71,32.71,0,0,1,445,6.89a32.19,32.19,0,0,1,7.57-2.35,25.57,25.57,0,0,1,4-.39,20,20,0,0,1,4,.28l.49.08.49.11c.32.07.65.14,1,.24L463,5a3,3,0,0,1,.48.16l1,.36a22.13,22.13,0,0,1,3.7,1.87,20,20,0,0,1,3.44,2.77,18.24,18.24,0,0,1,3,4,20,20,0,0,1,1.95,5.22c.12.48.18,1,.27,1.47s.12,1,.19,1.51a25.51,25.51,0,0,1,0,3.16,26.84,26.84,0,0,1-.37,3.27,27.16,27.16,0,0,1-.83,3.31,28.13,28.13,0,0,1-1.26,3.29c-.27.53-.51,1.08-.82,1.61-.14.26-.28.54-.44.8l-.48.78c-.15.26-.33.52-.5.77s-.34.51-.53.77l-1.17,1.55c-.2.26-.39.53-.59.78l-.63.76-.63.76c-.21.26-.42.52-.64.76l-1.35,1.47c-.45.48-.94.94-1.42,1.41s-1,.92-1.49,1.37l-.76.67c-.26.23-.54.43-.8.64l-.81.63c-.27.21-.54.43-.83.62L459,52.73l-1.79,1.1c-.29.19-.61.35-.92.52l-.93.5a66.11,66.11,0,0,1-7.93,3.51c-.68.27-1.39.5-2.09.75l-1.05.37-1.06.34-2.14.68-2.17.65-2.19.62-2.2.61-2.19.55-1.1.27c-.37.09-.74.16-1.11.23l-2.23.46c-.75.14-1.5.25-2.25.38-1.5.27-3,.44-4.53.64-.76.11-1.52.16-2.28.24s-1.52.17-2.29.21c-1.53.11-3.06.24-4.59.29-3.06.16-6.13.19-9.19.21s-6.1,0-9.13-.12l-9-.26c-3-.09-5.94-.16-8.83-.23-5.79-.15-11.45-.37-16.88-.3-2.72,0-5.38.14-8,.33s-5.1.52-7.52.91a52.07,52.07,0,0,0-13.11,4,29.66,29.66,0,0,0-5.21,3.07,14.63,14.63,0,0,0-3.74,4,8.45,8.45,0,0,0-1,2.31,8,8,0,0,0-.23,2.31l0,.56c0,.18.06.35.09.53a7.85,7.85,0,0,0,.25,1,8.25,8.25,0,0,0,.84,1.74,6.81,6.81,0,0,0,2.3,2.25,3.94,3.94,0,0,0,2.29.56,3.39,3.39,0,0,0,1.38-.43c.15-.08.24-.16.31-.2s.1-.08.09-.09a2.86,2.86,0,0,0-.44.2,3.57,3.57,0,0,1-1.35.31,3.73,3.73,0,0,1-2.11-.64,6.44,6.44,0,0,1-2.07-2.21,7.06,7.06,0,0,1-.73-1.65,5.93,5.93,0,0,1-.2-1,4,4,0,0,1-.06-.5l0-.51a7.75,7.75,0,0,1,.28-2.11,8.28,8.28,0,0,1,1-2.1A13.65,13.65,0,0,1,325.62,74a29.4,29.4,0,0,1,5.12-2.84,51.26,51.26,0,0,1,12.88-3.58c2.38-.34,4.85-.6,7.4-.73s5.17-.18,7.86-.15c5.38.05,11,.39,16.81.65l8.81.4c3,.15,6,.31,9,.44s6.1.23,9.19.3,6.2.06,9.32,0c1.56,0,3.12-.13,4.68-.21.79,0,1.57-.12,2.35-.17s1.56-.12,2.34-.21c1.56-.18,3.12-.33,4.67-.58.78-.12,1.56-.22,2.33-.36l2.31-.43,1.16-.22L433,66l2.29-.52,2.24-.59c.75-.19,1.49-.39,2.23-.6l2.22-.62L444.2,63l1.1-.33,1.09-.36c.72-.25,1.45-.48,2.17-.74A70.82,70.82,0,0,0,457,58l1-.53c.34-.18.68-.34,1-.54l1.94-1.16,1.87-1.25c.31-.2.61-.42.9-.65l.89-.67c.29-.23.6-.44.88-.69l.84-.71c.56-.48,1.12-.95,1.63-1.46s1.06-1,1.56-1.51l1.47-1.57c.24-.25.47-.52.7-.79l.68-.81c.23-.26.45-.53.68-.8s.42-.54.64-.81l1.25-1.63c.21-.28.41-.58.61-.86s.41-.58.59-.88l.55-.88c.18-.3.34-.6.52-.9.35-.6.63-1.22.94-1.83a31.31,31.31,0,0,0,1.49-3.74,30.66,30.66,0,0,0,1-3.79,29.09,29.09,0,0,0,.46-3.78A25.27,25.27,0,0,0,478.2,12.2Z"/><path class="cls-1" d="M364.76,44.16a1.26,1.26,0,0,1,1,.42,2.82,2.82,0,0,1,.71,1.37,6.05,6.05,0,0,1-.94,4.62,10.17,10.17,0,0,1-2.8,2.77,19.45,19.45,0,0,1-4.28,2.19,28.62,28.62,0,0,1-3.82,1.14c-1,.23-1.7.31-1.77.17s.39-.62,1.16-1.32L356.9,53A25.61,25.61,0,0,0,359.73,50a15.74,15.74,0,0,0,1.5-2.19c.57-.91,1.14-1.65,1.67-2.36A2.86,2.86,0,0,1,364.76,44.16Z"/><path class="cls-1" d="M350.32,45.44c.54-.18,1.24.16,1.76,1.07a5,5,0,0,1,.26,3.91,8.38,8.38,0,0,1-1.63,2.85,16.75,16.75,0,0,1-2.95,2.7c-2.1,1.49-4,2.46-4.2,2.29s1.1-2,2.4-4a21.9,21.9,0,0,0,1.63-3,15.93,15.93,0,0,0,.72-2.09c.25-.85.54-1.57.81-2.26A2.42,2.42,0,0,1,350.32,45.44Z"/><path class="cls-1" d="M383.26,42.44a1.41,1.41,0,0,1,1.05.54,2.84,2.84,0,0,1,.41.67,2.31,2.31,0,0,1,.27.9,6.72,6.72,0,0,1-1.4,5,11.35,11.35,0,0,1-3.31,2.84,21.38,21.38,0,0,1-4.89,2.07,31.67,31.67,0,0,1-4.31,1c-1.14.17-1.89.21-2,.05s.48-.66,1.39-1.37l3.39-2.59a28.26,28.26,0,0,0,3.36-3,19.84,19.84,0,0,0,1.83-2.29c.7-1,1.38-1.74,2-2.47A3.15,3.15,0,0,1,383.26,42.44Z"/><path class="cls-1" d="M273.69,42.68a31.27,31.27,0,0,1,3.24-8.08,39.45,39.45,0,0,1,2.25-3.54c.41-.55.85-1.08,1.27-1.61a17.92,17.92,0,0,1,1.33-1.54,36.23,36.23,0,0,1,5.87-5.2l1.57-1.08,1.62-.95.8-.47.84-.41,1.65-.79,1.69-.66.83-.32.86-.25,1.69-.5,1.7-.35.84-.17.85-.1,1.68-.19c.56,0,1.11,0,1.65-.07h1.62a34.85,34.85,0,0,1,6.15.72,27.3,27.3,0,0,1,5.53,1.78A16.79,16.79,0,0,1,323.75,22a11.26,11.26,0,0,1,2.76,4.23c.12.39.25.76.37,1.13s.17.75.24,1.12a18.18,18.18,0,0,1,.22,2.16,11.93,11.93,0,0,1-1.78,7.15,6.28,6.28,0,0,1-2.24,2,6.12,6.12,0,0,1-2.39.61,8.86,8.86,0,0,1-1.9-.16,4.13,4.13,0,1,1,.31-.19,8.17,8.17,0,0,0,1.56,0,5.5,5.5,0,0,0,2.15-.73,5.6,5.6,0,0,0,1.86-1.94A11,11,0,0,0,326,30.69a10.7,10.7,0,0,0-3.61-7.3A14.65,14.65,0,0,0,318.32,21a24.4,24.4,0,0,0-5.1-1.27,33,33,0,0,0-5.68-.31l-1.47.09c-.49,0-1,.09-1.48.16l-1.48.26-.74.13-.74.19-1.49.4-1.48.53-.74.27-.72.33-1.47.67-1.42.79-.72.39-.69.46-1.4.93-1.33,1a32.45,32.45,0,0,0-4.94,4.87,15,15,0,0,0-1.09,1.4c-.35.49-.71,1-1,1.46a32.4,32.4,0,0,0-1.79,3.15,26.87,26.87,0,0,0-2.41,6.93,23.3,23.3,0,0,0-.37,7.45,24.52,24.52,0,0,0,6.74,13.85,52.41,52.41,0,0,0,14,10.35,86.54,86.54,0,0,0,8.43,3.9c.72.29,1.46.59,2.2.85l2.23.77c.75.25,1.48.53,2.24.76l2.3.63A96.36,96.36,0,0,0,336,85.58c13.39.88,27.46-.52,41.74-3,3.59-.62,7.12-1.29,10.67-2L399,78.49l10.48-2,10.35-1.94c13.7-2.49,27.05-4.52,39.86-5.76l4.78-.48L469.2,68c3.13-.19,6.22-.44,9.26-.54,6.09-.23,12-.29,17.74-.18a197.76,197.76,0,0,1,31.77,3,111.2,111.2,0,0,1,25.25,7.56,71.67,71.67,0,0,1,9.57,5.08c1.43.84,2.7,1.82,4,2.67.61.45,1.19.92,1.75,1.36s1.13.86,1.63,1.33a54.82,54.82,0,0,1,5.18,5c.68.79,1.34,1.5,1.88,2.19s1,1.34,1.45,1.91.78,1.09,1.07,1.54l.74,1.14.6.93-.68-.87-.83-1.07a17.24,17.24,0,0,0-1.18-1.45l-1.58-1.77c-.59-.64-1.29-1.29-2-2a58.28,58.28,0,0,0-5.44-4.56c-.52-.42-1.1-.78-1.68-1.18s-1.18-.8-1.8-1.2c-1.28-.75-2.57-1.6-4-2.33a72.84,72.84,0,0,0-9.59-4.3,112.76,112.76,0,0,0-24.91-5.88c-1.15-.15-2.32-.29-3.51-.41a77.25,77.25,0,0,0-17.4,2.41,126.33,126.33,0,0,0-15.95,5.17c-5.63,2.2-11.53,4.87-17.72,7.82s-12.67,6.2-19.6,9.36c-1.75.78-3.56,1.5-5.36,2.26L445,102.12l-1.37.57-1.41.49-5.69,2-1.44.49c-.48.16-1,.28-1.46.43l-2.95.82-3,.81-1.47.4c-.49.12-1,.22-1.48.32l-5.91,1.24-1.46.3-1.48.22-2.93.42-2.91.41-1.44.21-1.45.11-5.72.46-1.42.1-1.41,0-2.8,0-2.77,0c-.92,0-1.83,0-2.74,0l-5.37-.25c-.88-.06-1.76-.06-2.63-.16l-2.59-.27-5.06-.56c-1.66-.23-3.28-.53-4.88-.79l-2.38-.4c-.78-.14-1.56-.26-2.32-.45l-4.5-1c-1.47-.35-2.92-.63-4.31-1.06l-4.09-1.17-2-.58-1-.28-.94-.32-7.13-2.48L335,99.68c-1.95-.76-3.7-1.61-5.33-2.36l-4.44-2.07C320,92.56,317.15,91,317.15,91l8.57,3,4.63,1.46c1.7.53,3.51,1.16,5.52,1.67L342.24,99l7.2,1.68a170.13,170.13,0,0,0,35.8,4.05l5.12,0c.87,0,1.73,0,2.6-.1l2.63-.16,2.65-.16,1.34-.08,1.33-.15,5.41-.61,1.36-.15,1.37-.23,2.74-.47,2.76-.45,1.39-.23,1.38-.31,5.57-1.24,1.4-.31,1.39-.39,2.8-.78,2.8-.77c.46-.13.93-.24,1.39-.39L434,97.2l5.43-1.8,1.35-.44,1.31-.52,2.62-1c1.74-.69,3.47-1.32,5.19-2,6.85-2.88,13.49-5.85,19.94-8.48s12.72-5,18.72-6.77a121,121,0,0,1,13.23-3.25c-1.85,0-3.71,0-5.61,0q-8.41.21-17.38.89c-3,.2-6,.56-9.06.85l-4.62.46-4.67.61c-12.52,1.6-25.61,3.92-39.16,6.61L400.63,86.6,390,88.77c-3.57.73-7.22,1.43-10.88,2.07-14.68,2.53-29.44,3.9-43.76,2.72a101.17,101.17,0,0,1-20.84-3.84L312.05,89c-.83-.27-1.63-.6-2.44-.89l-2.42-.91c-.8-.31-1.58-.64-2.35-1a90.08,90.08,0,0,1-9-4.5A57.68,57.68,0,0,1,280.45,69.4a34,34,0,0,1-5.27-8.25,27.75,27.75,0,0,1-2.35-9.33A28.81,28.81,0,0,1,273.69,42.68Z"/><path class="cls-1" d="M576.48,141.76c1.65.06,3.25-1.9,4.31-5.23a32.51,32.51,0,0,0,.94-13.2,57.32,57.32,0,0,0-2.84-11.41,52.86,52.86,0,0,0-7.43-14,36.26,36.26,0,0,0-5.21-5.56,28.6,28.6,0,0,0-5.2-3.54c-3.21-1.65-5.45-2-5.6-1.68s1.57,1.69,3.71,4.12a35.1,35.1,0,0,1,3.3,4.44,39.57,39.57,0,0,1,2.89,5.79,58.71,58.71,0,0,1,3.33,13.11c.6,4.22.84,7.94,1.11,10.22a57,57,0,0,0,2.5,11.83C573.4,139.7,574.82,141.71,576.48,141.76Z"/><path class="cls-1" d="M559.06,126.77a2.93,2.93,0,0,0,2.49-.92,7.15,7.15,0,0,0,1.16-1.45,11.52,11.52,0,0,0,1-2,23,23,0,0,0,.67-11.91,41.87,41.87,0,0,0-3.39-9.83,38.55,38.55,0,0,0-8.21-11.52,21.36,21.36,0,0,0-5.82-3.88,15.23,15.23,0,0,0-5.66-1.3,11.52,11.52,0,0,0-3.79.58c-.84.33-1.27.6-1.24.79,0,.38,2,.54,4.39,1.65a14,14,0,0,1,3.58,2.55,18,18,0,0,1,3.09,4.14A39.57,39.57,0,0,1,551,104.22c.77,3.49,1.15,6.58,1.5,8.46a49.28,49.28,0,0,0,2.65,9.57A15.87,15.87,0,0,0,556,124a8.91,8.91,0,0,0,.9,1.36A3.68,3.68,0,0,0,559.06,126.77Z"/><path class="cls-1" d="M539.94,110.53a4.86,4.86,0,0,0,3.85-3.14,11.41,11.41,0,0,0,.54-7.08A24.62,24.62,0,0,0,542,94.46a26.23,26.23,0,0,0-5.46-7A14.37,14.37,0,0,0,532.71,85a10.13,10.13,0,0,0-3.63-.85c-2.13,0-3.24.68-3.24,1S527,86,528.12,87A10.28,10.28,0,0,1,531,91.61c1.33,3.93,1.42,9.06,1.9,11.24a12.64,12.64,0,0,0,2.68,5.55A5.4,5.4,0,0,0,539.94,110.53Z"/></g></g></svg>