<svg version="1.1" xmlns="http://www.w3.org/2000/svg" xmlns:xlink="http://www.w3.org/1999/xlink" width="582px" height="152.56px" viewBox="0,0,256,67.1"><g fill="#e6c27a" fill-rule="nonzero" stroke="none" stroke-width="1" stroke-linecap="butt" stroke-linejoin="miter" stroke-miterlimit="10" stroke-dasharray="" stroke-dashoffset="0" font-family="none" font-weight="none" font-size="none" text-anchor="none" style="mix-blend-mode: normal"><g transform="translate(0,-0.00032) scale(0.43986,0.43986)"><g id="Capa_2"><g id="Object"><path d="M291.94,116.75c-24.87,31.33 0,35.81 0,35.81c25.36,-6.47 0,-35.81 0,-35.81zM290.86,144.19c0,-0.65722 0.53278,-1.19 1.19,-1.19c0.65722,0 1.19,0.53278 1.19,1.19c0,0.65722 -0.53278,1.19 -1.19,1.19c-0.65722,0 -1.19,-0.53278 -1.19,-1.19zM292.02,140.84c-7.47,-14.3 0,-16.35 0,-16.35c7.62,2.95 -0.02,16.35 -0.02,16.35z"></path><path d="M295.34,114.42c0,-1.81702 -1.47298,-3.29 -3.29,-3.29v0c-1.81702,0 -3.29,1.47298 -3.29,3.29v0c-0.00266,0.87429 0.34279,1.71369 0.96008,2.33285c0.61728,0.61916 1.45563,0.96716 2.32992,0.96715v0c0.8743,0 1.71264,-0.34799 2.32992,-0.96715c0.61728,-0.61916 0.96273,-1.45855 0.96008,-2.33285z"></path><path d="M300.77,101.75c0,0 -8.67,11.29 -8.72,11.19c0,0.1 -8.72,-11.19 -8.72,-11.19c2.85,-1.33 8.71,-11.26 8.72,-11.24c0.09,-0.17 5.88,9.91 8.72,11.24z"></path><path d="M182.2,62.29l2.83,0.05c1.82,0 4.45,0 7.71,-0.07c6.5,-0.13 15.45,-0.78 25.25,-0.92c2.45,-0.07 4.84,0 7.15,0c2.20199,0.02254 4.40145,0.15604 6.59,0.4c3.73838,0.39514 7.45347,0.98595 11.13,1.77c1.57,0.34 3,0.7 4.23,1c1.23,0.3 2.3,0.64 3.17,0.91l2.67,0.9l-2.51,-1.33c-0.82,-0.39 -1.85,-0.82 -3,-1.35c-1.15,-0.53 -2.59,-1 -4.15,-1.52c-3.65222,-1.20386 -7.38929,-2.13311 -11.18,-2.78c-2.25188,-0.39172 -4.52654,-0.6389 -6.81,-0.74c-2.35,-0.09 -4.8,-0.21 -7.29,-0.13c-8.48315,0.26276 -16.94228,1.04422 -25.33,2.34z"></path><path d="M103.8,12.2c0.96921,-1.80817 2.18781,-3.4711 3.62,-4.94c1.26228,-1.28378 2.66821,-2.41792 4.19,-3.38c1.38725,-0.88447 2.85756,-1.63135 4.39,-2.23l1.14,-0.42c0.19241,-0.07863 0.38944,-0.14542 0.59,-0.2l0.59,-0.17c0.4,-0.13 0.8,-0.21 1.21,-0.31l0.6,-0.13l0.6,-0.1c1.58606,-0.26016 3.19344,-0.36732 4.8,-0.32c1.55674,0.05397 3.1075,0.22108 4.64,0.5c2.94213,0.55578 5.80171,1.48321 8.51,2.76c1.30839,0.60675 2.57753,1.29476 3.8,2.06c0.62,0.37 1.2,0.78 1.78,1.18c0.29,0.2 0.57,0.42 0.85,0.63c0.28,0.21 0.57,0.42 0.83,0.65l0.81,0.67l0.77,0.7l0.39,0.35l0.37,0.37l0.72,0.73l0.69,0.76l0.34,0.38l0.32,0.4l0.64,0.8l0.59,0.82c0.2,0.27 0.38,0.55 0.56,0.84c0.18,0.29 0.36,0.56 0.52,0.85c0.32,0.58 0.66,1.15 0.93,1.76c0.55841,1.17378 1.01023,2.39536 1.35,3.65c0.08,0.31 0.15,0.62 0.22,0.93l0.1,0.47l0.07,0.47l0.14,0.94c0,0.31 0.05,0.63 0.07,0.94v0.47c0,0.15 0,0.31 0,0.46c0,0.31 0,0.62 0,0.93c0,0.31 -0.06,0.61 -0.09,0.92v0.45c0,0.15 -0.05,0.3 -0.08,0.45c-0.03,0.15 -0.1,0.59 -0.16,0.88c-0.06,0.29 -0.15,0.58 -0.22,0.87l-0.12,0.42l-0.14,0.42l-0.3,0.82c-0.12,0.27 -0.23,0.53 -0.35,0.79c-0.12,0.26 -0.11,0.26 -0.18,0.39l-0.2,0.37l-0.41,0.74l-0.45,0.69l-0.23,0.34l-0.25,0.33l-0.49,0.63l-0.54,0.6l-0.26,0.29l-0.28,0.27l-0.57,0.53c-0.19,0.17 -0.39,0.33 -0.59,0.49c-0.3843,0.31416 -0.78485,0.6079 -1.2,0.88c-1.54296,1.02569 -3.26693,1.74853 -5.08,2.13c-1.5631,0.3431 -3.17452,0.40742 -4.76,0.19c-1.31986,-0.17601 -2.60485,-0.55375 -3.81,-1.12l-0.4,-0.18l-0.37,-0.21l-0.7,-0.4c-0.43,-0.29 -0.83,-0.56 -1.19,-0.84l-0.94,-0.8l-0.29,-0.3c-2.48899,-1.1557 -3.73346,-3.97925 -2.90721,-6.59613c0.82625,-2.61688 3.46645,-4.21389 6.16781,-3.7308c2.70136,0.48309 4.62443,2.89617 4.49251,5.63721c-0.13192,2.74104 -2.27785,4.95828 -5.01311,5.17972l0.37,0.19l0.67,0.27l0.35,0.15l0.37,0.12c1.09328,0.3755 2.23507,0.59106 3.39,0.64c1.34964,0.07038 2.70157,-0.08509 4,-0.46c1.48502,-0.43108 2.88052,-1.12544 4.12,-2.05c0.34979,-0.2418 0.6838,-0.50567 1,-0.79l0.46,-0.43l0.44,-0.46l0.2,-0.18l0.21,-0.25l0.41,-0.51l0.38,-0.54l0.19,-0.27l0.18,-0.29l0.34,-0.59l0.3,-0.61l0.15,-0.31c0.04934,-0.10413 0.09275,-0.21096 0.13,-0.32c0.09,-0.21 0.17,-0.43 0.26,-0.65l0.21,-0.67l0.1,-0.34l0.08,-0.35l0.15,-0.7c0,-0.24 0.07,-0.48 0.1,-0.72c0.03,-0.24 0,-0.24 0.05,-0.36v-0.37c0,-0.24 0,-0.49 0,-0.74c0,-0.25 0,-0.49 0,-0.74c0,-0.25 0,-0.25 0,-0.38v-0.38c0,-0.25 0,-0.5 -0.08,-0.76c-0.08,-0.26 -0.09,-0.5 -0.14,-0.76l-0.07,-0.38l-0.1,-0.38l-0.2,-0.77c-1.49346,-4.40728 -4.30759,-8.24791 -8.06,-11c-0.24,-0.2 -0.5,-0.38 -0.75,-0.56l-0.84,-0.6c-0.53,-0.34 -1,-0.7 -1.6,-1c-1.0968,-0.6696 -2.2321,-1.27398 -3.4,-1.81c-2.41689,-1.0922 -4.95949,-1.88151 -7.57,-2.35c-1.32104,-0.23474 -2.6585,-0.36515 -4,-0.39c-1.33935,-0.0409 -2.67941,0.05291 -4,0.28l-0.49,0.08l-0.49,0.11c-0.32,0.07 -0.65,0.14 -1,0.24l-0.45,0.14c-0.16422,0.03972 -0.32479,0.09325 -0.48,0.16l-1,0.36c-1.28913,0.50618 -2.5279,1.13226 -3.7,1.87c-1.24541,0.7935 -2.39911,1.7225 -3.44,2.77c-1.17887,1.1893 -2.18836,2.53528 -3,4c-0.90774,1.63779 -1.58099,3.39495 -2,5.22c-0.12,0.48 -0.18,1 -0.27,1.47c-0.09,0.47 -0.12,1 -0.19,1.51c-0.0653,1.05232 -0.0653,2.10768 0,3.16c0.05633,1.09654 0.1799,2.18859 0.37,3.27c0.20701,1.11964 0.48422,2.22516 0.83,3.31c0.35085,1.12192 0.77167,2.22074 1.26,3.29c0.27,0.53 0.51,1.08 0.82,1.61c0.14,0.26 0.28,0.54 0.44,0.8l0.48,0.78c0.15,0.26 0.33,0.52 0.5,0.77c0.17,0.25 0.34,0.51 0.53,0.77l1.17,1.55c0.2,0.26 0.39,0.53 0.59,0.78l0.63,0.76l0.63,0.76c0.21,0.26 0.42,0.52 0.64,0.76c0.45,0.48 0.9,1 1.35,1.47c0.45,0.47 0.94,0.94 1.42,1.41c0.48,0.47 1,0.92 1.49,1.37l0.76,0.67c0.26,0.23 0.54,0.43 0.8,0.64l0.81,0.63c0.27,0.21 0.54,0.43 0.83,0.62l1.7,1.17l1.79,1.1c0.29,0.19 0.61,0.35 0.92,0.52l0.93,0.5c2.56366,1.3423 5.21269,2.51482 7.93,3.51c0.68,0.27 1.39,0.5 2.09,0.75l1.05,0.37l1.06,0.34l2.14,0.68l2.17,0.65l2.19,0.62l2.2,0.61l2.19,0.55l1.1,0.27c0.37,0.09 0.74,0.16 1.11,0.23l2.23,0.46c0.75,0.14 1.5,0.25 2.25,0.38c1.5,0.27 3,0.44 4.53,0.64c0.76,0.11 1.52,0.16 2.28,0.24c0.76,0.08 1.52,0.17 2.29,0.21c1.53,0.11 3.06,0.24 4.59,0.29c3.06,0.16 6.13,0.19 9.19,0.21c3.06,0.02 6.1,0 9.13,-0.12l9,-0.26c3,-0.09 5.94,-0.16 8.83,-0.23c5.79,-0.15 11.45,-0.37 16.88,-0.3c2.72,0 5.38,0.14 8,0.33c2.62,0.19 5.1,0.52 7.52,0.91c4.52717,0.74983 8.93535,2.09481 13.11,4c1.83672,0.84316 3.58246,1.87184 5.21,3.07c1.48732,1.08605 2.75621,2.44315 3.74,4c0.44679,0.71575 0.78387,1.49439 1,2.31c0.18857,0.75472 0.26605,1.53291 0.23,2.31c0,0.19 0,0.37 0,0.56c0,0.19 -0.06,0.35 -0.09,0.53c-0.06133,0.33845 -0.14485,0.6725 -0.25,1c-0.21088,0.6109 -0.49281,1.1949 -0.84,1.74c-0.57594,0.92295 -1.36462,1.69448 -2.3,2.25c-0.68829,0.41601 -1.4874,0.61143 -2.29,0.56c-0.48556,-0.04246 -0.95626,-0.18912 -1.38,-0.43c-0.15,-0.08 -0.24,-0.16 -0.31,-0.2c-0.07,-0.04 -0.1,-0.08 -0.09,-0.09c0.15205,0.05413 0.29924,0.12104 0.44,0.2c0.42862,0.1915 0.89073,0.29684 1.36,0.31c0.74844,0.00278 1.48032,-0.22027 2.1,-0.64c0.85584,-0.56167 1.56546,-1.31928 2.07,-2.21c0.3129,-0.51651 0.55824,-1.07104 0.73,-1.65c0.09526,-0.32697 0.16217,-0.66154 0.2,-1c0.03048,-0.16524 0.05052,-0.33224 0.06,-0.5c0,-0.16 0,-0.33 0,-0.51c0.00415,-0.71286 -0.09007,-1.42289 -0.28,-2.11c-0.23286,-0.74356 -0.56952,-1.45054 -1,-2.1c-0.96653,-1.40437 -2.18759,-2.61525 -3.6,-3.57c-1.60792,-1.11467 -3.32309,-2.06605 -5.12,-2.84c-4.11865,-1.75045 -8.4488,-2.95402 -12.88,-3.58c-2.38,-0.34 -4.85,-0.6 -7.4,-0.73c-2.55,-0.13 -5.17,-0.18 -7.86,-0.15c-5.38,0.05 -11,0.39 -16.81,0.65l-8.81,0.4c-3,0.15 -6,0.31 -9,0.44c-3,0.13 -6.1,0.23 -9.19,0.3c-3.09,0.07 -6.2,0.06 -9.32,0c-1.56,0 -3.12,-0.13 -4.68,-0.21c-0.79,0 -1.57,-0.12 -2.35,-0.17c-0.78,-0.05 -1.56,-0.12 -2.34,-0.21c-1.56,-0.18 -3.12,-0.33 -4.67,-0.58c-0.78,-0.12 -1.56,-0.22 -2.33,-0.36l-2.31,-0.43l-1.16,-0.22l-1.15,-0.31l-2.29,-0.52l-2.24,-0.59c-0.75,-0.19 -1.49,-0.39 -2.23,-0.6l-2.24,-0.62l-2.2,-0.67l-1.1,-0.33l-1.09,-0.36c-0.72,-0.25 -1.45,-0.48 -2.17,-0.74c-2.88746,-1.00654 -5.70669,-2.19904 -8.44,-3.57l-1,-0.53c-0.34,-0.18 -0.68,-0.34 -1,-0.54l-1.94,-1.16l-1.87,-1.25c-0.31,-0.2 -0.61,-0.42 -0.9,-0.65l-0.89,-0.67c-0.29,-0.23 -0.6,-0.44 -0.88,-0.69l-0.84,-0.71c-0.56,-0.48 -1.12,-0.95 -1.63,-1.46c-0.51,-0.51 -1.06,-1 -1.56,-1.51l-1.47,-1.57c-0.24,-0.25 -0.47,-0.52 -0.7,-0.79l-0.68,-0.81l-0.68,-0.8c-0.22,-0.26 -0.42,-0.54 -0.64,-0.81l-1.25,-1.63c-0.21,-0.28 -0.41,-0.58 -0.61,-0.86c-0.2,-0.28 -0.41,-0.58 -0.59,-0.88l-0.55,-0.88c-0.18,-0.3 -0.34,-0.6 -0.52,-0.9c-0.35,-0.6 -0.63,-1.22 -0.94,-1.83c-0.57638,-1.21341 -1.07408,-2.46266 -1.49,-3.74c-0.41383,-1.24071 -0.74785,-2.50663 -1,-3.79c-0.23572,-1.2486 -0.38939,-2.51131 -0.46,-3.78c-0.31972,-4.70104 0.68129,-9.39784 2.89,-13.56z"></path><path d="M217.24,44.16c-0.37962,-0.01797 -0.74706,0.13635 -1,0.42c-0.35943,0.38178 -0.60531,0.85621 -0.71,1.37c-0.32429,1.60375 0.01482,3.27047 0.94,4.62c0.74391,1.09697 1.69508,2.03795 2.8,2.77c1.33061,0.90419 2.76825,1.63981 4.28,2.19c1.24529,0.46833 2.52172,0.84925 3.82,1.14c1,0.23 1.7,0.31 1.77,0.17c0.07,-0.14 -0.39,-0.62 -1.16,-1.32l-2.88,-2.52c-1.02245,-0.92229 -1.96885,-1.92555 -2.83,-3c-0.56077,-0.68646 -1.06256,-1.41907 -1.5,-2.19c-0.57,-0.91 -1.14,-1.65 -1.67,-2.36c-0.41621,-0.66749 -1.08898,-1.13409 -1.86,-1.29z"></path><path d="M231.68,45.44c-0.54,-0.18 -1.23,0.16 -1.76,1.07c-0.61506,1.21367 -0.70895,2.62558 -0.26,3.91c0.3501,1.04818 0.90406,2.01677 1.63,2.85c0.88752,1.01763 1.89483,1.92421 3,2.7c2.1,1.49 4,2.46 4.2,2.29c0.2,-0.17 -1.1,-2 -2.4,-4c-0.61691,-0.95824 -1.16174,-1.961 -1.63,-3c-0.28811,-0.67915 -0.52868,-1.3775 -0.72,-2.09c-0.25,-0.85 -0.54,-1.57 -0.81,-2.26c-0.19484,-0.64211 -0.64755,-1.17449 -1.25,-1.47z"></path><path d="M198.74,42.44c-0.41214,0.01773 -0.79585,0.21507 -1.05,0.54c-0.16704,0.20326 -0.30503,0.42875 -0.41,0.67c-0.15071,0.27833 -0.24261,0.58467 -0.27,0.9c-0.22207,1.78692 0.28229,3.58822 1.4,5c0.90936,1.15174 2.03345,2.11621 3.31,2.84c1.53765,0.89052 3.18031,1.58589 4.89,2.07c1.4116,0.4334 2.85178,0.76755 4.31,1c1.14,0.17 1.89,0.21 2,0.05c0.11,-0.16 -0.48,-0.66 -1.39,-1.37l-3.39,-2.59c-1.19804,-0.90901 -2.32161,-1.91219 -3.36,-3c-0.66563,-0.71716 -1.2773,-1.48259 -1.83,-2.29c-0.7,-1 -1.38,-1.74 -2,-2.47c-0.50907,-0.74601 -1.31386,-1.23763 -2.21,-1.35z"></path><path d="M308.31,42.68c-0.69798,-2.83123 -1.78854,-5.55091 -3.24,-8.08c-0.68669,-1.21907 -1.43775,-2.40074 -2.25,-3.54c-0.41,-0.55 -0.85,-1.08 -1.27,-1.61c-0.41381,-0.53811 -0.85786,-1.05227 -1.33,-1.54c-1.76276,-1.94061 -3.73095,-3.68416 -5.87,-5.2l-1.57,-1.08l-1.62,-0.95l-0.8,-0.47l-0.84,-0.41l-1.65,-0.8l-1.69,-0.66l-0.83,-0.32l-0.86,-0.25l-1.69,-0.5l-1.7,-0.35l-0.84,-0.17l-0.85,-0.1l-1.68,-0.19c-0.56,0 -1.11,0 -1.65,-0.07h-1.62c-2.0673,0.05705 -4.12542,0.298 -6.15,0.72c-1.9014,0.39496 -3.75522,0.99167 -5.53,1.78c-1.66883,0.77862 -3.19638,1.82965 -4.52,3.11c-1.23452,1.17974 -2.18213,2.62681 -2.77,4.23c-0.12,0.39 -0.25,0.76 -0.37,1.13c-0.12,0.37 -0.17,0.75 -0.24,1.12c-0.1163,0.71497 -0.18976,1.43626 -0.22,2.16c-0.17597,2.51145 0.44709,5.01419 1.78,7.15c0.57394,0.838 1.34258,1.52429 2.24,2c0.74701,0.36343 1.56019,0.57098 2.39,0.61c0.63724,0.01517 1.27427,-0.03847 1.9,-0.16c1.96432,1.088 4.43801,0.4072 5.56899,-1.53269c1.13098,-1.93989 0.5048,-4.42797 -1.40972,-5.60138c-1.91452,-1.17342 -4.41578,-0.60216 -5.63106,1.28607c-1.21528,1.88823 -0.69923,4.40145 1.16179,5.65801c-0.51881,0.04976 -1.04119,0.04976 -1.56,0c-0.75964,-0.09114 -1.49191,-0.33978 -2.15,-0.73c-0.76829,-0.4861 -1.40667,-1.15194 -1.86,-1.94c-1.05847,-2.05967 -1.43992,-4.40086 -1.09,-6.69c0.19408,-2.81405 1.49149,-5.43762 3.61,-7.3c1.21857,-1.01141 2.59307,-1.81855 4.07,-2.39c1.64932,-0.60572 3.35923,-1.03153 5.1,-1.27c1.88088,-0.26663 3.78127,-0.37035 5.68,-0.31l1.47,0.09c0.49,0 1,0.09 1.48,0.16l1.48,0.26l0.74,0.13l0.74,0.19l1.49,0.4l1.48,0.53l0.74,0.27l0.72,0.33l1.47,0.67l1.42,0.79l0.72,0.39l0.69,0.46l1.4,0.93l1.33,1c1.81595,1.44216 3.47207,3.07482 4.94,4.87c0.39064,0.44475 0.75461,0.91223 1.09,1.4c0.35,0.49 0.71,1 1,1.46c0.65495,1.01579 1.25255,2.06744 1.79,3.15c1.11642,2.18894 1.92731,4.52067 2.41,6.93c0.52262,2.44735 0.64755,4.96291 0.37,7.45c-0.70066,5.22079 -3.06397,10.07715 -6.74,13.85c-4.05698,4.20642 -8.78893,7.70468 -14,10.35c-2.73816,1.44997 -5.55221,2.75185 -8.43,3.9c-0.72,0.29 -1.46,0.59 -2.2,0.85l-2.23,0.77c-0.75,0.25 -1.48,0.53 -2.24,0.76l-2.3,0.63c-6.30521,1.71461 -12.76847,2.78345 -19.29,3.19c-13.39,0.88 -27.46,-0.52 -41.74,-3c-3.59,-0.62 -7.12,-1.29 -10.67,-2l-10.59,-2.09l-10.48,-2l-10.35,-1.94c-13.7,-2.49 -27,-4.52 -39.86,-5.76l-4.78,-0.48l-4.73,-0.31c-3.13,-0.19 -6.22,-0.44 -9.26,-0.54c-6.09,-0.23 -12,-0.29 -17.74,-0.18c-10.65352,0.14255 -21.2781,1.14582 -31.77,3c-8.68661,1.51007 -17.16281,4.04789 -25.25,7.56c-3.31361,1.44944 -6.51275,3.14762 -9.57,5.08c-1.43,0.84 -2.7,1.82 -4,2.67c-0.61,0.45 -1.19,0.92 -1.75,1.36c-0.56,0.44 -1.13,0.86 -1.63,1.33c-1.83436,1.55136 -3.56476,3.22163 -5.18,5c-0.68,0.79 -1.34,1.5 -1.88,2.19c-0.54,0.69 -1,1.34 -1.45,1.91c-0.45,0.57 -0.78,1.09 -1.07,1.54l-0.74,1.14c-0.4,0.61 -0.6,0.93 -0.6,0.93l0.68,-0.87l0.83,-1.07c0.36682,-0.50432 0.76073,-0.98836 1.18,-1.45l1.58,-1.77c0.59,-0.64 1.29,-1.29 2,-2c1.719,-1.62912 3.5357,-3.15194 5.44,-4.56c0.52,-0.42 1.1,-0.78 1.68,-1.18c0.58,-0.4 1.18,-0.8 1.8,-1.2c1.28,-0.75 2.57,-1.6 4,-2.33c3.08896,-1.66238 6.29396,-3.09946 9.59,-4.3c8.05326,-2.89906 16.41041,-4.87176 24.91,-5.88c1.15,-0.15 2.32,-0.29 3.51,-0.41c5.87277,0.13914 11.7105,0.9477 17.4,2.41c5.44223,1.36609 10.7874,3.09325 16,5.17c5.63,2.2 11.53,4.87 17.72,7.82c6.19,2.95 12.67,6.2 19.6,9.36c1.75,0.78 3.56,1.5 5.36,2.26l2.73,1.13l1.37,0.57l1.41,0.49l5.69,2l1.44,0.49c0.48,0.16 1,0.28 1.46,0.43l2.95,0.82l3,0.81l1.47,0.4c0.49,0.12 1,0.22 1.48,0.32l5.91,1.24l1.46,0.3l1.48,0.22l2.93,0.42l2.91,0.41l1.44,0.21l1.45,0.11l5.72,0.46l1.42,0.1h1.41h2.8h2.77c0.92,0 1.83,0 2.74,0l5.37,-0.25c0.88,-0.06 1.76,-0.06 2.63,-0.16l2.59,-0.27l5.06,-0.56c1.66,-0.23 3.28,-0.53 4.88,-0.79l2.38,-0.4c0.78,-0.14 1.56,-0.26 2.32,-0.45l4.5,-1c1.47,-0.35 2.92,-0.63 4.31,-1.06l4.09,-1.17l2,-0.58l1,-0.28l0.94,-0.32l7.13,-2.48l6.17,-2.47c2,-0.76 3.7,-1.61 5.33,-2.36l4.44,-2.07c5.23,-2.69 8.09,-4.25 8.09,-4.25l-8.58,3l-4.63,1.46c-1.7,0.53 -3.51,1.16 -5.52,1.67l-6.37,1.87l-7.2,1.68c-11.75635,2.61331 -23.75696,3.97093 -35.8,4.05h-5.12c-0.87,0 -1.73,0 -2.6,-0.1l-2.63,-0.16l-2.65,-0.16l-1.34,-0.08l-1.33,-0.15l-5.41,-0.61l-1.36,-0.15l-1.32,-0.32l-2.74,-0.47l-2.76,-0.45l-1.39,-0.23l-1.38,-0.31l-5.57,-1.24l-1.4,-0.31l-1.39,-0.39l-2.8,-0.78l-2.8,-0.77c-0.46,-0.13 -0.93,-0.24 -1.39,-0.39l-1.38,-0.46l-5.43,-1.8l-1.38,-0.4l-1.31,-0.52l-2.62,-1c-1.74,-0.69 -3.47,-1.32 -5.19,-2c-6.85,-2.88 -13.49,-5.85 -19.94,-8.48c-6.45,-2.63 -12.72,-5 -18.72,-6.77c-4.34387,-1.35793 -8.76088,-2.46969 -13.23,-3.33c1.85,0 3.72,0 5.61,0c5.61333,0.14 11.40667,0.43667 17.38,0.89c3,0.2 6,0.56 9.06,0.85l4.62,0.46l4.67,0.61c12.52,1.6 25.61,3.92 39.16,6.61l20.69,4.23l10.63,2.22c3.57,0.73 7.22,1.43 10.88,2.07c14.68,2.53 29.44,3.9 43.76,2.72c7.06194,-0.54695 14.04691,-1.83401 20.84,-3.84l2.52,-0.72c0.83,-0.27 1.63,-0.6 2.44,-0.89l2.42,-0.91c0.8,-0.31 1.58,-0.64 2.35,-1c3.0815,-1.33114 6.08619,-2.83348 9,-4.5c5.77961,-3.19183 10.96832,-7.35226 15.34,-12.3c2.14544,-2.48138 3.9205,-5.26018 5.27,-8.25c1.32062,-2.94944 2.1159,-6.10689 2.35,-9.33c0.20371,-3.07305 -0.08664,-6.15888 -0.86,-9.14z"></path><path d="M5.52,141.76c-1.65,0.06 -3.25,-1.9 -4.31,-5.23c-1.21502,-4.28902 -1.53498,-8.78209 -0.94,-13.2c0.55304,-3.89063 1.50471,-7.71407 2.84,-11.41c1.75899,-5.01356 4.26381,-9.73326 7.43,-14c1.53658,-2.03117 3.28289,-3.89479 5.21,-5.56c1.61109,-1.38813 3.37197,-2.59224 5.25,-3.59c3.21,-1.65 5.45,-2 5.6,-1.68c0.15,0.32 -1.6,1.69 -3.76,4.12c-1.2151,1.39088 -2.31852,2.87549 -3.3,4.44c-1.1198,1.84786 -2.08636,3.78433 -2.89,5.79c-1.61138,4.22711 -2.72879,8.6263 -3.33,13.11c-0.6,4.22 -0.84,7.94 -1.11,10.22c-0.41155,4.02082 -1.2496,7.98646 -2.5,11.83c-1.11,3.1 -2.53,5.11 -4.19,5.16z"></path><path d="M22.94,126.77c-0.92928,0.10847 -1.85449,-0.23338 -2.49,-0.92c-0.44805,-0.43085 -0.83801,-0.9183 -1.16,-1.45c-0.3974,-0.63266 -0.73231,-1.30248 -1,-2c-1.26687,-3.84199 -1.49798,-7.95016 -0.67,-11.91c0.71716,-3.4048 1.85594,-6.70692 3.39,-9.83c2.00265,-4.31354 4.78617,-8.21929 8.21,-11.52c1.71362,-1.60435 3.67998,-2.91526 5.82,-3.88c1.78582,-0.79236 3.70741,-1.23371 5.66,-1.3c1.28686,-0.01973 2.56794,0.17631 3.79,0.58c0.84,0.33 1.27,0.6 1.24,0.79c0,0.38 -2,0.54 -4.39,1.65c-1.32015,0.65621 -2.52837,1.51681 -3.58,2.55c-1.2237,1.22425 -2.26442,2.6186 -3.09,4.14c-1.71603,3.32544 -2.95167,6.87749 -3.67,10.55c-0.77,3.49 -1.15,6.58 -1.5,8.46c-0.55886,3.27109 -1.4467,6.47736 -2.65,9.57c-0.24728,0.60017 -0.53114,1.1846 -0.85,1.75c-0.25779,0.47989 -0.55906,0.93513 -0.9,1.36c-0.5263,0.71521 -1.29346,1.216 -2.16,1.41z"></path><path d="M42.06,110.53c-1.76177,-0.26209 -3.23902,-1.46691 -3.85,-3.14c-0.92844,-2.2425 -1.1176,-4.72263 -0.54,-7.08c0.5389,-2.04409 1.33881,-4.01026 2.38,-5.85c1.40958,-2.62899 3.25975,-4.99667 5.47,-7c1.11745,-1.01579 2.3902,-1.84628 3.77,-2.46c1.14699,-0.50547 2.37783,-0.79369 3.63,-0.85c2.13,0 3.24,0.68 3.24,1c0,0.32 -1.16,0.85 -2.28,1.85c-1.35624,1.25043 -2.35101,2.84276 -2.88,4.61c-1.33,3.93 -1.42,9.06 -1.9,11.24c-0.42172,2.04279 -1.34242,3.94947 -2.68,5.55c-1.03452,1.35978 -2.65154,2.14974 -4.36,2.13z"></path><path d="M399.8,62.29l-2.83,0.05c-1.82,0 -4.45,0 -7.71,-0.07c-6.5,-0.13 -15.45,-0.78 -25.25,-0.92c-2.45,-0.07 -4.84,0 -7.15,0c-2.20199,0.02254 -4.40145,0.15604 -6.59,0.4c-3.73838,0.39514 -7.45347,0.98595 -11.13,1.77c-1.57,0.34 -3,0.7 -4.23,1c-1.23,0.3 -2.3,0.64 -3.17,0.91l-2.67,0.9l2.51,-1.33c0.82,-0.39 1.85,-0.82 3,-1.35c1.15,-0.53 2.59,-1 4.15,-1.52c3.68237,-1.19806 7.44967,-2.11732 11.27,-2.75c2.25188,-0.39172 4.52654,-0.6389 6.81,-0.74c2.35,-0.09 4.8,-0.21 7.29,-0.13c8.48315,0.26276 16.94228,1.04422 25.33,2.34z"></path><path d="M478.2,12.2c-0.96921,-1.80817 -2.18781,-3.4711 -3.62,-4.94c-1.26228,-1.28378 -2.66821,-2.41792 -4.19,-3.38c-1.38725,-0.88447 -2.85756,-1.63135 -4.39,-2.23l-1.14,-0.42c-0.19241,-0.07863 -0.38944,-0.14542 -0.59,-0.2l-0.59,-0.17c-0.4,-0.13 -0.8,-0.21 -1.21,-0.31l-0.6,-0.13l-0.6,-0.1c-1.58606,-0.26016 -3.19344,-0.36732 -4.8,-0.32c-1.55674,0.05397 -3.1075,0.22108 -4.64,0.5c-2.94213,0.55578 -5.80171,1.48321 -8.51,2.76c-1.30839,0.60675 -2.57753,1.29476 -3.8,2.06c-0.62,0.37 -1.2,0.78 -1.78,1.18c-0.29,0.2 -0.57,0.42 -0.85,0.63c-0.28,0.21 -0.57,0.42 -0.83,0.65l-0.81,0.67l-0.77,0.7l-0.39,0.35l-0.37,0.37l-0.72,0.73l-0.69,0.76l-0.34,0.38l-0.32,0.4l-0.65,0.86l-0.59,0.82c-0.2,0.27 -0.38,0.55 -0.56,0.84c-0.18,0.29 -0.36,0.56 -0.52,0.85c-0.32,0.58 -0.66,1.15 -0.93,1.76c-0.55841,1.17378 -1.01023,2.39536 -1.35,3.65c-0.07,0.31 -0.15,0.62 -0.22,0.93l-0.1,0.47l-0.07,0.47l-0.14,0.94c0,0.31 0,0.63 -0.07,0.94v0.47c0,0.15 0,0.31 0,0.46c0,0.31 0,0.62 0,0.93c0,0.31 0.06,0.61 0.09,0.92v0.45c0,0.15 0.05,0.3 0.08,0.45c0.03,0.15 0.1,0.59 0.16,0.88c0.06,0.29 0.15,0.58 0.22,0.87l0.12,0.42l0.14,0.42l0.3,0.82c0.12,0.27 0.23,0.53 0.35,0.79c0.12,0.26 0.11,0.26 0.18,0.39l0.2,0.37l0.41,0.74l0.45,0.69l0.23,0.34l0.25,0.33l0.49,0.63l0.54,0.6l0.26,0.29l0.28,0.27l0.57,0.53c0.19,0.17 0.39,0.33 0.59,0.49c0.3843,0.31416 0.78485,0.6079 1.2,0.88c1.54296,1.02569 3.26693,1.74853 5.08,2.13c1.5631,0.3431 3.17452,0.40742 4.76,0.19c1.31986,-0.17601 2.60485,-0.55375 3.81,-1.12l0.4,-0.18l0.37,-0.21l0.7,-0.4c0.43,-0.29 0.83,-0.56 1.19,-0.84l0.94,-0.8l0.29,-0.3c2.48899,-1.1557 3.73346,-3.97925 2.90721,-6.59613c-0.82625,-2.61688 -3.46645,-4.21389 -6.16781,-3.7308c-2.70136,0.48309 -4.62443,2.89617 -4.49251,5.63721c0.13192,2.74104 2.27785,4.95828 5.01311,5.17972l-0.37,0.19l-0.67,0.27l-0.35,0.15l-0.37,0.12c-1.09328,0.3755 -2.23507,0.59106 -3.39,0.64c-1.34964,0.07038 -2.70157,-0.08509 -4,-0.46c-1.48502,-0.43108 -2.88052,-1.12544 -4.12,-2.05c-0.34979,-0.2418 -0.6838,-0.50567 -1,-0.79l-0.46,-0.43l-0.44,-0.46l-0.19,-0.24l-0.21,-0.25l-0.41,-0.51l-0.38,-0.54l-0.19,-0.27l-0.18,-0.29l-0.34,-0.59l-0.3,-0.61l-0.15,-0.31c-0.04934,-0.10413 -0.09275,-0.21096 -0.13,-0.32c-0.09,-0.21 -0.17,-0.43 -0.26,-0.65l-0.21,-0.67l-0.1,-0.34l-0.08,-0.35l-0.15,-0.7c0,-0.24 -0.07,-0.48 -0.1,-0.72c-0.03,-0.24 0,-0.24 0,-0.36v-0.37c0,-0.24 0,-0.49 0,-0.74c0,-0.25 0,-0.49 0,-0.74c0,-0.25 0,-0.25 0,-0.38v-0.38c0,-0.25 0.05,-0.5 0.08,-0.76c0.03,-0.26 0.09,-0.5 0.14,-0.76l0.07,-0.38l0.1,-0.38c0.07,-0.26 0.14,-0.52 0.2,-0.77c1.49346,-4.40728 4.30759,-8.24791 8.06,-11c0.24,-0.2 0.5,-0.38 0.75,-0.56l0.79,-0.6c0.53,-0.34 1.05,-0.7 1.6,-1c1.0968,-0.6696 2.2321,-1.27398 3.4,-1.81c2.41689,-1.0922 4.95949,-1.88151 7.57,-2.35c1.32104,-0.23474 2.6585,-0.36515 4,-0.39c1.33935,-0.0409 2.67941,0.05291 4,0.28l0.49,0.08l0.49,0.11c0.32,0.07 0.65,0.14 1,0.24l0.45,0.14c0.16422,0.03972 0.32479,0.09325 0.48,0.16l1,0.36c1.28913,0.50618 2.5279,1.13226 3.7,1.87c1.24541,0.7935 2.39911,1.7225 3.44,2.77c1.17887,1.1893 2.18836,2.53528 3,4c0.8904,1.64048 1.54677,3.39753 1.95,5.22c0.12,0.48 0.18,1 0.27,1.47c0.09,0.47 0.12,1 0.19,1.51c0.0653,1.05232 0.0653,2.10768 0,3.16c-0.05633,1.09654 -0.1799,2.18859 -0.37,3.27c-0.20701,1.11964 -0.48422,2.22516 -0.83,3.31c-0.35085,1.12192 -0.77167,2.22074 -1.26,3.29c-0.27,0.53 -0.51,1.08 -0.82,1.61c-0.14,0.26 -0.28,0.54 -0.44,0.8l-0.48,0.78c-0.15,0.26 -0.33,0.52 -0.5,0.77c-0.17,0.25 -0.34,0.51 -0.53,0.77l-1.17,1.55c-0.2,0.26 -0.39,0.53 -0.59,0.78l-0.63,0.76l-0.63,0.76c-0.21,0.26 -0.42,0.52 -0.64,0.76l-1.35,1.47c-0.45,0.48 -0.94,0.94 -1.42,1.41c-0.48,0.47 -1,0.92 -1.49,1.37l-0.76,0.67c-0.26,0.23 -0.54,0.43 -0.8,0.64l-0.81,0.63c-0.27,0.21 -0.54,0.43 -0.83,0.62l-1.68,1.19l-1.79,1.1c-0.29,0.19 -0.61,0.35 -0.92,0.52l-0.93,0.5c-2.56366,1.3423 -5.21269,2.51482 -7.93,3.51c-0.68,0.27 -1.39,0.5 -2.09,0.75l-1.05,0.37l-1.06,0.34l-2.14,0.68l-2.17,0.65l-2.19,0.62l-2.2,0.61l-2.19,0.55l-1.1,0.27c-0.37,0.09 -0.74,0.16 -1.11,0.23l-2.23,0.46c-0.75,0.14 -1.5,0.25 -2.25,0.38c-1.5,0.27 -3,0.44 -4.53,0.64c-0.76,0.11 -1.52,0.16 -2.28,0.24c-0.76,0.08 -1.52,0.17 -2.29,0.21c-1.53,0.11 -3.06,0.24 -4.59,0.29c-3.06,0.16 -6.13,0.19 -9.19,0.21c-3.06,0.02 -6.1,0 -9.13,-0.12l-9,-0.26c-3,-0.09 -5.94,-0.16 -8.83,-0.23c-5.79,-0.15 -11.45,-0.37 -16.88,-0.3c-2.72,0 -5.38,0.14 -8,0.33c-2.62,0.19 -5.1,0.52 -7.52,0.91c-4.52717,0.74983 -8.93535,2.09481 -13.11,4c-1.83672,0.84316 -3.58246,1.87184 -5.21,3.07c-1.48732,1.08605 -2.75621,2.44315 -3.74,4c-0.44679,0.71575 -0.78387,1.49439 -1,2.31c-0.18857,0.75472 -0.26605,1.53291 -0.23,2.31v0.56c0,0.18 0.06,0.35 0.09,0.53c0.06133,0.33845 0.14485,0.6725 0.25,1c0.21088,0.6109 0.49281,1.1949 0.84,1.74c0.57594,0.92295 1.36462,1.69448 2.3,2.25c0.68829,0.41601 1.4874,0.61143 2.29,0.56c0.48556,-0.04246 0.95626,-0.18912 1.38,-0.43c0.15,-0.08 0.24,-0.16 0.31,-0.2c0.07,-0.04 0.1,-0.08 0.09,-0.09c-0.15205,0.05413 -0.29924,0.12104 -0.44,0.2c-0.42545,0.19048 -0.88408,0.29579 -1.35,0.31c-0.75176,0.00417 -1.48723,-0.21891 -2.11,-0.64c-0.85584,-0.56167 -1.56546,-1.31928 -2.07,-2.21c-0.3129,-0.51651 -0.55824,-1.07104 -0.73,-1.65c-0.09526,-0.32697 -0.16217,-0.66154 -0.2,-1c-0.03048,-0.16524 -0.05052,-0.33224 -0.06,-0.5v-0.51c-0.00415,-0.71286 0.09007,-1.42289 0.28,-2.11c0.23286,-0.74356 0.56952,-1.45054 1,-2.1c0.97345,-1.41431 2.20499,-2.63228 3.63,-3.59c1.60792,-1.11467 3.32309,-2.06605 5.12,-2.84c4.11865,-1.75045 8.4488,-2.95402 12.88,-3.58c2.38,-0.34 4.85,-0.6 7.4,-0.73c2.55,-0.13 5.17,-0.18 7.86,-0.15c5.38,0.05 11,0.39 16.81,0.65l8.81,0.4c3,0.15 6,0.31 9,0.44c3,0.13 6.1,0.23 9.19,0.3c3.09,0.07 6.2,0.06 9.32,0c1.56,0 3.12,-0.13 4.68,-0.21c0.79,0 1.57,-0.12 2.35,-0.17c0.78,-0.05 1.56,-0.12 2.34,-0.21c1.56,-0.18 3.12,-0.33 4.67,-0.58c0.78,-0.12 1.56,-0.22 2.33,-0.36l2.31,-0.43l1.16,-0.22l1.15,-0.31l2.29,-0.52l2.24,-0.59c0.75,-0.19 1.49,-0.39 2.23,-0.6l2.22,-0.62l2.22,-0.67l1.1,-0.33l1.09,-0.36c0.72,-0.25 1.45,-0.48 2.17,-0.74c2.88746,-1.00654 5.70669,-2.19904 8.44,-3.57l1,-0.53c0.34,-0.18 0.68,-0.34 1,-0.54l1.94,-1.16l1.87,-1.25c0.31,-0.2 0.61,-0.42 0.9,-0.65l0.89,-0.67c0.29,-0.23 0.6,-0.44 0.88,-0.69l0.84,-0.71c0.56,-0.48 1.12,-0.95 1.63,-1.46c0.51,-0.51 1.06,-1 1.56,-1.51l1.47,-1.57c0.24,-0.25 0.47,-0.52 0.7,-0.79l0.68,-0.81c0.23,-0.26 0.45,-0.53 0.68,-0.8c0.23,-0.27 0.42,-0.54 0.64,-0.81l1.25,-1.63c0.21,-0.28 0.41,-0.58 0.61,-0.86c0.2,-0.28 0.41,-0.58 0.59,-0.88l0.55,-0.88c0.18,-0.3 0.34,-0.6 0.52,-0.9c0.35,-0.6 0.63,-1.22 0.94,-1.83c0.57638,-1.21341 1.07408,-2.46266 1.49,-3.74c0.41383,-1.24071 0.74785,-2.50663 1,-3.79c0.23572,-1.2486 0.38939,-2.51131 0.46,-3.78c0.31972,-4.70104 -0.68129,-9.39784 -2.89,-13.56z"></path><path d="M364.76,44.16c0.37962,-0.01797 0.74706,0.13635 1,0.42c0.35943,0.38178 0.60531,0.85621 0.71,1.37c0.32429,1.60375 -0.01482,3.27047 -0.94,4.62c-0.74391,1.09697 -1.69508,2.03795 -2.8,2.77c-1.33061,0.90419 -2.76825,1.63981 -4.28,2.19c-1.24529,0.46833 -2.52172,0.84925 -3.82,1.14c-1,0.23 -1.7,0.31 -1.77,0.17c-0.07,-0.14 0.39,-0.62 1.16,-1.32l2.88,-2.52c1.02245,-0.92229 1.96885,-1.92555 2.83,-3c0.56077,-0.68646 1.06256,-1.41907 1.5,-2.19c0.57,-0.91 1.14,-1.65 1.67,-2.36c0.41621,-0.66749 1.08898,-1.13409 1.86,-1.29z"></path><path d="M350.32,45.44c0.54,-0.18 1.24,0.16 1.76,1.07c0.61506,1.21367 0.70895,2.62558 0.26,3.91c-0.3501,1.04818 -0.90406,2.01677 -1.63,2.85c-0.87198,1.01458 -1.86237,1.92104 -2.95,2.7c-2.1,1.49 -4,2.46 -4.2,2.29c-0.2,-0.17 1.1,-2 2.4,-4c0.62057,-0.95606 1.16556,-1.95911 1.63,-3c0.28811,-0.67915 0.52868,-1.3775 0.72,-2.09c0.25,-0.85 0.54,-1.57 0.81,-2.26c0.1832,-0.63293 0.61656,-1.1638 1.2,-1.47z"></path><path d="M383.26,42.44c0.41214,0.01773 0.79585,0.21507 1.05,0.54c0.16704,0.20326 0.30503,0.42875 0.41,0.67c0.15071,0.27833 0.24261,0.58467 0.27,0.9c0.22207,1.78692 -0.28229,3.58822 -1.4,5c-0.90936,1.15174 -2.03345,2.11621 -3.31,2.84c-1.53765,0.89052 -3.18031,1.58589 -4.89,2.07c-1.4116,0.4334 -2.85178,0.76755 -4.31,1c-1.14,0.17 -1.89,0.21 -2,0.05c-0.11,-0.16 0.48,-0.66 1.39,-1.37l3.39,-2.59c1.19804,-0.90901 2.32161,-1.91219 3.36,-3c0.66563,-0.71716 1.2773,-1.48259 1.83,-2.29c0.7,-1 1.38,-1.74 2,-2.47c0.50907,-0.74601 1.31386,-1.23763 2.21,-1.35z"></path><path d="M273.69,42.68c0.69798,-2.83123 1.78854,-5.55091 3.24,-8.08c0.68669,-1.21907 1.43775,-2.40074 2.25,-3.54c0.41,-0.55 0.85,-1.08 1.27,-1.61c0.41381,-0.53811 0.85786,-1.05227 1.33,-1.54c1.76276,-1.94061 3.73095,-3.68416 5.87,-5.2l1.57,-1.08l1.62,-0.95l0.8,-0.47l0.84,-0.41l1.65,-0.79l1.69,-0.66l0.83,-0.32l0.86,-0.25l1.69,-0.5l1.7,-0.35l0.84,-0.17l0.85,-0.1l1.68,-0.19c0.56,0 1.11,0 1.65,-0.07h1.62c2.0673,0.05705 4.12542,0.298 6.15,0.72c1.9014,0.39496 3.75522,0.99167 5.53,1.78c1.66983,0.77783 3.20028,1.82516 4.53,3.1c1.22845,1.18281 2.17219,2.62919 2.76,4.23c0.12,0.39 0.25,0.76 0.37,1.13c0.12,0.37 0.17,0.75 0.24,1.12c0.1163,0.71497 0.18976,1.43626 0.22,2.16c0.17597,2.51145 -0.44709,5.01419 -1.78,7.15c-0.57394,0.838 -1.34258,1.52429 -2.24,2c-0.74701,0.36343 -1.56019,0.57098 -2.39,0.61c-0.63724,0.01517 -1.27427,-0.03847 -1.9,-0.16c-1.96432,1.088 -4.43801,0.4072 -5.56899,-1.53269c-1.13098,-1.93989 -0.5048,-4.42797 1.40972,-5.60138c1.91452,-1.17342 4.41578,-0.60216 5.63106,1.28607c1.21528,1.88823 0.69923,4.40145 -1.16179,5.65801c0.51881,0.04976 1.04119,0.04976 1.56,0c0.75964,-0.09114 1.49191,-0.33978 2.15,-0.73c0.76829,-0.4861 1.40667,-1.15194 1.86,-1.94c1.05847,-2.05967 1.43992,-4.40086 1.09,-6.69c-0.19408,-2.81405 -1.49149,-5.43762 -3.61,-7.3c-1.21857,-1.01141 -2.59307,-1.81855 -4.07,-2.39c-1.64932,-0.60572 -3.35923,-1.03153 -5.1,-1.27c-1.88088,-0.26663 -3.78127,-0.37035 -5.68,-0.31l-1.47,0.09c-0.49,0 -1,0.09 -1.48,0.16l-1.48,0.26l-0.74,0.13l-0.74,0.19l-1.49,0.4l-1.48,0.53l-0.74,0.27l-0.72,0.33l-1.47,0.67l-1.42,0.79l-0.72,0.39l-0.69,0.46l-1.4,0.93l-1.33,1c-1.81595,1.44216 -3.47207,3.07482 -4.94,4.87c-0.39064,0.44475 -0.75461,0.91223 -1.09,1.4c-0.35,0.49 -0.71,1 -1,1.46c-0.65495,1.01579 -1.25255,2.06744 -1.79,3.15c-1.11642,2.18894 -1.92731,4.52067 -2.41,6.93c-0.52262,2.44735 -0.64755,4.96291 -0.37,7.45c0.70066,5.22079 3.06397,10.07715 6.74,13.85c4.05698,4.20642 8.78893,7.70468 14,10.35c2.73816,1.44997 5.55221,2.75185 8.43,3.9c0.72,0.29 1.46,0.59 2.2,0.85l2.23,0.77c0.75,0.25 1.48,0.53 2.24,0.76l2.3,0.63c6.30521,1.71461 12.76847,2.78345 19.29,3.19c13.39,0.88 27.46,-0.52 41.74,-3c3.59,-0.62 7.12,-1.29 10.67,-2l10.59,-2.09l10.48,-2l10.35,-1.94c13.7,-2.49 27.05,-4.52 39.86,-5.76l4.78,-0.48l4.73,-0.31c3.13,-0.19 6.22,-0.44 9.26,-0.54c6.09,-0.23 12,-0.29 17.74,-0.18c10.65352,0.14255 21.2781,1.14582 31.77,3c8.68661,1.51007 17.16281,4.04789 25.25,7.56c3.31361,1.44944 6.51275,3.14762 9.57,5.08c1.43,0.84 2.7,1.82 4,2.67c0.61,0.45 1.19,0.92 1.75,1.36c0.56,0.44 1.13,0.86 1.63,1.33c1.83436,1.55136 3.56476,3.22163 5.18,5c0.68,0.79 1.34,1.5 1.88,2.19c0.54,0.69 1,1.34 1.45,1.91c0.45,0.57 0.78,1.09 1.07,1.54l0.74,1.14l0.6,0.93l-0.68,-0.87l-0.83,-1.07c-0.36682,-0.50432 -0.76073,-0.98836 -1.18,-1.45l-1.58,-1.77c-0.59,-0.64 -1.29,-1.29 -2,-2c-1.719,-1.62912 -3.5357,-3.15194 -5.44,-4.56c-0.52,-0.42 -1.1,-0.78 -1.68,-1.18c-0.58,-0.4 -1.18,-0.8 -1.8,-1.2c-1.28,-0.75 -2.57,-1.6 -4,-2.33c-3.08896,-1.66238 -6.29396,-3.09946 -9.59,-4.3c-8.05326,-2.89906 -16.41041,-4.87176 -24.91,-5.88c-1.15,-0.15 -2.32,-0.29 -3.51,-0.41c-5.87277,0.13914 -11.7105,0.9477 -17.4,2.41c-5.42529,1.36822 -10.75369,3.09536 -15.95,5.17c-5.63,2.2 -11.53,4.87 -17.72,7.82c-6.19,2.95 -12.67,6.2 -19.6,9.36c-1.75,0.78 -3.56,1.5 -5.36,2.26l-2.86,1.13l-1.37,0.57l-1.41,0.49l-5.69,2l-1.44,0.49c-0.48,0.16 -1,0.28 -1.46,0.43l-2.95,0.82l-3,0.81l-1.47,0.4c-0.49,0.12 -1,0.22 -1.48,0.32l-5.91,1.24l-1.46,0.3l-1.48,0.22l-2.93,0.42l-2.91,0.41l-1.44,0.21l-1.45,0.11l-5.72,0.46l-1.42,0.1h-1.41h-2.8h-2.77c-0.92,0 -1.83,0 -2.74,0l-5.37,-0.25c-0.88,-0.06 -1.76,-0.06 -2.63,-0.16l-2.59,-0.27l-5.06,-0.56c-1.66,-0.23 -3.28,-0.53 -4.88,-0.79l-2.38,-0.4c-0.78,-0.14 -1.56,-0.26 -2.32,-0.45l-4.5,-1c-1.47,-0.35 -2.92,-0.63 -4.31,-1.06l-4.09,-1.17l-2,-0.58l-1,-0.28l-0.94,-0.32l-7.13,-2.48l-6.09,-2.47c-1.95,-0.76 -3.7,-1.61 -5.33,-2.36l-4.44,-2.07c-5.23,-2.69 -8.08,-4.25 -8.08,-4.25l8.57,3l4.63,1.46c1.7,0.53 3.51,1.16 5.52,1.67l6.37,1.87l7.2,1.68c11.75635,2.61331 23.75696,3.97093 35.8,4.05h5.12c0.87,0 1.73,0 2.6,-0.1l2.63,-0.16l2.65,-0.16l1.34,-0.08l1.33,-0.15l5.41,-0.61l1.36,-0.15l1.37,-0.23l2.74,-0.47l2.76,-0.45l1.39,-0.23l1.38,-0.31l5.57,-1.24l1.4,-0.31l1.39,-0.39l2.8,-0.78l2.8,-0.77c0.46,-0.13 0.93,-0.24 1.39,-0.39l1.33,-0.55l5.43,-1.8l1.35,-0.44l1.31,-0.52l2.62,-1c1.74,-0.69 3.47,-1.32 5.19,-2c6.85,-2.88 13.49,-5.85 19.94,-8.48c6.45,-2.63 12.72,-5 18.72,-6.77c4.34547,-1.33093 8.76247,-2.41598 13.23,-3.25c-1.85,0 -3.71,0 -5.61,0c-5.60667,0.14 -11.4,0.43667 -17.38,0.89c-3,0.2 -6,0.56 -9.06,0.85l-4.62,0.46l-4.67,0.61c-12.52,1.6 -25.61,3.92 -39.16,6.61l-20.66,4.24l-10.63,2.17c-3.57,0.73 -7.22,1.43 -10.88,2.07c-14.68,2.53 -29.44,3.9 -43.76,2.72c-7.06194,-0.54695 -14.04691,-1.83401 -20.84,-3.84l-2.47,-0.72c-0.83,-0.27 -1.63,-0.6 -2.44,-0.89l-2.42,-0.91c-0.8,-0.31 -1.58,-0.64 -2.35,-1c-3.0815,-1.33114 -6.08619,-2.83348 -9,-4.5c-5.79742,-3.18707 -11.00335,-7.34775 -15.39,-12.3c-2.14544,-2.48138 -3.9205,-5.26018 -5.27,-8.25c-1.32062,-2.94944 -2.1159,-6.10689 -2.35,-9.33c-0.20371,-3.07305 0.08664,-6.15888 0.86,-9.14z"></path><path d="M576.48,141.76c1.65,0.06 3.25,-1.9 4.31,-5.23c1.21502,-4.28902 1.53498,-8.78209 0.94,-13.2c-0.55304,-3.89063 -1.50471,-7.71407 -2.84,-11.41c-1.75899,-5.01356 -4.26381,-9.73326 -7.43,-14c-1.53658,-2.03117 -3.28289,-3.89479 -5.21,-5.56c-1.59789,-1.36761 -3.34177,-2.55479 -5.2,-3.54c-3.21,-1.65 -5.45,-2 -5.6,-1.68c-0.15,0.32 1.57,1.69 3.71,4.12c1.2151,1.39088 2.31852,2.87549 3.3,4.44c1.1198,1.84786 2.08636,3.78433 2.89,5.79c1.61138,4.22711 2.72879,8.6263 3.33,13.11c0.6,4.22 0.84,7.94 1.11,10.22c0.41155,4.02082 1.2496,7.98646 2.5,11.83c1.11,3.05 2.53,5.06 4.19,5.11z"></path><path d="M559.06,126.77c0.92928,0.10847 1.85449,-0.23338 2.49,-0.92c0.44805,-0.43085 0.83801,-0.9183 1.16,-1.45c0.3974,-0.63266 0.73231,-1.30248 1,-2c1.26687,-3.84199 1.49798,-7.95016 0.67,-11.91c-0.71716,-3.4048 -1.85594,-6.70692 -3.39,-9.83c-2.00265,-4.31354 -4.78617,-8.21929 -8.21,-11.52c-1.71362,-1.60435 -3.67998,-2.91526 -5.82,-3.88c-1.78582,-0.79236 -3.70741,-1.23371 -5.66,-1.3c-1.28686,-0.01973 -2.56794,0.17631 -3.79,0.58c-0.84,0.33 -1.27,0.6 -1.24,0.79c0,0.38 2,0.54 4.39,1.65c1.32015,0.65621 2.52837,1.51681 3.58,2.55c1.2237,1.22425 2.26442,2.6186 3.09,4.14c1.71603,3.32544 2.95167,6.87749 3.67,10.55c0.77,3.49 1.15,6.58 1.5,8.46c0.55886,3.27109 1.4467,6.47736 2.65,9.57c0.24728,0.60017 0.53114,1.1846 0.85,1.75c0.25779,0.47989 0.55906,0.93513 0.9,1.36c0.5263,0.71521 1.29346,1.216 2.16,1.41z"></path><path d="M539.94,110.53c1.76177,-0.26209 3.23902,-1.46691 3.85,-3.14c0.92844,-2.2425 1.1176,-4.72263 0.54,-7.08c-0.52307,-2.04169 -1.30614,-4.00777 -2.33,-5.85c-1.40905,-2.62661 -3.25549,-4.99384 -5.46,-7c-1.13786,-1.01828 -2.43074,-1.8487 -3.83,-2.46c-1.14699,-0.50547 -2.37783,-0.79369 -3.63,-0.85c-2.13,0 -3.24,0.68 -3.24,1c0,0.32 1.16,0.85 2.28,1.85c1.35624,1.25043 2.35101,2.84276 2.88,4.61c1.33,3.93 1.42,9.06 1.9,11.24c0.42172,2.04279 1.34242,3.94947 2.68,5.55c1.03452,1.35978 2.65154,2.14974 4.36,2.13z"></path></g></g></g></g></svg>