<svg version="1.1" xmlns="http://www.w3.org/2000/svg" xmlns:xlink="http://www.w3.org/1999/xlink" width="202.72px" height="583.66px" viewBox="0,0,88.9125,256"><g fill="#ffd1dc" fill-rule="nonzero" stroke="none" stroke-width="1" stroke-linecap="butt" stroke-linejoin="miter" stroke-miterlimit="10" stroke-dasharray="" stroke-dashoffset="0" font-family="none" font-weight="none" font-size="none" text-anchor="none" style="mix-blend-mode: normal"><g transform="translate(-0.00141,-0.12071) scale(0.43861,0.43861)"><g id="Capa_2"><g id="Capa_2-2"><circle cx="96.34" cy="58.98" r="58.98"></circle><path d="M136.09,131.74h-69.45c-36.80426,0 -66.64,29.83574 -66.64,66.64v119.67c0.02793,11.67123 7.82971,21.89368 19.08,25c-0.1825,-1.27511 -0.21606,-2.56713 -0.1,-3.85c1.7,-20.76 28.93,-63.32 28.93,-63.32h106.9c0,0 27.23,42.56 28.93,63.32c0.11606,1.28287 0.0825,2.57489 -0.1,3.85c11.25029,-3.10632 19.05207,-13.32877 19.08,-25v-119.67c0,-36.80035 -29.82965,-66.63448 -66.63,-66.64zM161,199.92c-0.82667,7.5 -1.64667,15 -2.46,22.5l-3.26,29.84h-107.79c-1.08,-9.94667 -2.16333,-19.89333 -3.25,-29.84c-0.82,-7.5 -1.64333,-15 -2.47,-22.5c-0.46,-4.14 1.43,-9 3.58,-12.44c4.55,-7.35 13.08,-9.79 21.13,-7.27c11.74,3.67 23.27,8.22 34.88,12.3c11.61,-4.08 23.15,-8.63 34.88,-12.3c8,-2.52 16.58,-0.08 21.13,7.27c2.16,3.52 4.04,8.3 3.63,12.44z"></path><path d="M33.62,553.36c-0.19903,10.95455 5.53123,21.16324 14.98637,26.69878c9.45514,5.53554 21.16211,5.53554 30.61725,0c9.45514,-5.53554 15.18541,-15.74422 14.98637,-26.69878v-107.23h-67.06z"></path><path d="M106.81,446.13v107.23c-0.19903,10.95455 5.53123,21.16324 14.98637,26.69878c9.45514,5.53554 21.16211,5.53554 30.61725,0c9.45514,-5.53554 15.18541,-15.74422 14.98637,-26.69878l6.47,-107.23z"></path></g></g></g></g></svg>