<svg xmlns="http://www.w3.org/2000/svg" viewBox="0 0 202.72 583.66"><defs><style>.cls-1{fill:#85b185;}</style></defs><g id="Capa_2" data-name="Capa 2"><g id="Capa_2-2" data-name="Capa 2"><circle class="cls-1" cx="96.34" cy="58.98" r="58.98"/><path class="cls-1" d="M136.09,131.74H66.64A66.64,66.64,0,0,0,0,198.38V318.05a26,26,0,0,0,19.08,25,16.61,16.61,0,0,1-.1-3.85c1.7-20.76,28.93-63.32,28.93-63.32h106.9s27.23,42.56,28.93,63.32a16.61,16.61,0,0,1-.1,3.85,26,26,0,0,0,19.08-25V198.38A66.64,66.64,0,0,0,136.09,131.74ZM161,199.92q-1.24,11.25-2.46,22.5l-3.26,29.84H47.49q-1.62-14.92-3.25-29.84-1.23-11.25-2.47-22.5c-.46-4.14,1.43-9,3.58-12.44,4.55-7.35,13.08-9.79,21.13-7.27,11.74,3.67,23.27,8.22,34.88,12.3,11.61-4.08,23.15-8.63,34.88-12.3,8-2.52,16.58-.08,21.13,7.27C159.53,191,161.41,195.78,161,199.92Z"/><path class="cls-1" d="M33.62,553.36a30.3,30.3,0,1,0,60.59,0V446.13H27.15Z"/><path class="cls-1" d="M106.81,446.13V553.36a30.3,30.3,0,1,0,60.59,0l6.47-107.23Z"/></g></g></svg>